<svg xmlns="http://www.w3.org/2000/svg" xmlns:xlink="http://www.w3.org/1999/xlink" width="454" height="412" fill="none" xmlns:v="https://vecta.io/nano"><g opacity=".3" clip-path="url(#A)"><g fill="#000"><path opacity=".51" d="M12.977 0h1.569c2.192 1.95 4.978 3.246 6.937 5.43 1.413 4.036 4.511 7.019 6.586 10.665 3.78 1.16 5.417 4.67 7.492 7.662 5.086.819 10.035 2.544 15.101 3.315 3.878-1.316 7.94-1.316 11.964-.741-2.075 1.862-4.608 1.17-6.927.4-2.192.751-4.472 2.038-6.839 1.258-4.53-1.228-9.031-2.72-13.776-2.876-1.004 1.677-2.299 3.256-2.796 5.177-.029 2.203.672 4.358.516 6.561-1.841 3.402-4.783 6.054-7.424 8.842 1.208-3.666 4.257-6.093 6.43-9.115 0-2.145-.565-4.25-.546-6.405.438-2.135 1.793-3.909 2.884-5.752-1.296-3.159-3.186-6.19-6.674-7.165-1.851-3.977-5.816-6.687-6.615-11.182L13.552.848c-2.358 3.032-2.582 6.902-3.429 10.49-2.163 2.223-5.719.487-8.466.809.74 2.847 1.841 5.615 3.702 7.935-4.053-.897-3.936-5.537-4.871-8.754 2.465-.273 4.959-.214 7.395.263l1.656-1.072c.214-3.714.575-7.779 3.439-10.519z"/><path opacity=".51" d="M75.086 12.859C81.253 8.92 86.875 3.656 94.045 1.667c2.962 3.578 6.196 6.951 8.837 10.802l-5.768 2.583c.331 3.198 3.946 4.475 4.686 7.36.068 4.094-6.878 1.901-7.297 5.761 3.536 2.057 5.719 6.015 9.645 7.321 1.617 1.969 3.157 3.997 4.735 6.005l5.865-1.882c.302 6.454 1.481 12.829 2.952 19.107.994 4.874 5.612 7.965 10.103 9.261 6.06 1.901 13.104.049 18.53 3.958 1.306 2.593 1.725 5.752 4.053 7.731 3.585 3.363 8.018 5.606 12.061 8.355 2.27 1.579 4.852 2.642 7.57 3.178 4.764.965 9.431 2.369 14.224 3.227 5.359 1.063 10.24-2.018 15.423-2.759 9.547-1.472 18.53-6.025 28.34-5.879 2.144-.263 4.998.478 6.44-1.609-.087-3.753-1.656-7.272-2.445-10.909 7.433.195 15.042-1.882 21.219-6.025l-.01-5.586c5.144-4.241 10.103-9.105 16.689-11.016 5.563-2.008 11.262 1.102 16.952.058l-.731 9.476c1.131 1.56 4.589 3.422 2.631 5.557-2.894 2.603-8.32 2.739-9.148 7.282 1.159 3.12 4.023 4.923 6.956 6.132l-1.832 1.891-1.032 5.81c1.646 1.891 3.215 3.909 5.309 5.342 2.358 1.618 5.368 1.277 8.077 1.521l.048-3.899c2.212-2.038 4.258-4.377 6.996-5.713 3.205-1.267 6.293.858 8.992 2.33 5.183 2.817 10.181 6.688 16.289 7.029 1.988.166 3.352-1.745 5.008-2.505-1.101 1.384-1.968 3.861-4.199 3.558-8.905.019-15.315-7.136-23.343-9.768-4.024.127-7.56 3.704-8.992 7.331 1.334 1.57 3.234 3.344 2.318 5.615-1.568 5.489-1.705 11.367.176 16.797 2.62 1.989 5.416 3.909 7.316 6.658-.993 4.417-4.023 8.033-5.952 12.069-5.261 1.755-10.337 4.553-13.289 9.447 7.706-.546 13.844-5.83 21.268-7.273 4.111-1.043 7.394 2.408 10.317 4.738 1.783 1.219 2.699 3.88 1.286 5.703-2.747 2.964-6.43 4.787-9.567 7.253-3.088 2.213-3.907 6.171-5.066 9.554-1.832 5.469-.663 11.25.409 16.738 3.722 1.745 7.677.166 11.525-.039 2.114 1.94 2.27 5.021 2.709 7.672.35 3.568 1.081 7.088 2.26 10.48 3.235 1.492 6.284 3.461 8.466 6.347 1.627-3.949 2.933-8.491 6.654-11.016 3.206-2.321 7.21-4.114 8.554-8.179-1.812-1.765-3.965-3.374-4.978-5.762.263-4.757 1.822-9.485.633-14.272 2.533.166 5.056.37 7.58.663 4.686-1.189 9.44-2.145 13.922-3.997l3.488 5.293c5.855.975 11.807.654 17.711.507 1.15-1.93 2.095-4.094 3.849-5.586 1.578-1.091 3.604-1.111 5.407-1.569l-3.576-5.303c1.939-1.141 3.849-2.321 5.7-3.588 2.864-5.137 4.988-11.016 3.663-16.963 2.192-3.655 5.592-7.945 3.293-12.361.438-3.09.857-6.532-2.27-8.364.935-2.389 2.143-4.943 1.11-7.507-1.266-3.743-.672-7.682-.321-11.503-6.479-.624-12.987.926-19.427-.02-2.835-3.412-4.939-7.36-7.443-11.016-3.059-1.609-6.206-3.139-9.635-3.763l-3.147-1.989c-2.27-2.437-3.498-5.518-3.556-8.852-3.03-.478-5.534-2.252-8.125-3.724-2.124-1.316-4.647-.526-6.937-.293l-2.465-1.014c-3.351 2.681-8.807 1.56-9.947-2.837-3.088-1.16-6.118-2.642-9.401-3.1-2.962.039-3.449 3.315-4.102 5.537 3.605.136 7.239-.166 10.824.302a24.63 24.63 0 0 1 4.881 6.795c-1.062 4.25-3.059 8.296-5.485 11.952 1.062-4.114 2.835-7.974 4.618-11.815a79.41 79.41 0 0 1-4.394-6.112c-3.897.068-7.833.088-11.652-.78.585-2.622 1.666-5.108 3.585-7.029-2.747.146-5.475-.283-7.911-1.608-.097-3.324-1.588-6.307-3.224-9.125l-.478 1.608a94.9 94.9 0 0 1-1.831-2.193l2.64-.117c2.582 2.476 3.644 6.034 4.209 9.476 6.547.79 12.694 3.061 18.842 5.323l.906 2.993 4.978 1.56 1.471-2.203c2.475.848 5.095 1.336 7.619.331 4.403 1.092 7.813 4.504 12.373 5.108.37 2.291.087 4.943 1.695 6.834 3.634 4.748 10.551 4.553 14.701 8.618 2.514 3.256 4.687 6.766 6.723 10.334 6.693.526 13.376-.829 20.059-.02-.263 4.055-.594 8.18.449 12.157.643 2.203.185 4.465-.341 6.639 2.201 4.114 1.558 8.871 2.464 13.307-1.159 2.944-1.967 6.141-4.121 8.549 1.033 7.838-1.432 17.392-9.041 21.136 1.403 1.764 2.767 3.568 4.102 5.391-3.488.604-8.145 1.111-9.343 5.098.01 4.767.36 9.544.37 14.321 2.933 1.872 6.722 1.345 9.811 2.934-2.952 3.432-6.06 6.785-8.388 10.685-.975 1.306-.215 2.905.058 4.309l5.115 17.469c1.705 5.07-.439 10.334-.078 15.52.321 2.71-.702 6.142 1.286 8.316 6.381 1.491 13.065 1.482 19.397 3.149 2.329 2.086 2.699 5.859 2.523 8.851-1.247-2.778-1.87-5.79-3.254-8.5-3.945-.225-7.862-.761-11.778-1.219-.146 5.791-3.722 10.88-3.322 16.729-.166 3.821 1.188 7.565.857 11.386-1.783.293-3.585.38-5.368.517-3.293-4.572-6.781-10.207-12.948-10.85-5.923 1.072-11.623 3.187-17.4 4.854l-4.754 22.403c.584 3.002 2.971 5.547 2.883 8.793.868 4.221-.74 8.326-2.961 11.855.467 2.602 1.315 5.205 1.169 7.886-2.543 3.227-6.664 4.553-10.298 6.142.994 1.404 2.153 2.739 2.825 4.338-.487 2.564-2.445 4.523-3.419 6.902-.458 2.905.272 5.849.068 8.784-.195 3.899-1.52 7.604-2.426 11.376-.926 3.276.049 6.649.438 9.934 1.004 1.56 2.212 3.042 2.767 4.836.38 2.836-.243 5.683-.565 8.5 1.208 4.066-.428 8.092-1.442 11.991 4.345 3.295 7.59 7.731 10.298 12.41 4.657-.097 9.031 1.804 13.61 2.418a74.29 74.29 0 0 1 6.411.273l2.65-1.043 1.666 1.53 2.406-2.983 3.332.195c.507 1.297.965 2.642 1.637 3.9 3.673 1.482 7.882 1.218 11.438 3.09 2.27 1.16 4.647 2.778 7.287 1.745.594-1.959 1.763-3.617 3.39-4.855.127-4.221.488-8.423 1.238-12.566l1.802-1.423 1.793-10.363c2.63-.994 5.212-2.174 7.589-3.704l2.182-.585 1.588-3.432c6.353-2.076 12.929-3.753 19.68-3.139 1.189-4.562 1.842-9.242 3.108-13.775l-1.978-1.608c-3.565.741-7.258 1.296-10.804.204l.828-3.841c1.871-7.623-1.471-15.237-.546-22.928l-3.858.965c-1.578-1.706-3.039-3.568-4.958-4.904-3.819-1.862-8.564-1.599-11.906-4.465-3.01-2.583-5.806-5.566-7.394-9.251-1.773-4.066-4.472-7.741-5.466-12.128-3.692-4.757-8.213-8.91-11.165-14.213l2.183.497c2.416 6.415 9.362 9.875 11.223 16.612 3.079 5.556 4.774 12.137 9.859 16.329 2.933 3.431 7.619 3.782 11.643 5.079 2.815.711 4.471 3.275 6.283 5.332l4.54-.994c-.75 9.232 2.748 18.454.166 27.589 3.244-.069 6.508-.332 9.694-1.024l3.273 3.373c-1.636 2.077-1.695 4.64-1.938 7.146-1.208 2.145-1.637 4.552-1.647 6.999-6.878-.643-13.6.956-20.099 3.042l-1.422 4.445-2.29-.292c-2.474 1.423-5.27 2.281-7.589 3.968-.877 3.704-.701 7.711-2.679 11.103-2.28 3.871-1.403 8.452-2.104 12.674-.877 2.466-3.167 4.084-4.842 6.005h-1.735c-2.201-.965-4.277-2.174-6.469-3.139-3.458-1.463-7.375-1.277-10.804-2.779-.663-1.208-1.13-2.505-1.637-3.772l-2.601-.069 1.276 4.144-5.027-1.872-2.017.663c-3.263-.995-6.741-.117-9.947-1.316-3.867-.156-7.56-2.067-11.447-1.394l-6.284.887c-2.465-4.348-7.784-4.865-12.256-5.06-3.225-.117-6.352 1.219-9.548.878-1.344-1.131-2.455-2.506-3.809-3.607-1.198.487-2.338 1.111-3.488 1.706l-.799-2.623c-3.4-.205-6.771-.643-10.083-1.374-.838-2.34-1.871-4.592-3.108-6.746-.292-2.808-.877-5.567-1.773-8.238-1.101-3.051-.39-6.346-1.062-9.466-.789-4.036-3.907-6.97-5.904-10.421-2.387-.624-4.823-1.063-7.249-1.453l1.248 2.73-3.245.848 1.598-4.27c-2.903.244-6.04.166-8.534 1.92-2.563 1.706-5.31 3.101-8.291 3.9 2.289.478 4.637.585 6.566-1.024l1.579 1.268-4.648 1.52-2.465-.672-.087 3.919-4.277.438 3.273-1.823-.73-5.059c-1.773 2.418-3.703 4.845-5.154 7.428l2.952-.185-8.349 4.007c2.006-.312 4.043-.653 6.079-.536-1.773 1.101-3.8 1.696-5.797 2.271l-1.013-3.607c1.705-.468 3.429-.868 5.095-1.472-.789-1.141-2.484-1.258-3.741-1.248-4.335 1.492-7.336 5.274-11.467 7.126-2.523.897-4.9-.487-6.673-2.173l-3.303-.273-1.462-2.681-7.384-.79c-2.884.4-6.187 1.462-8.749-.468-2.553-1.374-3.683-4.133-5.436-6.259-3.323-1.725-7.171-2.203-10.327-4.27l-9.772-6.531c.614-.702 1.227-1.492 2.124-1.823 2.192.556 4.277 1.53 6.517 1.969-2.513-2.574-5.309-4.825-8.057-7.116.478-.546.945-1.092 1.403-1.658 2.329 4.806 7.619 6.912 10.912 10.929 2.309.321 5.076-.156 6.781 1.832-5.856.614-10.347-4.075-16.124-3.704 4.16 3.89 9.041 7.029 14.623 8.384 4.151.653 4.609 5.81 8.223 7.37 2.367 1.667 5.3.682 7.891.243a185.76 185.76 0 0 0 7.726.858l1.919 2.681 3.527.283 2.377 2.652c5.427-.654 9.09-5.08 13.63-7.643l6.294.087c.594-2.213 1.529-4.328 3.166-5.985 1.686-.039 3.4.019 5.076-.273 3.312-1.365 5.962-4.426 9.762-4.543 5.728.136 12.324.458 16.27 5.274 1.266 4.007 3.117 7.945 3.069 12.244-.146 3.363 1.13 6.503 2.533 9.495-.838 3.607 1.666 6.61 2.874 9.808 3.868.867 7.92.887 11.681 2.281l2.699-.303 3.078 4.183c5.632-1.687 11.594-1.726 17.235-.059 2.445.439 3.702 2.954 5.914 3.822 1.519.058 2.874-.79 4.267-1.268-2.933-4.26-5.865-8.657-10.191-11.649l-.127-3.705c-2.026.254-4.091.985-6.137.556-.848-1.336-1.481-2.788-2.163-4.192-3.225-.205-6.45-.263-9.684-.234.662-5.303 1.081-10.655 2.26-15.871-1.198-.926-2.367-1.891-3.673-2.632-1.607.497-3.078 1.326-4.676 1.833-3.313-1.424-6.518-3.178-9.392-5.362-.965-5.489-1.042-11.192-3.001-16.514 3.917 4.328 2.845 10.606 3.634 15.939l8.769 4.923c1.51-.77 2.961-2.281 4.803-1.833 3.215.79 5.075 3.822 6.283 6.678l-2.201-.312c-.789 3.987-1.316 8.033-1.364 12.108 3.215-.078 6.459.039 9.606.77l1.588 4.046c2.104-.42 4.228-.741 6.371-.956 1.491-3.909.127-8.013.712-12.02.078-1.881.74-3.977-.429-5.654-1.549-2.476-2.514-5.264-2.689-8.189-.799-5.186 1.968-9.953 2.504-15.013.536-3.587-.253-7.224.165-10.811.829-2.369 2.339-4.416 3.566-6.58a166.71 166.71 0 0 1-4.053-4.641c3.956-1.677 8.242-3.1 11.331-6.229-.146-2.564-.877-5.05-.916-7.624.945-3.266 3.322-6.2 2.864-9.787.302-3.646-1.744-6.698-3.098-9.886.819-7.886 3.624-15.461 4.599-23.328-.936-2.389-2.641-4.358-4.034-6.473-2.64-3.734-4.91-8.189-9.343-10.08-16.133-7.487-32.423-14.633-48.761-21.633-1.403-.448-3.001-1.364-4.404-.468-3.546 1.882-6.527 4.641-10.005 6.62-3.566 2.018-7.248 3.802-10.814 5.82-.487 4.162-.828 8.345-1.101 12.527-3.05 1.491-6.381 2.291-9.791 2.027-5.885-.37-11.574 1.365-17.332 2.213-1.14 1.784-2.426 3.52-3.069 5.557.682 3.519 2.504 6.688 3.663 10.061 1.958 4.738 1.023 9.973 1.062 14.945l-4.063.662c1.111 2.935 1.949 6.123 4.014 8.57 2.339 1.16 5.144 1.043 7.677 1.637l4.453 11.484c4.433.644 8.359 2.818 11.379 6.122 3.03-2.349 6.264-4.455 9.889-5.781 1.578 5.333.253 10.919 1.071 16.32 1.851 3.568 5.914 7.253 10.23 5.878 2.747-1.267 4.55-3.89 7.131-5.41 1.247.156 2.465.507 3.702.799.195 2.71.566 5.42 1.286 8.043 3.147 2.125 6.742 5.352 6.197 9.544-1.432-2.818-2.874-5.762-5.476-7.692-2.971-2.038-2.503-6.044-3.049-9.164-1.208-.136-2.63-.838-3.497.4-2.758 2.496-5.875 5.781-10.016 4.63-3.254-1.13-6.254-3.694-7.638-6.872-.682-4.992.253-10.061-.127-15.082-3.624 1.131-6.663 3.442-9.703 5.635-3.059-2.905-6.528-5.479-10.766-6.278l1.14 3.978-.876 1.978c2.611 2.555 5.767 4.768 7.521 8.033.487 3.178-.877 6.298-.711 9.476.906 1.999 2.903 3.607 2.825 5.957-2.796 2.368-7.677 1.559-9.402 5.244-1.159 2.028-2.601 4.475-5.27 4.465-7.122-.731-14.4-.409-21.405 1.053l-1.334 6.941c-3.907 1.667-8.223.692-12.1-.536 3.38-.897 6.8.955 10.219.292 2.027-2.602 1.062-7.828 5.271-8.335 6.401-.633 12.87-1.189 19.28-.438 3.527-.195 3.849-4.553 6.255-6.337 2.426-1.375 5.242-1.813 7.882-2.593-1.043-1.726-2.173-3.393-3.439-4.952.234-3.403 1.198-6.776.916-10.198-2.193-2.807-5.154-4.903-7.395-7.672.974-3.812-1.004-7.35-2.338-10.782-1.062-2.515-1.91-5.167-3.488-7.419-2.192-.614-4.501-.575-6.693-1.16-2.562-2.603-3.332-6.405-4.793-9.661-2.855-1.579-6.08-2.866-8.165-5.488-1.12-2.505-.847-5.411-1.938-7.916-1.462-2.593-3.615-4.718-5.144-7.282-3.079-4.836-4.93-10.285-6.976-15.598-1.997-5.323-6.07-10.275-11.691-11.894-2.796-.896-5.573.595-8.281 1.161-3.352 1.16-6.742-.332-9.967-1.17l-.126-3.948c-3.79 2.086-7.268 5.274-11.867 5.186 1.978 1.521 5.778 2.398 5.212 5.557-.146 3.158-1.675 6.014-2.338 9.066-.584 2.223-.516 4.757-2.221 6.512-.156 1.93.633 4.631-1.598 5.683-3.819.956-7.102-1.959-10.512-3.197.497 3.08.935 6.171 1.276 9.271-4.072 3.324-9.08 4.923-14.331 4.699.945 2.369 2.153 4.621 3.556 6.765 3.254.488 6.761.488 9.723 2.106 1.919 2.037 2.699 4.865 4.511 6.99 2.085 2.135 5.047 3.461 6.381 6.278l7.453 14.058c2.436 4.406 3.43 9.397 5.31 14.047 1.023 2.642 3.644 4.144 4.988 6.59 1.237 2.174 2.319 4.446 3.663 6.561l-1.334 1.55c-1.257-3.529-2.309-7.379-5.213-9.963-4.004-3.539-4.384-9.203-6.371-13.853-2.592-6.258-6.226-12.01-9.217-18.074-1.461-3.636-5.806-4.65-7.579-8.023-1.169-1.813-1.929-3.958-3.566-5.42-2.864-1.511-6.323-1.053-9.285-2.262-2.27-2.145-3.263-5.196-4.208-8.081-3.517-1.112-7.181-1.833-10.893-1.716a211.79 211.79 0 0 1 2.339 7.828c3.302 4.494 6.927 8.745 11.106 12.478l.906 5.401-1.159 3.159 5.124-.069c.653 1.053 1.345 2.087 1.9 3.208.01 1.803-1.705 2.534-3.049 3.265 1.87 1.209 3.906 2.252 5.514 3.832.682 2.447.555 5.069 1.403 7.477.925 2.174 2.397 4.046 3.673 6.015.594 4.172 2.874 8.052 6.771 9.905 3.653 2.612 8.69-.81 12.188 2.212 2.484 2.145 5.563 3.218 8.612 4.3 2.182.692 2.991 3.08 4.219 4.776-3.527-4.357-9.382-4.718-13.465-8.247-3.049-2.193-7.004-.214-10.356-1.355-1.861-.653-3.624-1.56-5.417-2.369-2.474-3.987-3.195-8.783-5.991-12.585-2.095-2.681-1.793-6.21-2.426-9.359-1.121-1.375-2.972-1.774-4.491-2.545-.556-1.199-1.121-2.388-1.559-3.626.925-.994 2.396-.926 3.585-1.336l-2.319-2.456-4.793-.069c.234-2.534.935-5.137.273-7.662-.809-1.95-2.455-3.383-3.858-4.894-2.894-2.788-5.086-6.171-7.658-9.232-.604-2.671-1.325-5.313-2.211-7.896-3.917.994-6.976 3.704-10.503 5.488-2.435 1.287-2.864-2.437-3.975-3.792l-3.868.361c-3.02-2.028-6.05-4.056-8.875-6.347l.224 4.036c-2.455-2.642.166-5.537 1.208-8.091l6.567-.156c1.471 2.037 1.286 4.094-.897 5.693l.653-3.841-4.744-.76 3.643 3.246-4.413-.068c1.646 2.72 5.495 2.262 7.083 5.001l5.29.351.253 3.724c2.553-.975 4.91-2.35 7.2-3.822 2.601-1.745 5.826-1.871 8.817-2.447l4.803 1.131c-.877-4.084-1.968-8.296-.741-12.439-3.205-2.164-6.196-5.45-10.453-4.679a28.07 28.07 0 0 0-1.218-9.72c3.994-3.636 8.223-7.038 11.282-11.571l-1.559 4.094c2.455.897 4.978 1.618 7.385 2.671 3.254 1.706 5.27 5.069 8.476 6.844 2.737 1.179 5.407-.809 7.93-1.677-.458-5.245-4.267-10.597-1.588-15.754l-.399-2.262c.623-1.345 2.075-2.651 1.519-4.27-1.295-3.899-5.592-5.41-7.93-8.52-.77-3.012-1.422-6.093-3.205-8.715-3.537.653-6.917 1.872-10.357 2.866-2.162.78-4.111-.77-5.952-1.657-3.098.107-6.06 1.004-8.807 2.398 2.143 4.279 4.247 8.735 7.803 12.059 1.559 4.494 5.018 7.857 7.19 12.01-2.357-2.125-4.598-4.465-6.06-7.311-2.601-5.391-7.287-9.525-9.333-15.228-.458-1.803.273-3.636.517-5.42-2.767-.546-6.031-.79-7.376-3.724-3.575-.058-6.654-1.677-9.596-3.539-3.507-1.004-7.063-1.832-10.424-3.285-3.342-.39-6.762.458-10.064.955-1.734 1.726-2.182 4.339-3.215 6.503-1.851 5.264-5.826 9.787-6.06 15.559l-3.01 2.895c1.656 2.564 3.41 5.06 5.388 7.389-.477 2.759-1.335 5.421-2.329 8.024-1.754 4.396-1.237 9.202-1.539 13.823h7.794c.361 4.611.322 9.242.185 13.863l3.03 2.057c1.997 1.95 4.092 3.802 6.138 5.703a180.89 180.89 0 0 0 1.286 6.795c1.705-.156 3.595-.176 4.248-2.116 2.016-.068 4.033-.088 6.04-.117.097-1.95.214-3.909.39-5.849.896 2.262.701 4.66.195 6.99l-5.31.058c-1.267 2.038-3.673 1.882-5.738 2.174-1.442-3.266-2.3-6.746-3.829-9.963l-2.777-.146-1.15-2.973-3.439-1.326-.029-14.194-8.154-.01c.282-3.5.292-7.009.526-10.499.312-3.871 2.523-7.234 3.225-10.997-1.52-3.929-4.501-7.097-7.278-10.178-1.296-3.597-3.01-7.019-4.832-10.372 3.361 2.213 4.569 6.181 5.865 9.758l1.276 1.355 2.728-2.456c.244-3.841 2.046-7.244 3.819-10.568-2.689-6.59-5.962-13.541-12.47-17.158-4.793-2.495-9.294-5.732-12.461-10.177.117-2.281 2.523-3.471 3.868-4.991-.896 1.657-1.841 3.295-2.796 4.923 2.718 2.544 5.271 5.342 8.505 7.253 3.176 1.891 6.489 3.724 8.963 6.551 3.342 3.47 4.969 8.072 7.112 12.283 1.734-3.354 2.63-7.087 4.54-10.343 3.351-1.346 7.239-1.355 10.843-1.658 2.952.712 5.631 2.311 8.681 2.701 3.371.244 5.631 3.139 8.768 3.968 3.722.097 6.664-2.993 7.755-6.347.575-2.096 2.942-2.33 4.647-3.09 1.247-2.33 2.718-4.621 3.215-7.253.03-2.34-1.617-4.202-2.679-6.152l-3.166 2.194 2.348-4.241c1.442 1.618 2.776 3.334 4.014 5.128 3.059-2.154 6.4-3.948 10.093-4.689 4.014-.858 7.628-2.808 11.282-4.582l2.64-6.649c-4.501-1.501-9.022-2.905-13.688-3.792-2.582-.507-2.66-3.734-4.014-5.508-1.549-1.413-3.439-2.398-4.901-3.909.263-2.544 1.569-4.874 2.718-7.107 3.771-1.491 8.067-1.628 11.565-3.763 1.062-3.792 1.89-7.653 3.419-11.299 1.014-2.271.702-4.776.439-7.175l-3.488 1.424-.166-3.783-1.052 2.808c-3.156-1.735-6.79-3.051-10.395-1.93-4.676 1.472-9.84 2.369-13.581 5.79l-2.699.429c.215 2.096-.273 4.027-2.357 4.982l1.013 2.817-3.147 2.788c2.231.956 5.29 1.424 6.138 4.095.643 1.813 1.607 4.182-.176 5.674-2.815-.273-3.409-3.159-4.111-5.362l-5.339-.068c-.565 2.934-.925 5.917-.643 8.9l-3.468-.4c.838 4.319 2.494 8.423 3.283 12.742.594 2.31-1.685 3.773-2.903 5.371l-1.247 5.859c1.9.537 3.79 1.287 5.787 1.307 2.552-1.862 3.838-6.064 7.706-5.547 2.095 1.179 2.27 3.665 2.358 5.8l2.621 2.788-3.751-1.755c-.224-2.164-.575-4.308-1.179-6.395-3.196 1.063-4.735 4.144-7.161 6.181-2.601.175-5.056-.916-7.502-1.657.497-2.467.877-4.953 1.15-7.458-3.371-1.267-7.317-3.714-10.454-.624-3.205-.37-6.586-.643-9.333-2.505-3.79-2.428-7.248-5.362-11.262-7.429l-.438 5.05-3.712.536c-.02 2.788.818 5.752-.136 8.452-2.406 3.442-7.093 3.598-10.834 4.358l4.93-2.515c-2.796-.156-5.563.273-8.349.438-3.858.108-7.326-1.803-10.561-3.685-3.644-2.115-7.96-2.281-12.051-2.593l-2.192 10.305 3.137.126c2.095 3.715 4.209 7.448 6.927 10.753-.448 2.759-1.111 5.479-1.958 8.14 6.479-1.209 11.837 3.071 16.367 7.058 3.332 2.857 6.313 6.717 11.048 7.068-1.52.107-3.264 1.112-4.589-.107-5.446-3.89-9.703-9.486-15.948-12.235-2.679-.906-5.544-.945-8.32-1.384l1.354-3.178-2.669-.448c1.237-.858 2.504-1.697 3.77-2.506-.945-2.924-2.621-5.527-4.131-8.179l-3.03.127 1.111-3.929-3.8.721c-2.747-3.763-4.287-8.627-8.466-11.123 1.822-2.642 3.41-5.469 4.15-8.618-1.53-1.442-2.825-3.1-3.965-4.855l2.192-1.579.351-2.944 5.066.39-2.182-4.094 3.244-5.518 2.212-.361 1.111-4.796 5.417.224c.351-3.12-.438-6.2-2.465-8.628-2.143-2.3-1.978-5.819-.322-8.335 2.475-.994 5.047-1.745 7.453-2.934l-3.965.263-1.422-1.686c-2.689.429-5.397 1.384-8.145.965-1.452-1.404-2.416-3.256-4.014-4.514-1.715-1.16-3.829-.292-5.699-.166-.711-4.864-2.212-9.573-2.718-14.467 2.387 4.134 2.767 8.959 3.751 13.532 3.887-.663 5.582-4.114 7.745-6.932 2.66-1.491 4.764-3.587 6.537-6.044 1.841-.712 3.877-.263 5.797-.263 4.472.351 8.963-.029 13.386-.682 2.309 1.979 5.154 3.062 8.037 3.88 1.725-1.569 2.972-3.538 3.712-5.742l-2.757-5.664c-2.465.215-4.969.731-7.433.293-1.686-1.901-1.676-4.796-2.523-7.136-.877-.634-1.539-1.501-2.416-2.106 1.179.195 2.367.341 3.527.624l1.481 7.877c2.426-.156 4.832-.38 7.239-.721l.244-2.895c2.942-2.973 5.339-6.756 9.236-8.588 5.719-1.94 11.935-1.794 17.789-.614l1.335-1.16c-3.293-1.209-5.436-3.968-6.381-7.272l-4.657-2.281c-.701-2.788-.799-5.664-.214-8.481-2.981-3.217-4.852-7.243-4.959-11.679-3.897-.195-7.804-.361-11.701-.37-.74-6.122 5.397-9.827 10.629-10.84-.994 2.808-4.55 2.096-6.469 3.861-1.627 1.482-2.582 3.509-3.683 5.371 3.877.653 7.794.858 11.72.809.497 2.106.886 4.25 1.559 6.307.789 2.447 2.991 4.094 3.975 6.424-.117 1.843-.614 3.656-.594 5.508.477 2.574 3.234 3.402 5.163 4.631.984 1.891 1.5 4.299 3.487 5.42 2.261 1.326 4.706 2.301 7.044 3.461l6.05-1.92c-.536-1.638-1.149-3.295-2.416-4.523-3.741-4.046-6.781-9.057-7.609-14.565.292-4.533 3.829-7.779 6.586-11.026-2.562-2.564-4.511-5.664-7.053-8.228-1.998-1.297-4.277-2.301-5.271-4.64-2.046-1.648-5.972-2.71-5.144-6.035 1.705-2.593 6.07-1.482 7.365-4.153-1.861-2.525-4.978-4.26-4.852-7.828l5.456-2.827c-2.64-2.71-4.832-5.839-7.579-8.423-3.371-.536-5.933 2.535-8.729 3.929-4.277 2.193-7.58 5.888-12.071 7.682-2.28 3.168 2.241 6.97-.575 9.7-2.767 1.735-6.021 2.476-8.924 3.958l-1.812-1.316a7.53 7.53 0 0 0 4.082-1.657c2.874-.166 5.621-1.033 7.56-3.276-1.267-2.184-3.186-3.451-5.768-2.973-1.656 2.437-3.741 4.562-6.333 6.025 1.812-2.466 3.868-4.728 5.953-6.96l2.621-.175c1.393-2.106 2.884-4.25 5.163-5.479zm35.151 29.675c.137 1.316 2.202 1.755 1.803 3.246-2.465 3.451-6.294 6.278-6.645 10.87 1.296 6.132 4.832 11.689 9.509 15.812l.117 4.26c4.598 2.301 7.872 6.415 8.982 11.455 2.446 1.794 3.508 5.323 6.616 6.122 2.182.487 4.393 1.257 6.663 1.092 2.66-1.053 5.018-3.198 8.048-3.003 1.393-.136 3.419.487 4.004-1.267 1.266-2.525 2.143-5.371 4.705-6.922-3.76-3.1-7.92-6.463-8.32-11.728-7.589-3.607-16.796-1.082-23.888-6.073-3.605-1.911-5.057-5.976-5.729-9.749-.906-5.303-2.153-10.577-2.26-15.988-1.218.575-2.621.887-3.605 1.872zm160.595 8.92c-6.235 1.774-11.311 6.151-16.065 10.382-1.169 2.535.331 6.366-2.796 7.906-3.77 1.735-7.969 2.476-11.74 4.289l-6.927.068c1.247 4.865 2.982 9.69 2.572 14.799-2.367.79-4.871.858-7.345.858 3.322 2.642 7.073 4.767 9.781 8.111 3.273-.302 7.024.643 9.83-1.56 3.78-2.72 7.122-6.717 11.925-7.516 3.205.429 6.391 1.024 9.645.965 1.042-8.169 6.148-14.867 11.272-20.989 2.241-2.086 6.235-1.774 7.56-4.923-1.14-.955-2.377-1.803-3.361-2.934-.195-3.09.351-6.181.292-9.271-4.949 1.521-9.752-2.018-14.643-.185zm7.181 22.783c-3.956 4.621-6.177 10.275-7.599 16.105-4.492 1.803-9.587-2.418-13.689.819-3.127 1.647-5.407 4.436-8.32 6.376-4.023 2.798-9.138-.146-13.347 2.291-3.614 1.17-3.907 5.226-5.115 8.228-2.065 2.476-3.946 5.255-6.566 7.165-3.332 1.014-6.888 1.248-10.123 2.662.069 2.613.332 5.254-.048 7.867-2.816 3.773-7.57 7.429-12.549 5.937-2.572-.634-5.231-.985-7.716-1.911-2.63-1.306-4.929-3.207-7.648-4.357-.458 1.998-1.364 4.016-1.101 6.112 1.092 2.359 3.595 4.192 3.8 6.863-1.12 2.505-2.221 5.05-1.978 7.867.293 2.886-1.646 5.46-1.636 8.228 2.464 1.745 5.494 2.74 8.505 2.028 5.504-1.228 10.337 2.427 15.598 3.246 8.739.517 17.487-.117 26.217-.673 8.466-.584 16.981.332 25.437-.594 5.573-.507 11.555 1.725 16.874-.322 3.468-4.299 6.352-9.261 8.408-14.408l1.403 1.676c-3.42 4.075-5.651 8.959-8.418 13.473-3.458 1.414-7.248.955-10.882.955.302 5.84.594 11.689.38 17.538-.039 2.818-1.228 5.547-3.04 7.663-1.763 1.423-4.481 1.248-5.982 3.071-1.549 3.187-1.383 7.155-3.858 9.904-1.685 2.038-4.335 2.769-6.712 3.656l-19.446 6.697c-4.073 1.628-8.223-1.832-12.315-.477-2.63 1.296-5.027 3.002-7.589 4.416.273 2.33.555 4.66.575 7.019.292 5.8-3.361 11.532-.692 17.196 5.631 1.092 10.035 5.284 12.811 10.1 3.313 8.15 6.021 16.797 11.925 23.543 2.796 2.759 2.046 6.951 3.166 10.421 3.556 2.194 7.181 5.313 11.672 4.095-.136-3.87.448-7.809-.263-11.621-1.588-3.88-2.972-7.837-4.521-11.737-.233-3.11 2.095-5.625 4.044-7.76 3.867-.292 7.628-1.267 11.447-1.872 3.79-.585 7.687.312 11.447-.526 1.345-.478 3.157-1.024 3.313-2.72.584-3.529.448-7.136.867-10.684 4.15-3.227 9.304-4.758 13.484-7.916 2.737-2.106 5.913-3.607 8.359-6.074 2.065.38 4.13.848 6.059 1.726l21.668 9.397c1.675-3.451 3.419-6.853 5.378-10.148 1.646-2.525 3.575-5.206 3.448-8.374-.711-2.233-1.89-4.27-2.854-6.405.818-1.969 1.637-4.358.175-6.259-1.948-3.724-7.677-3.743-8.602-8.12-1.51-5.06-1.325-10.461-3.137-15.452-4.17.497-9.295 2.798-12.695-.848-1.744-7.039-2.026-14.574 1.159-21.272 1.735-7.019 10.172-8.218 13.767-13.852.175-3.013-3.235-4.261-5.096-6.015-4.043-3.802-9.762-.849-13.971 1.101-4.364 2.515-9.304 3.549-14.019 5.138-.555-.527-1.111-1.034-1.676-1.541 3.449-2.963 6.089-7.145 10.542-8.725 1.958-.877 4.423-1.384 5.27-3.646 1.549-3.129 4.073-5.976 4.54-9.514-2.104-2.428-5.192-3.832-7.131-6.395-2.855-6.493-.77-13.532-.078-20.2-2.864.039-5.807.468-8.612-.244-3.644-1.141-5.943-4.445-8.145-7.331.945-2.496.282-5.479 1.939-7.672-3.176-.039-3.985-4.338-6.508-4.913zm-177.703 4.28c-5.339-.819-10.98-.809-16.076 1.111-3.156 2.154-5.894 4.982-8.174 8.052-.497 3.685 1.539 7.185 3.537 10.129 3.946 1.589 8.758.887 12.353 3.256a16.65 16.65 0 0 1 .536 14.467c3.254 1.745 7.054 3.334 8.35 7.136 3.955-.302 7.433 1.745 11.272 2.165.458-3.646-3.654-5.148-4.384-8.423 3.322-.8 6.43-2.837 9.986-2.164 2.124-2.866 5.485-4.124 8.904-4.602-.107-1.491-.126-3.041-.808-4.416-1.277-4.289-6.664-5.235-7.609-9.817-1.978-3.656 1.783-5.986 4.637-7.175-.838-5.313-4.988-8.979-9.596-11.211a68.73 68.73 0 0 1-5.748 2.233l-1.423-2.34c-1.831.799-3.643 2.203-5.757 1.599zm54.713 6.327c-3.224 1.667-3.877 5.586-5.679 8.442 3.721 3.392 8.213 5.869 11.661 9.593 1.559.39 3.176.741 4.54 1.667 2.387 1.667 5.544 1.784 7.707 3.85 2.474 2.486 6.449 1.404 9.206 3.422 2.933 1.911 3.586 6.6 7.463 7.156 2.796-1.385 4.472-4.377 6.83-6.405 3.663.682 7.199 1.911 10.58 3.461l2.046-1.121 3.186 2.076c3.195-1.316 6.615-1.794 9.947-2.574 2.416-1.374 3.79-4.016 5.709-5.976 1.997-1.988 1.471-5.254 3.371-7.301 1.315-1.687 3.39-2.379 5.28-3.159-2.591-3.588-7.19-4.894-9.664-8.559-.945-.936-1.705-2.515-3.196-2.554-8.603 1.277-16.66 4.816-25.272 6.034-4.579.702-8.836 3.5-13.591 2.749-5.592-.936-11.009-2.681-16.581-3.734-5.222-.78-8.74-5.284-13.543-7.068zm77.044 2.047c-.779-.029-2.971 1.306-1.247 1.774a4.53 4.53 0 0 0 3.595-.634c.887-1.336-1.607-1.492-2.348-1.141zm-113.013 5.108c-.828 2.593 1.286 4.806 2.338 6.99 4.599 1.647 6.109 6.736 6.46 11.162-3.498 1.112-8.174 1.696-9.353 5.84-3.264-1.823-6.44.175-9.509 1.364a181.72 181.72 0 0 1 4.112 4.446c3.205-.293 7.043.838 7.18 4.669 3.468.332 6.819 1.502 10.298 1.736 4.462-3.88 10.502-4.563 15.86-6.571-.165-1.238-.253-2.476-.253-3.724 1.53-2.184 4.326-2.905 6.566-4.143.975-1.901 1.774-3.9 2.319-5.976-2.289-1.053-4.861-2.466-4.413-5.43l8.447-.097c-3.586-2.672-7.122-5.411-10.61-8.199-3.848-2.281-7.541 1.082-11.038 2.388-2.787.088-5.515-.741-8.174-1.472-2.572-.683-3.488-3.49-4.803-5.498-2.046.215-4.131.799-5.427 2.515zM78.35 98.637c-.731 2.164-2.416 3.646-4.306 4.796-2.981-.692-6.157-1.286-8.193-3.821-6.255 1.257-12.646.731-18.969.673l-1.315 3.792c-1.919.887-4.491 1.14-5.475 3.266-1.072 1.686-2.065 3.421-3.088 5.137 2.007.887 3.361 2.613 4.316 4.543 2.825.097 5.641-.283 8.349-1.072l1.773 2.066c1.267-.458 2.543-1.052 3.936-.965.711 3.909-4.637 4.621-7.492 5.031-.185 1.901-.399 3.802-.653 5.693 2.709 4.864 8.038 7.341 10.99 11.991 1.432 2.086 3.098 4.006 4.93 5.751l.282 2.652 4.774.039c1.948-3.87 5.807-5.81 8.885-8.579 2.591.176 3.907-1.423 4.092-3.87 3.498 1.326 6.323 3.773 8.486 6.785l4.452-2.203 2.338 1.072c.292-1.394 1.413-2.924.477-4.309-2.007-2.954-5.66-5.508-5.28-9.436 1.549 1.199 1.666 3.47 2.972 4.893 1.627 1.755 3.156 3.617 4.111 5.84l-2.397 4.894-2.747-1.648c-2.777 1.433-3.478 4.631-5.3 6.912a43.02 43.02 0 0 1-3.741 1.365c1.9 1.189 3.761 2.437 5.553 3.772 1.315-.877 2.747-1.53 4.277-1.91.097 2.027.234 4.065.068 6.093-2.251 1.14-5.008-.595-7.161 1.16 2.942 2.71 6.401 4.738 9.684 6.98 2.299 1.852 5.348 1.842 8.125 2.32 3.702-3.256 8.252-.624 11.944 1.17 4.794-4.026-.594-9.603-.458-14.438l-2.075-3.217c1.481-.068 2.952-.098 4.433-.068.224-2.788.701-5.537 1.237-8.277a225.27 225.27 0 0 1 7.658-.312 70.06 70.06 0 0 1-.02 3.207c.673 1.063 1.696 1.716 2.884 2.116-.477-1.852-.584-3.978-1.851-5.508-1.861-1.394-4.218-1.833-6.255-2.915.478-1.794 2.641-2.135 3.975-3.119-1.091-2.116-2.698-4.426-.993-6.678l2.124 1.179-.098-2.661c-2.494-.546-5.037-.829-7.521-1.384-1.423-.42-1.267-2.272-1.773-3.383a23.88 23.88 0 0 0-3.956-1.385c-1.286 1.443-2.718 4.046-5.056 2.886-2.757-1.228-5.641-2.037-8.69-1.862-1.247-1.238-2.582-2.379-4.034-3.353l.653 3.07-3.78 1.784c-.838-.585-1.685-1.16-2.543-1.706l-.546 2.038c-1.958.536-1.189-2.545-.117-3.071 1.257-1.706 2.582.273 2.845 1.579l2.767-1.521a10.88 10.88 0 0 1-.857-4.299c-1.189-.975-3.088-1.433-3.624-2.993.419-2.027 1.588-3.909 1.588-6.005-.361-2.612-1.081-5.147-1.617-7.721-4.277-1.189-8.69-1.803-12.996-2.856zm73.117 4.806c1.053 2.661 5.982 3.003 4.17 6.571-.789 4.572-5.251 6.161-8.787 8.189-.186 3.899 3.887 3.86 6.702 4.396.78-.487 1.569-.936 2.387-1.355 1.169.683 1.959 1.833 2.884 2.798 2.173-2.174 3.537-5.342 6.518-6.561.419-1.413.409-3.071 1.432-4.231 1.529-1.394 3.77-1.053 5.66-1.374l-.009-2.701-1.968-1.686c-3.41.166-5.573-2.837-8.73-3.441-3.341-.897-6.839-.79-10.259-.605zm21.999 6.883l-.867 2.807-4.004-.029-1.851 2.038-.371 3.363-2.133.682c-1.13 1.969-4.092 3.539-2.874 6.132.974 3.081-.234 6.181-.984 9.154 9.206-1.024 16.747 4.904 24.122 9.417.809-1.881 1.744-3.714 2.465-5.634-.692-2.457-2.874-4.173-3.819-6.542-.049-2.437.663-4.796 1.12-7.165 4.19-.02 6.781 3.86 10.649 4.787 2.864.584 5.699 1.491 8.632 1.676 3.692-.331 6.206-3.285 8.807-5.576-.175-2.895.945-6.736-1.88-8.696-.984-.984-2.192-.068-3.235.205-3.439-.975-6.693-3.149-10.376-2.817-2.445 1.754-3.692 5.186-6.878 5.81-5.28-.029-5.456-7.292-10.278-8.228-2.075-.517-4.189-.799-6.245-1.384zM50.672 139.357c-1.754.127-3.527.156-5.241.546-.604 1.609-1.013 3.285-1.5 4.943l-1.646-.361c-.838 1.238-1.763 2.418-2.416 3.773.253 2.047.818 4.045 1.267 6.063l-4.823-.331c-.078 1.716-.546 3.227-2.494 3.49 1.062 1.209 2.289 2.242 3.459 3.334.399 1.804-.214 3.656-.38 5.459-.994 1.238-1.949 2.506-2.864 3.802 3.088 2.34 4.53 6.035 6.498 9.232 1.013-3.5 1.9-7.048 2.299-10.675 4.326-.204 8.72.322 12.743 1.979 2.367 1.131 4.433 2.906 7.034 3.529 4.082 1.404 8.291-.136 12.431-.253-.127-1.511-.39-3.003-.351-4.523 1.471-1.083 3.429-1.258 5.144-1.814l.01-2.915 3.916-1.13.049-3.568c3.03-1.687 6.128-3.783 9.762-2.691l-.097-4.475c-1.218.683-2.212 2.321-3.653 2.301-1.9-1.491-3.907-2.837-5.826-4.309-1.13-2.203 2.124-2.622 3.605-2.837l2.134-4.104c-2.27-2.33-4.462-4.787-7.326-6.415-.662 2.35-2.835 2.925-4.959 3.266-.497 2.145-2.864 2.301-4.413 3.354-1.53 1.501-2.63 3.373-4.15 4.874-1.987.478-4.043.224-6.06.234-.438-1.257-.546-2.71-1.5-3.714-3.079-3.558-5.573-7.614-9.109-10.763l-1.539 4.699zm109.262-3.704c-2.027 2.193-1.501 5.79-2.212 8.579-4.228.867-8.145 2.983-12.499 3.226l-.02 3.256a42.92 42.92 0 0 0-2.134 2.262c.721 2.164 3.118 2.593 4.998 3.217a163.5 163.5 0 0 1 1.306 4.407l1.939 2.047c4.267.107 8.31 1.511 12.139 3.295.341-2.593.428-5.284 1.451-7.721 1.89-2.116 4.94-2.174 7.551-2.272 3.643.03 7.073-1.286 10.541-2.193 1.179-2.622 2.085-5.372 2.251-8.257-7.921-4.27-15.598-11.552-25.311-9.846zm14.506 21.184c-2.903.097-5.836.263-8.544 1.413-.584 2.311-1.617 4.718-.848 7.117 1.345 3.499-1.12 6.707-2.445 9.797-3.536.79-6.391 3.344-10.025 3.87-4.092.77-8.086 2.281-11.136 5.226-.604 4.25-1.792 10.128-6.702 11.181-1.939.858-1.832 3.451-2.485 5.187l-3.79 1.94 1.277 3.09c2.757.487 6.625.497 7.053 4.085 2.163-.79 4.453-1.677 6.801-1.385 2.328.575 4.647 2.623 7.112 1.355 3.156-1.384 6.585-1.881 9.839-2.944 2.027 2.749 3.595 5.888 3.245 9.417 2.075 1.892 4.374 3.529 6.459 5.43 2.26 2.233 3.01 5.937.633 8.375l.877 2.953-1.909 1.843c.584 4.679 2.913 9.027 2.64 13.833-.224 4.904 4.199 8.794 8.515 10.236-.322-5.595 3.263-10.362 3.263-15.909-2.396-.966-5.007-2.009-5.348-4.953 5.134.839 8.69-3.149 12.821-5.332l2.056 5.05c4.676 1.637 9.284.165 13.805-1.151-2.3-6.073 1.422-12.049.906-18.191.009-2.301-.702-4.621-.293-6.912 2.66-1.608 5.33-3.256 8.145-4.591 4.345-1.19 8.739 2.115 13.016.273l21.726-7.624c4.569-1.667 5.582-7.038 6.216-11.289 1.617-2.008 3.994-3.022 6.488-3.461 1.413-2.222 3.127-4.523 3.118-7.282.195-5.946.136-11.922-.643-17.83-2.339-.224-4.696-.341-7.025-.117-8.427.838-16.903-.127-25.33.585-8.466.595-16.972 1.004-25.457.653-4.141-.595-7.882-2.739-12.003-3.441-2.484-.205-4.949.555-7.434.341-2.104-.536-3.935-1.784-5.972-2.505-2.961-.108-5.66 1.618-8.622 1.667zm176.154 9.592c-2.231-.292-4.452-.721-6.693-.848 1.276 4.26.068 8.686-.886 12.878 1.51 2.174 3.828 3.802 5.251 5.966-1.033 6.932-9.938 7.439-12.48 13.385-1.929 3.929-3.41 8.082-4.316 12.381 1.013 1.998 2.26 3.938 2.718 6.161-.029 2.457-.828 4.875-2.202 6.902-2.562 3.87-4.735 7.975-6.703 12.176 8.077 3.461 16.007 7.253 24.045 10.792 7.423 2.798 9.888 11.036 14.701 16.622 6.109-.751 11.857-3.607 17.965-4.573 2.299.098 4.277 1.521 6.245 2.584 3.128 1.696 4.258 5.352 6.781 7.672 1.374.868 3.157.439 4.706.721-1.14-4.533-1.608-9.212-1.218-13.872.048-5.001 3.741-9.261 2.825-14.369-2.348-.41-5.426.477-7.151-1.541-1.091-4.026-.419-8.286-.672-12.41-.37-3.09 1.549-6.063.633-9.105-1.851-6.863-4.004-13.638-5.894-20.482-1.686-4.874 3.381-8.364 6.186-11.591l.439-2.954-6.031-.653c-.945-1.267-2.513-2.437-2.289-4.212.331-3.275.467-6.58.185-9.865-5.816-.263-11.681.39-17.459-.322-3.176.049-3.351-4.523-5.943-5.03-4.121 1.618-8.515 2.281-12.743 3.587zm-274.475 3.315l-.341 6.112c1.676-.877 3.517-1.725 4.55-3.402-.185-1.287-.419-2.554-.701-3.812l-3.507 1.102zm71.149 70.99c-2.318 2.69-5.494 4.377-8.037 6.824 1.013 2.866 1.802 5.907 1.149 8.949l3.401-.887c2.192 2.262 4.676 4.202 7.423 5.742-.311 1.599-.652 3.188-1.062 4.767.605 2.593 1.16 5.196 1.54 7.838 5.436 3.266 12.071 1.209 16.922-2.164-.292-3.412-.867-6.776-1.334-10.158 4.082-.039 6.888 4.279 10.96 3.392 2.601-.604.828-3.714.916-5.498-3.985-2.213-7.395-5.645-8.018-10.353-2.533 1.287-5.31 1.91-8.135 1.365-2.66-2.662-5.544-5.08-8.418-7.497-2.533-.449-4.949-1.316-7.307-2.32zM3.712 19.878l1.5 1.794c-1.052 2.808.01 5.45 2.426 7.038-.38 1.959-1.335 4.143.019 5.956l.156 6.99c1.13.507 3.264-.175 3.692 1.287.994 1.316-.896 2.271-1.325 3.363-.39 3.851-3.439 6.61-4.238 10.324 3.351.624 6.021 2.876 8.661 4.855l-.555 2.496c.37 1.969.604 3.958.74 5.956 1.539 1.404 3.205 2.71 4.589 4.29-.098 2.154-.546 4.28-.809 6.424l2.923 1.414c-.156 2.34.799 5.254-1.442 6.931l.399-5.8c-.945-.76-1.929-1.462-2.728-2.379-.477-2.047.292-4.085.809-6.044a57.17 57.17 0 0 0-4.774-3.909c.029-3.168-1.383-6.346-.166-9.437l-3.244-.526-1.744-2.671-3.683-.322c-.575-4.592 3.77-7.594 4.209-11.981l1.9-2.759-4.209-.244c.653-4.611-1.403-9.105-.516-13.668-2.825-2.31-3.166-6.005-2.591-9.378zm74.296 2.895c1.754-.643 3.42-2.398 5.388-2.028-.175 5.225 2.329 10.343.672 15.5-1.9-1.618.078-4.007-.575-5.995-.575-2.798-1.14-5.605-1.042-8.481-1.919 1.082-4.111 1.774-5.758 3.266-2.075 2.613-2.192 6.727-5.524 8.296-3.02-.283-5.992.039-8.895.916-2.855-.156-1.471-4.085-2.065-5.723 1.442 1.219 1.578 3.042 1.286 4.796 3.118-1.004 6.352-1.258 9.596-1.355 3.069-2.388 3.01-7.585 6.917-9.193zm212.038 23.055c2.874.01 5.748-.078 8.593-.517 2.884 1.365 6.03 1.999 9.08 2.856-4.014 1.131-7.609-2.077-11.613-1.355-2.017-.088-4.638.975-6.06-.985zm-264.276.068c1.267 1.131 2.786 2.213 3.264 3.948.604 5.898-.088 12.371 3.118 17.635.906 2.037-.156 4.523 1.052 6.493 3.498 3.558 8.252 5.771 13.25 6.093 2.221 2.125 4.365 4.475 7.219 5.761 2.465-1.823 4.482-4.455 7.862-4.709-2.533 2.018-5.612 3.373-7.122 6.444-2.445-1.277-4.774-2.798-6.693-4.796-2.26-2.7-6.226-1.96-9.09-3.578-2.251-1.228-4.472-2.593-6.274-4.426-1.374-2.145-.253-4.933-1.364-7.155-4.082-6.629-.76-15.237-5.222-21.71zm262.315 5.762c-.506-.946-.146-4.718 1.423-3.266.224 1.053.029 3.412-1.423 3.266zm40.072 30.581l4.823 1.696 1.208 1.823c-.458 1.667-.653 3.393-.692 5.118-1.802-1.277-1.296-3.129-.711-4.816-1.637-1.16-3.322-2.281-4.628-3.821z"/><path opacity=".51" d="M19.076 88.78c2.25.448 4.413 1.297 6.186 2.778l.594 4.874-3.059.263c.682-1.394 2.26-3.032 1.228-4.679l-4.949-3.237zm5.281 10.208l.302-1.531c1.237.907 2.134 2.272 3.147 3.413-.857 1.55-3.332-.537-3.449-1.882zm391.288 159.791c1.598-1.336.653-3.977 2.114-5.216.448 1.424.224 2.915.146 4.387-5.631 6.269-10.716 13.015-16.289 19.342a29.89 29.89 0 0 0-4.111 5.751c-.458-.467-.897-.945-1.316-1.423 6.996-7.146 12.929-15.266 19.456-22.841zm-268.144 40.74c1.364-.985 2.504 1.491 1.49 2.418-1.344.926-2.494-1.512-1.49-2.418zm136.843 61.748l.273-2.233c1.675.527 3.322 1.267 4.725 2.359l-4.998 3.013c.896-1.453 2.046-2.691 3.244-3.871l-3.244.732zm5.427 1.5c1.958-.887 2.143 2.32.399 2.593-1.831.614-1.948-2.232-.399-2.593zm-75.913.8c2.504.468 5.524.322 7.385 2.359-2.815.858-5.972.575-7.385-2.359zm68.967 2.894c-.292-1.345.244-1.872 1.607-1.599.283 1.346-.253 1.872-1.607 1.599zm-10.044 2.878c2.358-2.603 6.713-2.389 10.016-2.272l-2.777 1.882c-.39 1.16-1.208 1.823-2.445 1.998l.36-2.564c-1.676.507-3.4.917-5.154.956zm-47.32-.459c.244.234.244.234 0 0h0zm6.508 3.646c.75-1.375 2.416-1.033 3.712-1.306l1.032 3.11c-1.636-.127-4.384.419-4.744-1.804zm2.085.195c.497.478.497.478 0 0h0zm11.71 5.685c.809-1.356 3.176-.049 2.153 1.306-.808 1.365-3.185.049-2.153-1.306zm.78 9.728c1.578-.516 2.114.02 1.617 1.619-1.588.516-2.124-.02-1.617-1.619zm11.68.945c1.579-.507 2.105.039 1.579 1.637-1.588.498-2.115-.048-1.579-1.637z"/></g><g fill="#188aec"><use xlink:href="#B"/><path d="M253 115c-3.87 0-7 3.13-7 7 0 5.25 7 13 7 13s7-7.75 7-13c0-3.87-3.13-7-7-7zm0 9.5a2.5 2.5 0 1 1 0-5 2.5 2.5 0 1 1 0 5zM308 270c-3.87 0-7 3.13-7 7 0 5.25 7 13 7 13s7-7.75 7-13c0-3.87-3.13-7-7-7zm0 9.5a2.5 2.5 0 1 1 0-5 2.5 2.5 0 1 1 0 5zm-90 .5c-3.87 0-7 3.13-7 7 0 5.25 7 13 7 13s7-7.75 7-13c0-3.87-3.13-7-7-7zm0 9.5a2.5 2.5 0 1 1 0-5 2.5 2.5 0 1 1 0 5zM202 172c-3.87 0-7 3.13-7 7 0 5.25 7 13 7 13s7-7.75 7-13c0-3.87-3.13-7-7-7zm0 9.5a2.5 2.5 0 1 1 0-5 2.5 2.5 0 1 1 0 5zM111 122c-3.87 0-7 3.13-7 7 0 5.25 7 13 7 13s7-7.75 7-13c0-3.87-3.13-7-7-7zm0 9.5a2.5 2.5 0 1 1 0-5 2.5 2.5 0 1 1 0 5zM63 38c-3.87 0-7 3.13-7 7 0 5.25 7 13 7 13s7-7.75 7-13c0-3.87-3.13-7-7-7zm0 9.5a2.5 2.5 0 1 1 0-5 2.5 2.5 0 1 1 0 5zM365 208c-3.87 0-7 3.13-7 7 0 5.25 7 13 7 13s7-7.75 7-13c0-3.87-3.13-7-7-7zm0 9.5a2.5 2.5 0 1 1 0-5 2.5 2.5 0 1 1 0 5zM389 322c-3.87 0-7 3.13-7 7 0 5.25 7 13 7 13s7-7.75 7-13c0-3.87-3.13-7-7-7zm0 9.5a2.5 2.5 0 1 1 0-5 2.5 2.5 0 1 1 0 5zM123 220c-3.87 0-7 3.13-7 7 0 5.25 7 13 7 13s7-7.75 7-13c0-3.87-3.13-7-7-7zm0 9.5a2.5 2.5 0 1 1 0-5 2.5 2.5 0 1 1 0 5zM92 160c-3.87 0-7 3.13-7 7 0 5.25 7 13 7 13s7-7.75 7-13c0-3.87-3.13-7-7-7zm0 9.5a2.5 2.5 0 1 1 0-5 2.5 2.5 0 1 1 0 5zM284 185c-3.87 0-7 3.13-7 7 0 5.25 7 13 7 13s7-7.75 7-13c0-3.87-3.13-7-7-7zm0 9.5a2.5 2.5 0 1 1 0-5 2.5 2.5 0 1 1 0 5zM259 60c-3.87 0-7 3.13-7 7 0 5.25 7 13 7 13s7-7.75 7-13c0-3.87-3.13-7-7-7zm0 9.5a2.5 2.5 0 1 1 0-5 2.5 2.5 0 1 1 0 5zM308 57c-3.87 0-7 3.13-7 7 0 5.25 7 13 7 13s7-7.75 7-13c0-3.87-3.13-7-7-7zm0 9.5a2.5 2.5 0 1 1 0-5 2.5 2.5 0 1 1 0 5zM190 84c-3.87 0-7 3.13-7 7 0 5.25 7 13 7 13s7-7.75 7-13c0-3.87-3.13-7-7-7zm0 9.5a2.5 2.5 0 1 1 0-5 2.5 2.5 0 1 1 0 5z"/></g></g><defs><clipPath id="A"><path fill="#fff" d="M0 0h454v411.394H0z"/></clipPath><path id="B" d="M353 110c-3.87 0-7 3.13-7 7 0 5.25 7 13 7 13s7-7.75 7-13c0-3.87-3.13-7-7-7zm0 9.5a2.5 2.5 0 1 1 0-5 2.5 2.5 0 1 1 0 5z"/></defs></svg>