<svg width="21" height="13" viewBox="0 0 21 13" fill="none" xmlns="http://www.w3.org/2000/svg">
<path fill-rule="evenodd" clip-rule="evenodd" d="M14.5576 0.5C15.2921 0.5 15.8931 1.10097 15.8931 1.83549V11.1839C15.8931 11.9184 15.2921 12.5194 14.5576 12.5194H5.20919C4.47467 12.5194 3.8737 11.9184 3.8737 11.1839V1.83549C3.8737 1.10097 4.47467 0.5 5.20919 0.5H14.5576ZM9.21565 9.52122L7.54629 7.51131L5.20919 10.5162H14.5576L11.5528 6.50969L9.21565 9.52122ZM9.21577 5.84202C9.58456 5.84202 9.88352 5.54306 9.88352 5.17427C9.88352 4.80548 9.58456 4.50651 9.21577 4.50651C8.84698 4.50651 8.54802 4.80548 8.54802 5.17427C8.54802 5.54306 8.84698 5.84202 9.21577 5.84202Z" fill="#188AEC"/>
<path d="M3.33928 1.8355H1.03871C0.46742 1.8355 0 2.30293 0 2.87422V10.1452C0 10.7165 0.46742 11.1839 1.03871 11.1839H3.33928V9.62585H1.03871L2.85646 7.28874L3.33928 7.87007V1.8355Z" fill="#188AEC"/>
<path d="M19.0613 11.184H16.4274V9.62595H19.0613L16.7241 6.50977L16.4274 6.89219V1.8355H19.0613C19.6326 1.8355 20.1 2.30293 20.1 2.87423V10.1453C20.1 10.7166 19.6326 11.184 19.0613 11.184Z" fill="#188AEC"/>
</svg>
