<svg width="454" height="412" viewBox="0 0 454 412" fill="none" xmlns="http://www.w3.org/2000/svg">
<path d="M68.2998 201H74.3203L57.665 164.855H57.3354L40.6802 201H46.7007L49.1177 195.617H65.8828L68.2998 201ZM51.271 190.849L57.5112 177.006L63.7295 190.849H51.271ZM96.3721 201.593C103.557 201.593 109.006 197.55 109.006 191.266C109.006 185.685 104.656 182.982 99.0527 180.521C94.7461 178.676 91.4722 177.687 91.4722 174.918C91.4722 172.414 94.0649 170.392 97.3169 170.392C99.8877 170.392 102.327 171.732 103.425 174.127L107.556 171.271C106.106 167.382 102.327 164.943 97.2729 164.943C90.9009 164.943 85.8691 168.986 85.8691 174.787C85.8691 180.346 90.4834 182.499 94.6362 184.345C98.7671 186.125 103.425 188.102 103.425 191.376C103.425 194.079 100.415 195.99 96.438 195.99C93.0322 195.99 90.0879 194.408 88.5059 191.64L84.1113 194.782C86.1328 198.869 90.5493 201.593 96.3721 201.593ZM143.89 171.051V165.58H122.796V201H143.89V195.463H128.355V185.663H141.759V180.126H128.355V171.051H143.89ZM180.883 165.58H156.318V171.095H165.81V201H171.391V171.095H180.883V165.58ZM209.241 201.571C214.515 201.571 218.404 199.264 221.458 196.254L218.25 191.771C215.811 194.188 212.691 195.99 209.065 195.99C202.715 195.99 196.497 190.475 196.497 183.334C196.497 176.237 202.627 170.612 209.043 170.612C212.515 170.612 215.745 172.26 218.228 174.743L221.458 170.37C217.986 166.986 213.746 165.031 209.153 164.965C199.2 164.965 190.872 173.336 190.872 183.312C190.872 193.31 199.2 201.571 209.241 201.571ZM249.926 201.571C260.011 201.571 268.273 193.354 268.273 183.334C268.273 173.227 260.011 164.965 249.948 164.965C239.862 164.965 231.645 173.227 231.645 183.334C231.645 193.354 239.862 201.571 249.926 201.571ZM249.926 195.946C242.938 195.946 237.248 190.255 237.248 183.29C237.248 176.281 242.938 170.568 249.926 170.568C256.913 170.568 262.648 176.281 262.648 183.29C262.648 190.255 256.913 195.946 249.926 195.946Z" fill="#188AEC"/>
<path d="M286.553 201H292.778V190.805L300.073 177.387H292.954L289.673 184.228L286.377 177.387H279.272L286.553 190.805V201ZM319.623 201H326.493L315.507 177.094H312.533L301.562 201H308.417L309.618 198.246H318.437L319.623 201ZM311.596 193.661L314.027 188.065L316.444 193.661H311.596ZM342.557 177.387L334.852 177.401V201H342.557C350.584 201 355.491 196.547 355.491 189.223C355.491 181.84 350.584 177.357 342.557 177.387ZM342.454 195.097H340.96V183.246H342.396C346.629 183.246 349.207 185.502 349.207 189.208C349.207 192.87 346.644 195.097 342.454 195.097ZM378.732 201H385.603L374.616 177.094H371.643L360.671 201H367.526L368.728 198.246H377.546L378.732 201ZM370.705 193.661L373.137 188.065L375.554 193.661H370.705ZM413.795 201L405.665 188.9L412.901 177.387H405.694L400.216 186.19V177.387H393.961V201H400.216V192.021L406.192 201H413.795Z" fill="#FFB800"/>
<path d="M24.4402 242V224.57H35.4211V227.16H27.1294V239.41H35.4211V242H24.4402ZM25.6603 234.356V231.766H34.0516V234.356H25.6603ZM52.4679 242L46.9401 228.927H49.704L53.688 238.713L53.2149 238.937L57.4728 228.927H60.1122L54.3105 242H52.4679ZM77.6566 242.249C76.312 242.249 75.1168 241.967 74.071 241.402C73.0418 240.821 72.2284 240.033 71.6308 239.037C71.0498 238.041 70.7593 236.895 70.7593 235.601C70.7593 234.572 70.9253 233.634 71.2573 232.787C71.5893 231.94 72.0458 231.21 72.6268 230.596C73.2244 229.965 73.9299 229.484 74.7433 229.152C75.5733 228.803 76.4697 228.629 77.4325 228.629C78.2791 228.629 79.0676 228.795 79.798 229.127C80.5284 229.442 81.1592 229.882 81.6904 230.446C82.2382 231.011 82.6532 231.683 82.9354 232.463C83.2342 233.227 83.3753 234.065 83.3587 234.978L83.3338 236.074H72.6517L72.079 234.032H81.1177L80.7442 234.455V233.858C80.6944 233.31 80.5118 232.82 80.1964 232.389C79.881 231.957 79.4826 231.617 79.0012 231.368C78.5198 231.119 77.9969 230.994 77.4325 230.994C76.5361 230.994 75.7808 231.168 75.1666 231.517C74.5524 231.849 74.0876 232.347 73.7722 233.011C73.4568 233.658 73.2991 234.464 73.2991 235.426C73.2991 236.339 73.49 237.136 73.8718 237.817C74.2536 238.481 74.7931 238.995 75.4903 239.361C76.1875 239.726 76.9926 239.908 77.9056 239.908C78.553 239.908 79.1506 239.8 79.6984 239.585C80.2628 239.369 80.8687 238.979 81.5161 238.414L82.8109 240.232C82.4125 240.63 81.9228 240.979 81.3418 241.278C80.7774 241.577 80.1715 241.817 79.5241 242C78.8933 242.166 78.2708 242.249 77.6566 242.249ZM95.6079 242V228.927H98.1975V233.036L97.9485 232.04C98.1311 231.409 98.4382 230.836 98.8698 230.322C99.318 229.807 99.8243 229.401 100.389 229.102C100.97 228.803 101.567 228.654 102.182 228.654C102.464 228.654 102.729 228.678 102.978 228.728C103.244 228.778 103.451 228.836 103.601 228.903L102.929 231.691C102.729 231.608 102.505 231.542 102.256 231.492C102.024 231.426 101.791 231.393 101.559 231.393C101.111 231.393 100.679 231.484 100.264 231.666C99.8658 231.832 99.5089 232.073 99.1935 232.389C98.8947 232.687 98.654 233.044 98.4714 233.459C98.2888 233.858 98.1975 234.298 98.1975 234.779V242H95.6079ZM117.304 247.727L119.943 241.626L119.968 243.668L113.444 228.927H116.432L120.516 238.539C120.599 238.705 120.698 238.962 120.815 239.311C120.931 239.643 121.03 239.975 121.113 240.307L120.466 240.456C120.599 240.108 120.723 239.759 120.84 239.41C120.972 239.062 121.097 238.713 121.213 238.365L124.624 228.927H127.662L122.284 242L120.068 247.727H117.304ZM142.255 242L137.798 228.927L140.387 228.903L143.575 238.688L143.002 238.638L146.463 230.994H148.007L151.493 238.663L150.821 238.713L154.033 228.927H156.622L152.215 242H150.447L146.812 233.683L147.384 233.758L143.998 242H142.255ZM168.42 242V223.574H170.985V231.617L170.536 231.915C170.702 231.334 171.026 230.803 171.508 230.322C171.989 229.824 172.562 229.425 173.226 229.127C173.89 228.811 174.57 228.654 175.267 228.654C176.263 228.654 177.093 228.853 177.757 229.251C178.421 229.633 178.919 230.222 179.251 231.019C179.583 231.816 179.749 232.82 179.749 234.032V242H177.185V234.206C177.185 233.459 177.085 232.845 176.886 232.364C176.687 231.866 176.38 231.509 175.965 231.293C175.55 231.061 175.035 230.961 174.421 230.994C173.923 230.994 173.466 231.077 173.051 231.243C172.636 231.393 172.271 231.608 171.956 231.891C171.657 232.173 171.416 232.505 171.234 232.887C171.068 233.252 170.985 233.65 170.985 234.082V242H169.715C169.499 242 169.283 242 169.067 242C168.852 242 168.636 242 168.42 242ZM198.791 242.249C197.447 242.249 196.251 241.967 195.206 241.402C194.176 240.821 193.363 240.033 192.765 239.037C192.184 238.041 191.894 236.895 191.894 235.601C191.894 234.572 192.06 233.634 192.392 232.787C192.724 231.94 193.18 231.21 193.761 230.596C194.359 229.965 195.064 229.484 195.878 229.152C196.708 228.803 197.604 228.629 198.567 228.629C199.414 228.629 200.202 228.795 200.933 229.127C201.663 229.442 202.294 229.882 202.825 230.446C203.373 231.011 203.788 231.683 204.07 232.463C204.369 233.227 204.51 234.065 204.493 234.978L204.468 236.074H193.786L193.214 234.032H202.252L201.879 234.455V233.858C201.829 233.31 201.646 232.82 201.331 232.389C201.016 231.957 200.617 231.617 200.136 231.368C199.654 231.119 199.131 230.994 198.567 230.994C197.671 230.994 196.915 231.168 196.301 231.517C195.687 231.849 195.222 232.347 194.907 233.011C194.591 233.658 194.434 234.464 194.434 235.426C194.434 236.339 194.625 237.136 195.006 237.817C195.388 238.481 195.928 238.995 196.625 239.361C197.322 239.726 198.127 239.908 199.04 239.908C199.688 239.908 200.285 239.8 200.833 239.585C201.397 239.369 202.003 238.979 202.651 238.414L203.945 240.232C203.547 240.63 203.057 240.979 202.476 241.278C201.912 241.577 201.306 241.817 200.659 242C200.028 242.166 199.405 242.249 198.791 242.249ZM216.743 242V228.927H219.332V233.036L219.083 232.04C219.266 231.409 219.573 230.836 220.004 230.322C220.453 229.807 220.959 229.401 221.523 229.102C222.104 228.803 222.702 228.654 223.316 228.654C223.598 228.654 223.864 228.678 224.113 228.728C224.379 228.778 224.586 228.836 224.735 228.903L224.063 231.691C223.864 231.608 223.64 231.542 223.391 231.492C223.158 231.426 222.926 231.393 222.694 231.393C222.245 231.393 221.814 231.484 221.399 231.666C221 231.832 220.644 232.073 220.328 232.389C220.029 232.687 219.789 233.044 219.606 233.459C219.423 233.858 219.332 234.298 219.332 234.779V242H216.743ZM241.788 242.249C240.444 242.249 239.249 241.967 238.203 241.402C237.174 240.821 236.36 240.033 235.763 239.037C235.182 238.041 234.891 236.895 234.891 235.601C234.891 234.572 235.057 233.634 235.389 232.787C235.721 231.94 236.178 231.21 236.759 230.596C237.356 229.965 238.062 229.484 238.875 229.152C239.705 228.803 240.602 228.629 241.564 228.629C242.411 228.629 243.199 228.795 243.93 229.127C244.66 229.442 245.291 229.882 245.822 230.446C246.37 231.011 246.785 231.683 247.067 232.463C247.366 233.227 247.507 234.065 247.491 234.978L247.466 236.074H236.784L236.211 234.032H245.25L244.876 234.455V233.858C244.826 233.31 244.644 232.82 244.328 232.389C244.013 231.957 243.614 231.617 243.133 231.368C242.652 231.119 242.129 230.994 241.564 230.994C240.668 230.994 239.913 231.168 239.298 231.517C238.684 231.849 238.219 232.347 237.904 233.011C237.589 233.658 237.431 234.464 237.431 235.426C237.431 236.339 237.622 237.136 238.004 237.817C238.385 238.481 238.925 238.995 239.622 239.361C240.319 239.726 241.124 239.908 242.037 239.908C242.685 239.908 243.282 239.8 243.83 239.585C244.395 239.369 245.001 238.979 245.648 238.414L246.943 240.232C246.544 240.63 246.055 240.979 245.474 241.278C244.909 241.577 244.303 241.817 243.656 242C243.025 242.166 242.403 242.249 241.788 242.249ZM276.604 242V228.927H279.169V242H276.604ZM277.849 226.039C277.301 226.039 276.878 225.898 276.579 225.616C276.28 225.334 276.131 224.935 276.131 224.421C276.131 223.939 276.28 223.549 276.579 223.25C276.894 222.951 277.318 222.802 277.849 222.802C278.397 222.802 278.82 222.943 279.119 223.225C279.418 223.508 279.567 223.906 279.567 224.421C279.567 224.902 279.409 225.292 279.094 225.591C278.795 225.89 278.38 226.039 277.849 226.039ZM292.573 242V228.927H295.137V231.617L294.689 231.915C294.855 231.334 295.179 230.803 295.66 230.322C296.142 229.824 296.714 229.425 297.378 229.127C298.042 228.811 298.723 228.654 299.42 228.654C300.416 228.654 301.246 228.853 301.91 229.251C302.574 229.633 303.072 230.222 303.404 231.019C303.736 231.816 303.902 232.82 303.902 234.032V242H301.338V234.206C301.338 233.459 301.238 232.845 301.039 232.364C300.84 231.866 300.532 231.509 300.117 231.293C299.702 231.061 299.188 230.961 298.574 230.994C298.076 230.994 297.619 231.077 297.204 231.243C296.789 231.393 296.424 231.608 296.109 231.891C295.81 232.173 295.569 232.505 295.386 232.887C295.22 233.252 295.137 233.65 295.137 234.082V242H293.868C293.652 242 293.436 242 293.22 242C293.004 242 292.789 242 292.573 242ZM333.284 242V239.51H336.098V227.06H333.284V224.57H341.601V227.06H338.787V239.51H341.601V242H333.284ZM355.284 242V224.57H362.705C363.701 224.57 364.614 224.819 365.444 225.317C366.29 225.798 366.962 226.462 367.46 227.309C367.958 228.139 368.207 229.077 368.207 230.123C368.207 231.069 367.958 231.949 367.46 232.762C366.962 233.575 366.298 234.231 365.468 234.729C364.638 235.211 363.717 235.451 362.705 235.451H357.974V242H355.284ZM365.643 242L361.211 234.132L363.974 233.509L368.905 242.025L365.643 242ZM357.974 232.862H362.954C363.435 232.862 363.867 232.745 364.248 232.513C364.63 232.264 364.929 231.932 365.145 231.517C365.361 231.085 365.468 230.612 365.468 230.098C365.468 229.517 365.327 229.01 365.045 228.579C364.78 228.131 364.398 227.782 363.9 227.533C363.418 227.284 362.871 227.16 362.256 227.16H357.974V232.862ZM380.242 242L386.99 224.57H389.729L396.427 242H393.563L389.579 231.492C389.53 231.376 389.43 231.094 389.281 230.646C389.148 230.197 388.99 229.699 388.808 229.152C388.625 228.604 388.459 228.106 388.31 227.658C388.16 227.193 388.061 226.894 388.011 226.761L388.583 226.736C388.484 227.018 388.359 227.375 388.21 227.807C388.077 228.239 387.928 228.695 387.762 229.176C387.612 229.658 387.463 230.114 387.314 230.546C387.164 230.961 387.04 231.31 386.94 231.592L382.981 242H380.242ZM383.23 237.667L384.226 235.078H392.144L393.29 237.667H383.23ZM408.956 242V224.57H411.372L422.029 238.838L421.631 239.062C421.564 238.647 421.506 238.199 421.456 237.717C421.406 237.219 421.357 236.696 421.307 236.148C421.274 235.584 421.24 234.995 421.207 234.381C421.191 233.75 421.174 233.094 421.157 232.413C421.141 231.733 421.133 231.027 421.133 230.297V224.57H423.822V242H421.357L410.874 228.255L411.148 227.907C411.231 228.919 411.297 229.782 411.347 230.496C411.413 231.193 411.463 231.791 411.496 232.289C411.546 232.77 411.579 233.169 411.596 233.484C411.612 233.783 411.621 234.032 411.621 234.231C411.637 234.43 411.646 234.605 411.646 234.754V242H408.956Z" fill="#909195"/>
<g opacity="0.3" clip-path="url(#clip0_3017_93082)">
<path opacity="0.51" d="M12.9782 0H14.5467C16.7388 1.94973 19.5251 3.24631 21.4833 5.43001C22.896 9.46596 25.9941 12.4491 28.0693 16.0951C31.8494 17.2551 33.4861 20.7647 35.5612 23.7575C40.6468 24.5764 45.596 26.3019 50.6621 27.0721C54.5396 25.756 58.6022 25.756 62.6259 26.3312C60.5507 28.1931 58.0177 27.501 55.699 26.7308C53.5069 27.4815 51.2272 28.7683 48.8597 27.9884C44.3295 26.7601 39.8284 25.2685 35.0839 25.1126C34.0804 26.7893 32.7846 28.3686 32.2878 30.2891C32.2585 32.4923 32.96 34.6468 32.8041 36.85C30.9628 40.2523 28.0206 42.9039 25.3803 45.692C26.5884 42.0265 29.6378 39.5991 31.8104 36.577C31.8104 34.4323 31.2453 32.3266 31.2648 30.1721C31.7032 28.0372 33.0574 26.2629 34.1486 24.4204C32.8528 21.2618 30.9628 18.23 27.475 17.2551C25.6239 13.2777 21.6587 10.5676 20.8598 6.07342C18.4242 4.32841 15.9691 2.62239 13.553 0.848134C11.1953 3.87997 10.9712 7.75019 10.1236 11.3377C7.96077 13.5604 4.40476 11.8251 1.65738 12.1468C2.39781 14.9935 3.49871 17.7621 5.35953 20.0823C1.30665 19.1854 1.42356 14.545 0.488281 11.328C2.95313 11.055 5.44721 11.1135 7.88283 11.5912C8.29201 11.3182 9.12013 10.7918 9.53905 10.5188C9.75339 6.80457 10.1139 2.73938 12.9782 0Z" fill="black"/>
<path opacity="0.51" d="M75.0873 12.8594C81.2543 8.92098 86.8757 3.6567 94.0462 1.66797C97.0079 5.24573 100.242 8.61877 102.883 12.4695C100.973 13.3469 99.0441 14.2048 97.1151 15.0529C97.4463 18.2505 101.061 19.5275 101.801 22.4131C101.869 26.5076 94.923 24.3141 94.5041 28.1746C98.0406 30.2316 100.223 34.1895 104.149 35.4959C105.766 37.4651 107.306 39.4928 108.884 41.501C110.833 40.8576 112.781 40.224 114.749 39.6195C115.051 46.0732 116.23 52.4488 117.701 58.7269C118.695 63.6013 123.313 66.6916 127.804 67.9882C133.864 69.8892 140.908 68.0369 146.334 71.9461C147.64 74.5393 148.059 77.6978 150.387 79.6768C153.972 83.0401 158.405 85.2823 162.448 88.0314C164.718 89.6107 167.3 90.6733 170.018 91.2095C174.782 92.1746 179.449 93.5784 184.242 94.4363C189.601 95.4989 194.482 92.4183 199.665 91.6774C209.212 90.2054 218.195 85.6528 228.005 85.799C230.149 85.5358 233.003 86.2767 234.445 84.1905C234.358 80.4372 232.789 76.9179 232 73.2817C239.433 73.4767 247.042 71.4002 253.219 67.257C253.19 65.395 253.19 63.533 253.209 61.671C258.353 57.4304 263.312 52.5658 269.898 50.655C275.461 48.6468 281.16 51.7566 286.85 50.7135C286.568 53.8721 286.324 57.0209 286.119 60.1892C287.249 61.749 290.708 63.611 288.75 65.746C285.856 68.3489 280.43 68.4854 279.602 73.0282C280.761 76.1478 283.625 77.9513 286.558 79.1601C285.944 79.7841 285.33 80.4177 284.726 81.0514C284.395 82.9914 284.054 84.9314 283.693 86.8616C285.34 88.7528 286.909 90.7708 289.003 92.2039C291.361 93.8221 294.371 93.4809 297.08 93.7247C297.099 92.4183 297.109 91.1218 297.128 89.8252C299.34 87.7877 301.386 85.448 304.123 84.1125C307.329 82.8451 310.417 84.9703 313.116 86.4424C318.299 89.2598 323.297 93.13 329.405 93.4712C331.393 93.6369 332.757 91.7262 334.413 90.9658C333.312 92.3501 332.445 94.8263 330.214 94.524C321.309 94.5435 314.899 87.388 306.871 84.7559C302.847 84.8826 299.311 88.4604 297.879 92.0869C299.213 93.6564 301.113 95.4307 300.197 97.7021C298.629 103.191 298.492 109.069 300.373 114.499C302.993 116.488 305.789 118.408 307.689 121.157C306.696 125.574 303.666 129.19 301.737 133.226C296.476 134.981 291.4 137.779 288.448 142.673C296.154 142.127 302.292 136.843 309.716 135.4C313.827 134.357 317.11 137.808 320.033 140.138C321.816 141.357 322.732 144.018 321.319 145.841C318.572 148.805 314.889 150.628 311.752 153.094C308.663 155.307 307.845 159.265 306.686 162.648C304.854 168.117 306.023 173.898 307.095 179.386C310.817 181.131 314.772 179.552 318.62 179.347C320.734 181.287 320.89 184.368 321.329 187.019C321.679 190.587 322.41 194.107 323.589 197.499C326.824 198.991 329.873 200.96 332.055 203.846C333.682 199.897 334.988 195.355 338.709 192.83C341.915 190.509 345.919 188.716 347.263 184.65C345.451 182.886 343.298 181.277 342.285 178.889C342.548 174.132 344.107 169.404 342.918 164.617C345.451 164.783 347.974 164.987 350.498 165.28C355.184 164.091 359.938 163.135 364.42 161.283C365.599 163.038 366.758 164.792 367.908 166.576C373.763 167.551 379.715 167.23 385.619 167.083C386.769 165.153 387.714 162.989 389.468 161.497C391.046 160.406 393.072 160.386 394.875 159.928C393.667 158.163 392.468 156.399 391.299 154.625C393.238 153.484 395.148 152.304 396.999 151.037C399.863 145.9 401.987 140.021 400.662 134.074C402.854 130.419 406.254 126.129 403.955 121.713C404.393 118.623 404.812 115.181 401.685 113.349C402.62 110.96 403.828 108.406 402.795 105.842C401.529 102.099 402.123 98.1603 402.474 94.3388C395.995 93.7149 389.487 95.2649 383.047 94.3193C380.212 90.9073 378.108 86.9591 375.604 83.3033C372.545 81.6948 369.398 80.1643 365.969 79.5403C364.917 78.8677 363.874 78.2048 362.822 77.5516C360.552 75.1144 359.324 72.0339 359.266 68.6998C356.236 68.2221 353.732 66.4479 351.141 64.9758C349.017 63.6598 346.494 64.4494 344.204 64.6834C343.376 64.3422 342.558 64.001 341.739 63.6695C338.388 66.3504 332.932 65.2293 331.792 60.8326C328.704 59.6726 325.674 58.1908 322.391 57.7326C319.429 57.7716 318.942 61.0471 318.289 63.2698C321.894 63.4063 325.528 63.1041 329.113 63.572C331.1 65.5218 332.776 67.8517 333.994 70.3668C332.932 74.6173 330.935 78.663 328.509 82.3187C329.571 78.2048 331.344 74.3443 333.127 70.5033C331.568 68.5341 330.097 66.4966 328.733 64.3909C324.836 64.4592 320.9 64.4786 317.081 63.611C317.666 60.9886 318.747 58.5027 320.666 56.5822C317.919 56.7285 315.191 56.2995 312.755 54.9737C312.658 51.6494 311.167 48.6663 309.531 45.8489L309.053 47.4575C308.43 46.7361 307.816 45.9952 307.222 45.264C307.884 45.2348 309.209 45.1763 309.862 45.147C312.444 47.6232 313.506 51.1815 314.071 54.6227C320.618 55.4124 326.765 57.6838 332.913 59.9455C333.215 60.9399 333.517 61.944 333.819 62.9384C335.475 63.455 337.141 63.9815 338.797 64.4981C339.167 63.9522 339.898 62.8506 340.268 62.2949C342.743 63.1431 345.363 63.6305 347.887 62.6264C352.29 63.7182 355.7 67.1303 360.26 67.7347C360.63 70.0256 360.347 72.6773 361.955 74.5685C365.589 79.3161 372.506 79.1211 376.656 83.1863C379.17 86.4424 381.342 89.9519 383.379 93.5199C390.072 94.0464 396.755 92.6913 403.438 93.5004C403.175 97.5559 402.844 101.68 403.887 105.657C404.53 107.86 404.072 110.122 403.546 112.296C405.747 116.41 405.104 121.167 406.01 125.603C404.851 128.547 404.042 131.744 401.889 134.152C402.922 141.99 400.457 151.544 392.848 155.287C394.251 157.052 395.615 158.856 396.95 160.679C393.462 161.283 388.805 161.79 387.607 165.777C387.617 170.544 387.967 175.321 387.977 180.098C390.91 181.97 394.699 181.443 397.788 183.032C394.836 186.464 391.728 189.817 389.4 193.717C388.425 195.023 389.185 196.622 389.458 198.026C391.104 203.865 392.926 209.646 394.573 215.495C396.278 220.565 394.134 225.829 394.495 231.015C394.816 233.725 393.793 237.157 395.781 239.331C402.162 240.822 408.846 240.813 415.178 242.48C417.507 244.566 417.877 248.339 417.701 251.331C416.454 248.553 415.831 245.541 414.447 242.831C410.502 242.606 406.585 242.07 402.669 241.612C402.523 247.403 398.947 252.491 399.347 258.341C399.181 262.162 400.535 265.906 400.204 269.727C398.421 270.02 396.619 270.107 394.836 270.244C391.543 265.672 388.055 260.037 381.888 259.394C375.965 260.466 370.265 262.581 364.488 264.248C362.919 271.716 361.088 279.144 359.734 286.651C360.318 289.653 362.705 292.198 362.617 295.444C363.484 299.665 361.877 303.769 359.656 307.299C360.123 309.901 360.971 312.504 360.825 315.185C358.282 318.412 354.161 319.738 350.527 321.327C351.521 322.731 352.68 324.066 353.352 325.665C352.865 328.229 350.907 330.188 349.933 332.567C349.475 335.472 350.205 338.416 350.001 341.351C349.806 345.25 348.481 348.955 347.575 352.727C346.649 356.003 347.624 359.376 348.013 362.661C349.017 364.221 350.225 365.703 350.78 367.497C351.16 370.333 350.537 373.18 350.215 375.997C351.423 380.063 349.787 384.089 348.773 387.988C353.118 391.283 356.363 395.719 359.071 400.398C363.728 400.301 368.102 402.202 372.681 402.816C374.815 402.816 376.958 402.904 379.092 403.089C379.969 402.738 380.855 402.397 381.742 402.046C382.161 402.426 382.989 403.186 383.408 403.576C384.207 402.572 385.006 401.578 385.814 400.593C386.915 400.652 388.026 400.71 389.146 400.788C389.653 402.085 390.111 403.43 390.783 404.688C394.456 406.17 398.665 405.906 402.221 407.778C404.491 408.938 406.868 410.556 409.508 409.523C410.102 407.564 411.271 405.906 412.898 404.668C413.025 400.447 413.386 396.245 414.136 392.102C414.584 391.741 415.49 391.03 415.938 390.679C416.571 387.228 417.097 383.757 417.731 380.316C420.361 379.322 422.943 378.142 425.32 376.612C425.866 376.465 426.957 376.173 427.502 376.027C428.028 374.886 428.555 373.736 429.09 372.595C435.443 370.519 442.019 368.842 448.77 369.456C449.959 364.894 450.612 360.214 451.878 355.681C451.216 355.135 450.553 354.609 449.9 354.073C446.335 354.814 442.642 355.369 439.096 354.277C439.378 353 439.651 351.713 439.924 350.436C441.795 342.813 438.453 335.199 439.378 327.508C438.083 327.819 436.806 328.151 435.52 328.473C433.942 326.767 432.481 324.905 430.562 323.569C426.742 321.707 421.998 321.97 418.656 319.104C415.646 316.521 412.85 313.538 411.262 309.853C409.489 305.787 406.79 302.112 405.796 297.725C402.104 292.968 397.583 288.815 394.631 283.512C395.177 283.638 396.268 283.882 396.814 284.009C399.23 290.424 406.176 293.884 408.037 300.621C411.116 306.177 412.811 312.758 417.896 316.95C420.829 320.381 425.515 320.732 429.539 322.029C432.354 322.74 434.01 325.304 435.822 327.361C437.333 327.03 438.843 326.689 440.362 326.367C439.612 335.599 443.11 344.821 440.528 353.956C443.772 353.887 447.036 353.624 450.222 352.932C451.323 354.034 452.424 355.164 453.495 356.305C451.859 358.382 451.8 360.945 451.557 363.451C450.349 365.596 449.92 368.003 449.91 370.45C443.032 369.807 436.31 371.406 429.811 373.492C429.334 374.964 428.857 376.446 428.389 377.937C427.619 377.83 426.859 377.733 426.099 377.645C423.625 379.068 420.829 379.926 418.51 381.613C417.633 385.317 417.809 389.324 415.831 392.716C413.551 396.587 414.428 401.168 413.727 405.39C412.85 407.856 410.56 409.474 408.884 411.395H407.15C404.949 410.43 402.873 409.221 400.681 408.256C397.223 406.793 393.306 406.979 389.877 405.477C389.214 404.269 388.747 402.972 388.24 401.705C387.587 401.685 386.292 401.656 385.639 401.636C386.058 403.021 386.487 404.395 386.915 405.78C385.239 405.156 383.564 404.532 381.888 403.908C381.381 404.074 380.378 404.405 379.871 404.571C376.608 403.576 373.13 404.454 369.924 403.255C366.057 403.099 362.364 401.188 358.477 401.861C356.372 402.134 354.288 402.485 352.193 402.748C349.728 398.4 344.409 397.883 339.937 397.688C336.712 397.571 333.585 398.907 330.389 398.566C329.045 397.435 327.934 396.06 326.58 394.959C325.382 395.446 324.242 396.07 323.092 396.665C322.819 395.787 322.556 394.91 322.293 394.042C318.893 393.837 315.522 393.399 312.21 392.668C311.372 390.328 310.339 388.076 309.102 385.922C308.81 383.114 308.225 380.355 307.329 377.684C306.228 374.633 306.939 371.338 306.267 368.218C305.478 364.182 302.36 361.248 300.363 357.797C297.976 357.173 295.54 356.734 293.114 356.344C293.426 357.026 294.05 358.391 294.362 359.074C293.28 359.356 292.199 359.629 291.117 359.922C291.634 358.489 292.179 357.065 292.715 355.652C289.812 355.896 286.675 355.818 284.181 357.572C281.618 359.278 278.871 360.672 275.89 361.472C278.179 361.95 280.527 362.057 282.456 360.448C282.982 360.867 283.508 361.287 284.034 361.716C282.476 362.203 280.936 362.72 279.387 363.236C278.569 363.002 277.741 362.788 276.922 362.564C276.893 363.87 276.864 365.176 276.835 366.483C275.763 366.6 273.62 366.814 272.558 366.921C273.376 366.463 275.013 365.557 275.831 365.098C275.607 363.402 275.373 361.716 275.101 360.039C273.327 362.456 271.398 364.884 269.947 367.467C270.687 367.419 272.168 367.331 272.899 367.282C270.132 368.647 267.346 369.973 264.55 371.289C266.556 370.977 268.593 370.636 270.629 370.753C268.856 371.854 266.829 372.449 264.832 373.024C264.491 371.815 264.16 370.616 263.819 369.417C265.524 368.949 267.248 368.549 268.914 367.945C268.125 366.804 266.43 366.687 265.173 366.697C260.838 368.189 257.837 371.971 253.706 373.823C251.183 374.72 248.806 373.336 247.033 371.649C245.922 371.552 244.821 371.455 243.73 371.377C243.233 370.48 242.756 369.583 242.268 368.696C239.804 368.462 237.339 368.189 234.884 367.906C232 368.306 228.697 369.368 226.135 367.438C223.582 366.063 222.452 363.305 220.699 361.179C217.376 359.454 213.528 358.976 210.372 356.909C207.108 354.736 203.805 352.63 200.6 350.378C201.214 349.676 201.827 348.886 202.724 348.555C204.916 349.111 207.001 350.085 209.241 350.524C206.728 347.95 203.932 345.699 201.184 343.408C201.662 342.862 202.129 342.316 202.587 341.75C204.916 346.556 210.206 348.662 213.499 352.679C215.808 353 218.575 352.523 220.28 354.511C214.424 355.125 209.933 350.436 204.156 350.807C208.316 354.697 213.197 357.836 218.779 359.191C222.93 359.844 223.387 365.001 227.002 366.561C229.369 368.228 232.302 367.243 234.893 366.804C237.465 367.146 240.037 367.428 242.619 367.662C243.262 368.549 243.895 369.446 244.538 370.343C245.717 370.431 246.886 370.528 248.065 370.626C248.854 371.503 249.653 372.39 250.442 373.277C255.869 372.624 259.532 368.198 264.072 365.635C266.167 365.683 268.261 365.732 270.366 365.722C270.96 363.509 271.895 361.394 273.532 359.737C275.218 359.698 276.932 359.756 278.608 359.464C281.92 358.099 284.57 355.038 288.37 354.921C294.098 355.057 300.694 355.379 304.64 360.195C305.906 364.202 307.757 368.14 307.709 372.439C307.563 375.802 308.839 378.941 310.242 381.934C309.404 385.541 311.908 388.544 313.116 391.741C316.984 392.609 321.036 392.629 324.797 394.023C325.469 393.945 326.823 393.798 327.496 393.72C328.528 395.115 329.542 396.509 330.574 397.903C336.206 396.216 342.168 396.177 347.809 397.844C350.254 398.283 351.511 400.798 353.723 401.666C355.242 401.724 356.597 400.876 357.99 400.398C355.057 396.138 352.125 391.741 347.799 388.749C347.75 387.501 347.702 386.272 347.672 385.044C345.646 385.298 343.581 386.029 341.535 385.6C340.687 384.264 340.054 382.812 339.372 381.408C336.147 381.203 332.922 381.145 329.688 381.174C330.35 375.871 330.769 370.519 331.948 365.303C330.75 364.377 329.581 363.412 328.275 362.671C326.668 363.168 325.196 363.997 323.599 364.504C320.286 363.08 317.081 361.326 314.207 359.142C313.242 353.653 313.165 347.95 311.206 342.628C315.123 346.956 314.051 353.234 314.84 358.567C317.773 360.185 320.695 361.823 323.608 363.49C325.119 362.72 326.57 361.209 328.412 361.657C331.627 362.447 333.487 365.479 334.695 368.335C334.15 368.257 333.049 368.101 332.494 368.023C331.704 372.01 331.178 376.056 331.13 380.131C334.345 380.053 337.589 380.17 340.736 380.901C341.252 382.246 341.778 383.601 342.324 384.947C344.428 384.527 346.552 384.206 348.695 383.991C350.186 380.082 348.822 375.978 349.407 371.971C349.485 370.09 350.147 367.994 348.978 366.317C347.429 363.841 346.464 361.053 346.289 358.128C345.49 352.942 348.257 348.175 348.793 343.115C349.329 339.528 348.54 335.891 348.958 332.304C349.787 329.935 351.297 327.888 352.524 325.723C351.141 324.203 349.796 322.653 348.471 321.083C352.427 319.406 356.713 317.983 359.802 314.854C359.656 312.29 358.925 309.804 358.886 307.23C359.831 303.964 362.208 301.03 361.75 297.443C362.052 293.797 360.006 290.745 358.652 287.557C359.471 279.671 362.276 272.096 363.251 264.229C362.315 261.84 360.61 259.871 359.217 257.756C356.577 254.022 354.307 249.567 349.874 247.676C333.741 240.189 317.451 233.043 301.113 226.043C299.71 225.595 298.112 224.679 296.709 225.575C293.163 227.457 290.182 230.216 286.704 232.195C283.138 234.213 279.456 235.997 275.89 238.015C275.403 242.177 275.062 246.36 274.789 250.542C271.739 252.033 268.408 252.833 264.998 252.569C259.113 252.199 253.424 253.934 247.666 254.782C246.526 256.566 245.24 258.302 244.597 260.339C245.279 263.858 247.101 267.027 248.26 270.4C250.218 275.138 249.283 280.373 249.322 285.345C247.958 285.569 246.604 285.783 245.259 286.007C246.37 288.942 247.208 292.13 249.273 294.577C251.611 295.737 254.417 295.62 256.95 296.214C258.392 300.055 259.922 303.867 261.403 307.698C265.836 308.342 269.762 310.516 272.782 313.82C275.812 311.471 279.046 309.365 282.671 308.039C284.249 313.372 282.924 318.958 283.742 324.359C285.593 327.927 289.656 331.612 293.972 330.237C296.719 328.97 298.522 326.347 301.103 324.827C302.35 324.983 303.568 325.334 304.805 325.626C305 328.336 305.371 331.046 306.091 333.669C309.238 335.794 312.833 339.021 312.288 343.213C310.856 340.395 309.414 337.451 306.812 335.521C303.841 333.483 304.309 329.477 303.763 326.357C302.555 326.221 301.133 325.519 300.265 326.757C297.508 329.253 294.391 332.538 290.25 331.387C286.996 330.257 283.995 327.693 282.612 324.515C281.93 319.523 282.865 314.454 282.485 309.433C278.861 310.564 275.822 312.875 272.782 315.068C269.723 312.163 266.254 309.589 262.016 308.79C262.387 310.116 262.767 311.442 263.156 312.767C262.932 313.265 262.504 314.249 262.279 314.746C264.89 317.301 268.047 319.514 269.801 322.779C270.288 325.957 268.924 329.077 269.09 332.255C269.996 334.254 271.993 335.862 271.915 338.212C269.119 340.58 264.238 339.771 262.513 343.456C261.354 345.484 259.912 347.931 257.243 347.921C250.121 347.19 242.843 347.512 235.838 348.974C235.361 351.275 234.903 353.585 234.504 355.915C230.597 357.582 226.281 356.607 222.403 355.379C225.784 354.482 229.204 356.334 232.623 355.671C234.65 353.069 233.685 347.843 237.894 347.336C244.295 346.703 250.764 346.147 257.174 346.898C260.701 346.703 261.023 342.345 263.429 340.561C265.855 339.186 268.671 338.748 271.311 337.968C270.268 336.242 269.138 334.575 267.872 333.016C268.106 329.613 269.07 326.24 268.787 322.818C266.595 320.011 263.634 317.915 261.393 315.146C262.367 311.334 260.389 307.796 259.055 304.364C257.993 301.849 257.145 299.197 255.567 296.945C253.375 296.331 251.066 296.37 248.874 295.785C246.312 293.182 245.542 289.38 244.081 286.124C241.226 284.545 238.001 283.258 235.916 280.636C234.796 278.13 235.069 275.225 233.978 272.72C232.516 270.127 230.363 268.002 228.834 265.438C225.755 260.602 223.904 255.153 221.858 249.84C219.861 244.517 215.788 239.565 210.167 237.946C207.371 237.05 204.594 238.541 201.886 239.107C198.534 240.267 195.144 238.775 191.919 237.937C191.89 236.952 191.822 234.973 191.793 233.989C188.003 236.075 184.525 239.263 179.926 239.175C181.904 240.696 185.704 241.573 185.138 244.732C184.992 247.89 183.463 250.746 182.8 253.798C182.216 256.021 182.284 258.555 180.579 260.31C180.423 262.24 181.212 264.941 178.981 265.993C175.162 266.949 171.879 264.034 168.469 262.796C168.966 265.876 169.404 268.967 169.745 272.067C165.673 275.391 160.665 276.99 155.414 276.766C156.359 279.135 157.567 281.387 158.97 283.531C162.224 284.019 165.731 284.019 168.693 285.637C170.612 287.674 171.392 290.502 173.204 292.627C175.289 294.762 178.251 296.088 179.585 298.905C182.089 303.575 184.525 308.293 187.038 312.962C189.474 317.369 190.468 322.36 192.348 327.01C193.371 329.652 195.992 331.154 197.336 333.6C198.573 335.774 199.655 338.046 200.999 340.161C200.551 340.668 200.103 341.185 199.665 341.711C198.408 338.182 197.356 334.332 194.452 331.748C190.448 328.209 190.068 322.545 188.081 317.895C185.489 311.637 181.855 305.885 178.864 299.821C177.403 296.185 173.058 295.171 171.285 291.798C170.116 289.985 169.356 287.84 167.719 286.378C164.855 284.867 161.396 285.325 158.434 284.116C156.164 281.971 155.171 278.92 154.226 276.035C150.709 274.923 147.045 274.202 143.333 274.319C144.162 276.912 144.941 279.515 145.672 282.147C148.974 286.641 152.599 290.891 156.778 294.625C157.07 296.419 157.372 298.223 157.684 300.026C157.294 301.069 156.914 302.122 156.525 303.185C158.23 303.155 159.944 303.146 161.649 303.116C162.302 304.169 162.994 305.203 163.549 306.324C163.559 308.127 161.844 308.858 160.5 309.589C162.37 310.798 164.406 311.841 166.014 313.421C166.696 315.868 166.569 318.49 167.417 320.898C168.342 323.072 169.814 324.944 171.09 326.913C171.684 331.085 173.964 334.965 177.861 336.817C181.514 339.43 186.551 336.008 190.049 339.03C192.533 341.175 195.612 342.247 198.661 343.33C200.843 344.022 201.652 346.41 202.88 348.106C199.353 343.749 193.498 343.388 189.415 339.859C186.366 337.666 182.411 339.645 179.059 338.504C177.198 337.851 175.435 336.944 173.642 336.135C171.168 332.148 170.447 327.352 167.651 323.55C165.556 320.869 165.858 317.34 165.225 314.191C164.104 312.816 162.253 312.417 160.734 311.646C160.178 310.447 159.613 309.258 159.175 308.02C160.1 307.026 161.571 307.094 162.76 306.684C161.981 305.865 161.211 305.047 160.441 304.228C158.843 304.198 157.246 304.179 155.648 304.159C155.882 301.625 156.583 299.022 155.921 296.497C155.112 294.547 153.466 293.114 152.063 291.603C149.169 288.815 146.977 285.432 144.405 282.371C143.801 279.7 143.08 277.058 142.194 274.475C138.277 275.469 135.218 278.179 131.691 279.963C129.256 281.25 128.827 277.526 127.716 276.171C126.43 276.288 125.134 276.405 123.848 276.532C120.828 274.504 117.798 272.476 114.973 270.185C115.032 271.199 115.139 273.217 115.197 274.221C112.742 271.579 115.363 268.684 116.405 266.13C118.597 266.091 120.78 266.042 122.972 265.974C124.443 268.011 124.258 270.068 122.075 271.667C122.241 270.712 122.562 268.791 122.728 267.826C121.15 267.563 119.562 267.309 117.983 267.066C119.182 268.158 120.4 269.23 121.627 270.312C120.517 270.293 118.315 270.263 117.214 270.244C118.86 272.964 122.709 272.506 124.297 275.245C126.06 275.372 127.823 275.479 129.587 275.596C129.645 276.522 129.782 278.384 129.84 279.32C132.393 278.345 134.75 276.97 137.04 275.498C139.641 273.753 142.866 273.627 145.857 273.051C147.455 273.441 149.052 273.812 150.66 274.182C149.783 270.098 148.692 265.886 149.919 261.743C146.714 259.579 143.723 256.293 139.466 257.064C139.631 253.769 139.222 250.493 138.248 247.344C142.242 243.708 146.471 240.306 149.53 235.773C149.013 237.137 148.487 238.502 147.971 239.867C150.426 240.764 152.949 241.485 155.356 242.538C158.61 244.244 160.626 247.607 163.832 249.382C166.569 250.561 169.239 248.573 171.762 247.705C171.304 242.46 167.495 237.108 170.174 231.951C170.038 231.191 169.901 230.44 169.775 229.689C170.398 228.344 171.85 227.038 171.294 225.419C169.999 221.52 165.702 220.009 163.364 216.899C162.594 213.887 161.942 210.806 160.159 208.184C156.622 208.837 153.242 210.056 149.802 211.05C147.64 211.83 145.691 210.28 143.85 209.393C140.752 209.5 137.79 210.397 135.043 211.791C137.186 216.07 139.29 220.526 142.846 223.85C144.405 228.344 147.864 231.707 150.036 235.86C147.679 233.735 145.438 231.395 143.976 228.549C141.375 223.158 136.689 219.024 134.643 213.321C134.185 211.518 134.916 209.685 135.159 207.901C132.393 207.355 129.129 207.111 127.784 204.177C124.209 204.119 121.13 202.5 118.188 200.638C114.681 199.634 111.125 198.806 107.764 197.353C104.422 196.963 101.002 197.811 97.6996 198.308C95.9655 200.034 95.5173 202.647 94.4846 204.811C92.6335 210.075 88.6586 214.598 88.4248 220.37C87.431 221.344 86.4276 222.3 85.4143 223.265C87.0706 225.829 88.8242 228.325 90.8019 230.654C90.3246 233.413 89.4672 236.075 88.4735 238.678C86.7198 243.074 87.2362 247.88 86.9342 252.501C89.5354 252.501 92.1269 252.501 94.7282 252.501C95.0886 257.112 95.0497 261.743 94.9133 266.364C95.9167 267.046 96.93 267.729 97.9432 268.421C99.9404 270.371 102.035 272.223 104.081 274.124C104.461 276.395 104.899 278.657 105.367 280.919C107.072 280.763 108.962 280.743 109.615 278.803C111.631 278.735 113.648 278.715 115.655 278.686C115.752 276.736 115.869 274.777 116.045 272.837C116.941 275.099 116.746 277.497 116.24 279.827C114.466 279.827 112.693 279.837 110.93 279.885C109.663 281.923 107.257 281.767 105.192 282.059C103.75 278.793 102.892 275.313 101.363 272.096C100.671 272.057 99.2779 271.989 98.5862 271.95C98.2062 270.955 97.8165 269.961 97.4366 268.976C96.287 268.528 95.1374 268.089 93.9975 267.651C94.0462 262.913 94.0364 258.185 93.9682 253.457C91.2501 253.447 88.5319 253.447 85.8138 253.447C86.0963 249.947 86.1061 246.438 86.3399 242.948C86.6516 239.077 88.8632 235.714 89.5646 231.951C88.0448 228.022 85.0636 224.854 82.287 221.773C80.9913 218.176 79.2766 214.754 77.4547 211.401C80.8159 213.614 82.024 217.581 83.3197 221.159C83.6412 221.5 84.2745 222.173 84.596 222.514C85.502 221.695 86.4178 220.877 87.3239 220.058C87.5674 216.217 89.3698 212.814 91.1429 209.49C88.454 202.9 85.1805 195.949 78.6725 192.332C73.8792 189.837 69.3782 186.6 66.2119 182.155C66.3288 179.874 68.7352 178.684 70.0797 177.164C69.1834 178.821 68.2383 180.459 67.2836 182.087C70.0017 184.631 72.5543 187.429 75.7888 189.34C78.9648 191.231 82.2773 193.064 84.7519 195.891C88.0935 199.361 89.7205 203.963 91.8639 208.174C93.598 204.82 94.4943 201.087 96.4039 197.831C99.7553 196.485 103.643 196.476 107.247 196.173C110.199 196.885 112.878 198.484 115.928 198.874C119.299 199.118 121.559 202.013 124.696 202.842C128.418 202.939 131.36 199.849 132.451 196.495C133.026 194.399 135.393 194.165 137.098 193.405C138.345 191.075 139.816 188.784 140.313 186.152C140.343 183.812 138.696 181.95 137.634 180C136.845 180.556 135.257 181.648 134.468 182.194C135.237 180.771 136.027 179.357 136.816 177.953C138.258 179.571 139.592 181.287 140.83 183.081C143.889 180.926 147.23 179.133 150.923 178.392C154.937 177.534 158.551 175.584 162.205 173.81C163.111 171.607 163.997 169.394 164.845 167.161C160.344 165.66 155.823 164.256 151.157 163.369C148.575 162.862 148.497 159.635 147.143 157.861C145.594 156.448 143.704 155.463 142.242 153.952C142.505 151.408 143.811 149.078 144.96 146.845C148.731 145.354 153.027 145.217 156.525 143.082C157.587 139.29 158.415 135.429 159.944 131.783C160.958 129.512 160.646 127.007 160.383 124.608C159.214 125.086 158.054 125.554 156.895 126.032C156.856 125.086 156.768 123.195 156.729 122.249C156.466 122.951 155.94 124.355 155.677 125.057C152.521 123.322 148.887 122.006 145.282 123.127C140.606 124.599 135.442 125.496 131.701 128.917C130.795 129.054 129.899 129.2 129.002 129.346C129.217 131.442 128.729 133.372 126.645 134.328C126.986 135.264 127.317 136.209 127.658 137.145C126.615 138.081 125.563 139.007 124.511 139.933C126.742 140.889 129.801 141.357 130.649 144.028C131.292 145.841 132.256 148.21 130.473 149.702C127.658 149.429 127.063 146.543 126.362 144.34C124.579 144.31 122.796 144.291 121.023 144.272C120.458 147.206 120.098 150.189 120.38 153.172C119.231 153.045 118.071 152.909 116.912 152.772C117.75 157.091 119.406 161.195 120.195 165.514C120.789 167.824 118.51 169.287 117.292 170.885C116.873 172.835 116.473 174.785 116.045 176.744C117.945 177.28 119.835 178.031 121.832 178.051C124.384 176.189 125.67 171.987 129.538 172.504C131.633 173.683 131.808 176.169 131.896 178.304C132.773 179.23 133.64 180.156 134.517 181.092C133.26 180.517 132.013 179.932 130.766 179.337C130.542 177.173 130.191 175.029 129.587 172.942C126.391 174.005 124.852 177.086 122.426 179.123C119.825 179.298 117.37 178.207 114.924 177.466C115.421 174.999 115.801 172.513 116.074 170.008C112.703 168.741 108.757 166.294 105.62 169.384C102.415 169.014 99.0343 168.741 96.287 166.879C92.4971 164.451 89.0385 161.517 85.0246 159.45C84.8688 161.127 84.7324 162.813 84.5862 164.5C83.3489 164.675 82.1116 164.851 80.8743 165.036C80.8549 167.824 81.6927 170.788 80.738 173.488C78.3316 176.93 73.6454 177.086 69.9043 177.846C71.5508 177.008 73.1875 176.169 74.834 175.331C72.0379 175.175 69.271 175.604 66.4847 175.769C62.6267 175.877 59.1583 173.966 55.9238 172.084C52.2801 169.969 47.9642 169.803 43.8724 169.491C43.1806 172.933 42.411 176.364 41.6803 179.796C42.7228 179.835 43.7652 179.874 44.8174 179.922C46.912 183.637 49.0261 187.37 51.7443 190.675C51.2961 193.434 50.6337 196.154 49.7861 198.815C56.2648 197.606 61.6232 201.886 66.1534 205.873C69.4854 208.73 72.4666 212.59 77.2014 212.941C75.6816 213.048 73.9377 214.052 72.6127 212.834C67.1667 208.944 62.9092 203.348 56.6643 200.599C53.9851 199.693 51.1208 199.654 48.3442 199.215C48.7923 198.152 49.2502 197.1 49.6984 196.037C49.0359 195.93 47.7012 195.696 47.0289 195.588C48.2662 194.731 49.5328 193.892 50.7993 193.083C49.8543 190.158 48.1785 187.556 46.6685 184.904C45.9085 184.943 44.3985 185.001 43.6385 185.031C44.0088 183.724 44.379 182.408 44.7492 181.102C43.4729 181.336 42.2064 181.58 40.9496 181.823C38.2022 178.06 36.6629 173.196 32.4834 170.7C34.3052 168.058 35.8933 165.231 36.6337 162.082C35.1041 160.64 33.8084 158.982 32.6685 157.227C33.2141 156.828 34.315 156.038 34.8606 155.648C34.9482 154.907 35.1236 153.445 35.2113 152.704C36.9065 152.841 38.5919 152.967 40.2774 153.094C39.5564 151.719 38.8258 150.364 38.0951 149C39.157 147.147 40.2482 145.315 41.3393 143.482C41.8946 143.394 42.9955 143.209 43.5509 143.121C43.9113 141.513 44.2816 139.924 44.6615 138.325C46.4639 138.403 48.2662 138.471 50.0783 138.549C50.4291 135.429 49.6399 132.349 47.6135 129.921C45.4701 127.621 45.6358 124.102 47.292 121.586C49.7666 120.592 52.3386 119.841 54.745 118.652C53.7512 118.72 51.7735 118.847 50.7798 118.915C50.4291 118.496 49.7179 117.648 49.3574 117.229C46.6685 117.658 43.96 118.613 41.2127 118.194C39.761 116.79 38.7965 114.938 37.1988 113.68C35.4841 112.52 33.37 113.388 31.4994 113.514C30.7882 108.65 29.2879 103.941 28.7812 99.0474C31.1682 103.181 31.5481 108.006 32.5321 112.579C36.4194 111.916 38.1146 108.465 40.2774 105.647C42.9371 104.156 45.0415 102.06 46.8146 99.6031C48.6559 98.8914 50.6921 99.3399 52.6114 99.3399C57.0832 99.6908 61.5745 99.3106 65.9976 98.6575C68.3065 100.636 71.1513 101.719 74.0351 102.537C75.7595 100.968 77.0066 98.9987 77.747 96.7955C76.802 94.9237 75.8959 93.0228 74.9899 91.1315C72.525 91.346 70.0212 91.8627 67.5564 91.424C65.8709 89.523 65.8807 86.6276 65.0331 84.2879C64.1562 83.6543 63.4937 82.7866 62.6169 82.1822C63.7958 82.3772 64.9843 82.5234 66.1437 82.8061C66.6211 85.4383 67.1277 88.0607 67.6246 90.6831C70.0504 90.5271 72.4568 90.3029 74.8632 89.9617C74.9217 89.2403 75.0483 87.7975 75.1068 87.0663C78.049 84.093 80.4457 80.3105 84.3427 78.4777C90.0615 76.5377 96.2772 76.684 102.132 77.8636C102.473 77.5711 103.136 76.9959 103.467 76.7035C100.174 75.4946 98.0309 72.7358 97.0858 69.431C95.5368 68.6511 93.9877 67.8907 92.4289 67.1498C91.7275 64.3617 91.6301 61.4858 92.2146 58.6684C89.2334 55.4514 87.3628 51.4252 87.2557 46.9895C83.3587 46.7946 79.4519 46.6288 75.5549 46.6191C74.8145 40.4969 80.9523 36.7924 86.184 35.7786C85.1903 38.5862 81.6343 37.8745 79.715 39.639C78.088 41.1208 77.1332 43.1486 76.0323 45.0106C79.9098 45.6637 83.8263 45.8684 87.7525 45.8197C88.2494 47.9254 88.6391 50.0701 89.3113 52.1271C90.1005 54.574 92.3023 56.2215 93.2863 58.5515C93.1694 60.394 92.6725 62.2072 92.692 64.0595C93.1694 66.6331 95.9265 67.4617 97.8555 68.6901C98.8395 70.5813 99.3558 72.9892 101.343 74.1103C103.604 75.4361 106.049 76.411 108.387 77.5711C110.404 76.9277 112.421 76.294 114.437 75.6506C113.901 74.0128 113.288 72.3556 112.021 71.1272C108.28 67.0815 105.24 62.0707 104.412 56.5627C104.704 52.0296 108.241 48.7833 110.998 45.537C108.436 42.9731 106.487 39.873 103.945 37.3091C101.947 36.0125 99.6676 35.0084 98.6739 32.6687C96.6279 31.0212 92.7017 29.9586 93.5298 26.6343C95.2348 24.0412 99.5994 25.1525 100.895 22.4814C99.0343 19.9565 95.9167 18.2212 96.0434 14.6532C97.8652 13.7173 99.6773 12.7717 101.499 11.8261C98.859 9.11595 96.6669 5.98663 93.9195 3.40323C90.5486 2.86706 87.9864 5.93789 85.1903 7.33195C80.9133 9.5254 77.6106 13.2201 73.1193 15.0139C70.8396 18.1822 75.3601 21.9842 72.5445 24.7138C69.7776 26.4491 66.5237 27.19 63.6204 28.6718C63.0164 28.2331 62.4123 27.7944 61.8083 27.3557C63.3379 27.2095 64.7018 26.6538 65.8904 25.6984C68.7644 25.5327 71.5118 24.6651 73.4506 22.4229C72.184 20.2392 70.2648 18.9719 67.683 19.4495C66.0268 21.8867 63.9419 24.0119 61.3504 25.4742C63.1625 23.0078 65.2182 20.7461 67.3031 18.5137C67.9558 18.4649 69.271 18.3772 69.9238 18.3382C71.317 16.2325 72.8076 14.0878 75.0873 12.8594ZM110.238 42.5344C110.375 43.8505 112.44 44.2892 112.041 45.7807C109.576 49.2317 105.747 52.0588 105.396 56.6505C106.692 62.7824 110.228 68.3391 114.905 72.4628C114.944 73.8861 114.983 75.2997 115.022 76.723C119.62 79.0237 122.894 83.1376 124.004 88.1777C126.45 89.9714 127.512 93.5004 130.62 94.2998C132.802 94.7873 135.013 95.5574 137.283 95.3917C139.943 94.3388 142.301 92.1941 145.331 92.3891C146.724 92.2526 148.75 92.8765 149.335 91.1218C150.601 88.5969 151.478 85.7502 154.04 84.2002C150.28 81.1001 146.12 77.7368 145.72 72.4726C138.131 68.8655 128.924 71.3905 121.832 66.3991C118.227 64.4884 116.775 60.4232 116.103 56.6505C115.197 51.3472 113.95 46.0732 113.843 40.6626C112.625 41.2378 111.222 41.5498 110.238 42.5344ZM270.833 51.4544C264.598 53.2287 259.522 57.6058 254.768 61.8368C253.599 64.3714 255.099 68.2026 251.972 69.7429C248.202 71.4782 244.003 72.2191 240.232 74.0323C237.923 74.0713 235.614 74.0908 233.305 74.1006C234.552 78.9652 236.287 83.7908 235.877 88.8991C233.51 89.6887 231.006 89.7569 228.532 89.7569C231.854 92.3988 235.605 94.524 238.313 97.8678C241.586 97.5656 245.337 98.5113 248.143 96.3081C251.923 93.5882 255.265 89.5912 260.068 88.7918C263.273 89.2208 266.459 89.8154 269.713 89.7569C270.755 81.5876 275.861 74.8902 280.985 68.7681C283.226 66.6818 287.22 66.9938 288.545 63.845C287.405 62.8896 286.168 62.0415 285.184 60.9106C284.989 57.8203 285.535 54.73 285.476 51.6396C280.527 53.1604 275.724 49.6217 270.833 51.4544ZM278.014 74.2371C274.058 78.8579 271.837 84.5122 270.414 90.3419C265.923 92.1454 260.828 87.9242 256.726 91.1608C253.599 92.8083 251.319 95.5964 248.406 97.5364C244.383 100.334 239.268 97.3902 235.059 99.8273C231.445 100.997 231.152 105.053 229.944 108.055C227.879 110.531 225.998 113.31 223.378 115.22C220.046 116.234 216.49 116.468 213.255 117.882C213.324 120.494 213.587 123.136 213.207 125.749C210.391 129.522 205.637 133.178 200.658 131.686C198.086 131.052 195.427 130.701 192.942 129.775C190.312 128.469 188.013 126.568 185.294 125.418C184.836 127.416 183.93 129.434 184.193 131.53C185.285 133.889 187.788 135.722 187.993 138.393C186.873 140.898 185.772 143.443 186.015 146.26C186.308 149.146 184.369 151.719 184.379 154.488C186.843 156.233 189.873 157.227 192.884 156.516C198.388 155.287 203.221 158.943 208.481 159.762C217.221 160.279 225.969 159.645 234.699 159.089C243.165 158.505 251.68 159.421 260.136 158.495C265.709 157.988 271.691 160.22 277.01 158.173C280.478 153.874 283.362 148.912 285.418 143.765C285.886 144.32 286.353 144.876 286.821 145.441C283.401 149.516 281.17 154.4 278.403 158.914C274.945 160.328 271.155 159.869 267.521 159.869C267.823 165.709 268.115 171.558 267.901 177.407C267.862 180.225 266.673 182.954 264.861 185.07C263.098 186.493 260.38 186.318 258.879 188.141C257.33 191.328 257.496 195.296 255.021 198.045C253.336 200.083 250.686 200.814 248.309 201.701C241.801 203.865 235.361 206.234 228.863 208.398C224.79 210.026 220.64 206.565 216.548 207.921C213.918 209.217 211.521 210.923 208.959 212.337C209.232 214.667 209.514 216.997 209.534 219.356C209.826 225.156 206.173 230.888 208.842 236.552C214.473 237.644 218.877 241.836 221.653 246.652C224.966 254.802 227.674 263.449 233.578 270.195C236.374 272.954 235.624 277.146 236.744 280.616C240.3 282.81 243.925 285.929 248.416 284.711C248.28 280.841 248.864 276.902 248.153 273.09C246.565 269.21 245.181 265.252 243.632 261.353C243.399 258.243 245.727 255.728 247.676 253.593C251.543 253.301 255.304 252.326 259.123 251.721C262.913 251.136 266.81 252.033 270.57 251.195C271.915 250.717 273.727 250.171 273.883 248.475C274.467 244.946 274.331 241.339 274.75 237.79C278.9 234.564 284.054 233.033 288.234 229.875C290.971 227.769 294.147 226.268 296.593 223.801C298.658 224.181 300.723 224.649 302.652 225.527C309.833 228.763 317.11 231.766 324.32 234.924C325.995 231.473 327.739 228.071 329.698 224.776C331.344 222.251 333.273 219.57 333.146 216.402C332.435 214.169 331.256 212.132 330.292 209.997C331.11 208.028 331.929 205.639 330.467 203.738C328.519 200.014 322.79 199.995 321.865 195.618C320.354 190.558 320.54 185.157 318.727 180.166C314.558 180.663 309.433 182.964 306.033 179.318C304.289 172.279 304.007 164.744 307.192 158.046C308.927 151.027 317.364 149.828 320.959 144.194C321.134 141.181 317.724 139.933 315.863 138.179C311.82 134.377 306.101 137.33 301.892 139.28C297.528 141.795 292.588 142.829 287.873 144.418C287.318 143.891 286.762 143.384 286.197 142.877C289.646 139.914 292.286 135.732 296.739 134.152C298.697 133.275 301.162 132.768 302.009 130.506C303.558 127.377 306.082 124.53 306.549 120.992C304.445 118.564 301.357 117.16 299.418 114.597C296.563 108.104 298.648 101.065 299.34 94.3973C296.476 94.4363 293.533 94.8652 290.728 94.1536C287.084 93.013 284.785 89.7082 282.583 86.8226C283.528 84.3269 282.865 81.3438 284.522 79.1504C281.346 79.1114 280.537 74.8122 278.014 74.2371ZM100.311 78.5167C94.9717 77.6978 89.3308 77.7076 84.2355 79.6281C81.0789 81.7825 78.3413 84.6097 76.0616 87.6805C75.5647 91.3655 77.6009 94.8652 79.5981 97.8093C83.5438 99.3984 88.3566 98.6965 91.9516 101.065C94.319 105.511 94.5333 110.912 92.4874 115.532C95.7414 117.277 99.541 118.866 100.837 122.668C104.792 122.366 108.27 124.413 112.109 124.833C112.567 121.187 108.455 119.685 107.725 116.41C111.047 115.61 114.155 113.573 117.711 114.246C119.835 111.379 123.196 110.122 126.615 109.644C126.508 108.153 126.489 106.603 125.807 105.228C124.53 100.939 119.143 99.9931 118.198 95.4112C116.22 91.7554 119.981 89.4255 122.835 88.2362C121.997 82.9231 117.847 79.2576 113.239 77.0252C111.349 77.8538 109.439 78.6045 107.491 79.2576C107.14 78.6727 106.429 77.5029 106.068 76.9179C104.237 77.7173 102.425 79.1211 100.311 78.5167ZM155.024 84.8436C151.8 86.5106 151.147 90.4296 149.345 93.286C153.066 96.6785 157.557 99.1547 161.006 102.879C162.565 103.269 164.182 103.62 165.546 104.546C167.933 106.213 171.09 106.33 173.253 108.396C175.727 110.882 179.702 109.8 182.459 111.818C185.392 113.729 186.045 118.418 189.922 118.974C192.718 117.589 194.394 114.597 196.752 112.569C200.415 113.251 203.951 114.48 207.332 116.03C207.848 115.747 208.871 115.191 209.378 114.909C210.44 115.601 211.502 116.293 212.564 116.985C215.759 115.669 219.179 115.191 222.511 114.411C224.927 113.037 226.3 110.395 228.22 108.435C230.217 106.447 229.691 103.181 231.591 101.134C232.906 99.4471 234.981 98.755 236.871 97.9751C234.28 94.3876 229.681 93.0812 227.207 89.4157C226.262 88.4799 225.502 86.9006 224.011 86.8616C215.408 88.1387 207.351 91.6774 198.739 92.896C194.16 93.5979 189.903 96.3958 185.148 95.6451C179.556 94.7093 174.139 92.9643 168.567 91.9114C163.345 91.1315 159.827 86.6276 155.024 84.8436ZM232.068 86.8908C231.289 86.8616 229.097 88.1972 230.821 88.6651C232.117 88.9576 233.315 88.7431 234.416 88.0314C235.303 86.6959 232.808 86.5399 232.068 86.8908ZM119.055 91.9991C118.227 94.5923 120.341 96.8052 121.393 98.9889C125.992 100.636 127.502 105.725 127.853 110.151C124.355 111.263 119.679 111.847 118.5 115.991C115.236 114.168 112.06 116.166 108.991 117.355C110.384 118.808 111.748 120.29 113.102 121.801C116.308 121.508 120.146 122.639 120.283 126.47C123.751 126.802 127.102 127.972 130.581 128.206C135.043 124.326 141.083 123.643 146.441 121.635C146.276 120.397 146.188 119.159 146.188 117.911C147.718 115.727 150.514 115.006 152.754 113.768C153.729 111.867 154.528 109.868 155.073 107.792C152.784 106.739 150.212 105.326 150.66 102.362C153.475 102.362 156.291 102.352 159.107 102.264C155.521 99.5934 151.985 96.854 148.497 94.0659C144.649 91.7847 140.956 95.148 137.459 96.4543C134.672 96.542 131.944 95.7134 129.285 94.9822C126.713 94.2998 125.797 91.4922 124.482 89.484C122.436 89.6985 120.351 90.2834 119.055 91.9991ZM78.351 98.638C77.6203 100.802 75.9349 102.284 74.0449 103.434C71.0637 102.742 67.8876 102.148 65.8514 99.6129C59.5967 100.87 53.2057 100.344 46.8828 100.286C46.4444 101.553 46.006 102.82 45.5676 104.078C43.6483 104.965 41.0763 105.218 40.0923 107.344C39.0206 109.03 38.0269 110.765 37.0039 112.481C39.0109 113.368 40.3651 115.094 41.3198 117.024C44.1452 117.121 46.9607 116.741 49.6691 115.952C50.2634 116.634 50.848 117.326 51.4423 118.018C52.7088 117.56 53.9851 116.965 55.3782 117.053C56.0894 120.962 50.7408 121.674 47.8863 122.084C47.7012 123.985 47.4868 125.886 47.2335 127.777C49.9419 132.641 55.2711 135.117 58.2231 139.768C59.6552 141.854 61.3212 143.774 63.1528 145.519C63.221 146.182 63.3671 147.508 63.4353 148.171C65.0233 148.181 66.6211 148.19 68.2091 148.21C70.1576 144.34 74.0156 142.4 77.0943 139.631C79.6858 139.807 81.001 138.208 81.1861 135.761C84.6837 137.087 87.509 139.534 89.6718 142.546C91.1624 141.834 92.653 141.103 94.1241 140.343C94.9035 140.703 95.6829 141.064 96.4623 141.415C96.7546 140.021 97.875 138.491 96.9397 137.106C94.9328 134.152 91.2793 131.598 91.6593 127.67C93.2083 128.869 93.3252 131.14 94.6307 132.563C96.2577 134.318 97.7873 136.18 98.7421 138.403C97.9529 140.041 97.1638 141.678 96.3454 143.297C95.4296 142.751 94.5138 142.205 93.598 141.649C90.8214 143.082 90.12 146.28 88.2981 148.561C87.0706 149.078 85.8235 149.526 84.557 149.926C86.4568 151.115 88.3176 152.363 90.1102 153.698C91.4255 152.821 92.8576 152.168 94.3872 151.788C94.4846 153.815 94.621 155.853 94.4554 157.881C92.2049 159.021 89.4477 157.286 87.2946 159.041C90.2369 161.751 93.6955 163.779 96.9787 166.021C99.2779 167.873 102.327 167.863 105.104 168.341C108.806 165.085 113.356 167.717 117.048 169.511C121.842 165.485 116.454 159.908 116.59 155.073C115.899 154.001 115.197 152.928 114.515 151.856C115.996 151.788 117.467 151.758 118.948 151.788C119.172 149 119.649 146.25 120.185 143.511C122.738 143.365 125.29 143.258 127.843 143.199C127.862 144.262 127.853 145.334 127.823 146.406C128.496 147.469 129.519 148.122 130.707 148.522C130.23 146.67 130.123 144.544 128.856 143.014C126.995 141.62 124.638 141.181 122.601 140.099C123.079 138.305 125.242 137.964 126.576 136.979C125.485 134.864 123.878 132.554 125.583 130.302C126.109 130.594 127.171 131.179 127.706 131.481C127.677 130.809 127.638 129.483 127.609 128.82C125.115 128.274 122.572 127.991 120.088 127.436C118.665 127.016 118.821 125.164 118.315 124.053C117.038 123.478 115.713 123.01 114.359 122.668C113.073 124.111 111.641 126.714 109.303 125.554C106.546 124.326 103.662 123.517 100.613 123.692C99.3656 122.454 98.0309 121.313 96.5792 120.339C96.7838 121.362 97.0079 122.386 97.232 123.409C95.9752 124.004 94.7184 124.599 93.4519 125.193C92.614 124.608 91.7664 124.033 90.9091 123.487C90.7727 123.994 90.4999 125.008 90.3635 125.525C88.4053 126.061 89.1749 122.98 90.2466 122.454C91.5034 120.748 92.8284 122.727 93.0914 124.033C94.017 123.526 94.9328 123.019 95.8583 122.512C95.2835 121.138 94.9912 119.695 95.001 118.213C93.8124 117.238 91.9126 116.78 91.3767 115.22C91.7957 113.193 92.9648 111.311 92.9648 109.215C92.6043 106.603 91.8834 104.068 91.3475 101.494C87.0706 100.305 82.6572 99.6908 78.351 98.638ZM151.468 103.444C152.521 106.105 157.45 106.447 155.638 110.015C154.849 114.587 150.387 116.176 146.85 118.204C146.665 122.103 150.738 122.064 153.553 122.6C154.333 122.113 155.122 121.664 155.94 121.245C157.109 121.928 157.898 123.078 158.824 124.043C160.997 121.869 162.361 118.701 165.342 117.482C165.761 116.069 165.751 114.411 166.774 113.251C168.303 111.857 170.544 112.198 172.434 111.877C172.434 111.204 172.425 109.849 172.425 109.176C171.772 108.611 171.109 108.045 170.457 107.49C167.047 107.656 164.884 104.653 161.727 104.048C158.386 103.152 154.888 103.259 151.468 103.444ZM173.467 110.327C173.175 111.263 172.882 112.198 172.6 113.134C171.265 113.125 169.93 113.115 168.596 113.105C167.972 113.778 167.358 114.46 166.745 115.142C166.628 116.254 166.501 117.375 166.374 118.506C165.839 118.671 164.777 119.013 164.241 119.188C163.111 121.157 160.149 122.727 161.367 125.32C162.341 128.401 161.133 131.501 160.383 134.474C169.589 133.45 177.13 139.378 184.505 143.891C185.314 142.01 186.249 140.177 186.97 138.257C186.278 135.8 184.096 134.084 183.151 131.715C183.102 129.278 183.814 126.919 184.271 124.55C188.461 124.53 191.052 128.41 194.92 129.337C197.784 129.921 200.619 130.828 203.552 131.013C207.244 130.682 209.758 127.728 212.359 125.437C212.184 122.542 213.304 118.701 210.479 116.741C209.495 115.757 208.287 116.673 207.244 116.946C203.805 115.971 200.551 113.797 196.868 114.129C194.423 115.883 193.176 119.315 189.99 119.939C184.71 119.91 184.534 112.647 179.712 111.711C177.637 111.194 175.523 110.912 173.467 110.327ZM50.6726 139.358C48.919 139.485 47.1458 139.514 45.4312 139.904C44.8271 141.513 44.4179 143.189 43.9308 144.847C43.5216 144.759 42.7033 144.574 42.2843 144.486C41.4465 145.724 40.5209 146.904 39.8682 148.259C40.1215 150.306 40.6866 152.304 41.1347 154.322C39.5272 154.205 37.9197 154.098 36.3122 153.991C36.2343 155.707 35.7666 157.218 33.8181 157.481C34.88 158.69 36.1076 159.723 37.2767 160.815C37.6761 162.618 37.0624 164.471 36.8967 166.274C35.903 167.512 34.9482 168.78 34.0325 170.076C37.1208 172.416 38.5627 176.111 40.5307 179.308C41.5439 175.808 42.4305 172.26 42.8299 168.633C47.1556 168.429 51.5494 168.955 55.5731 170.612C57.9405 171.743 60.0059 173.518 62.6072 174.141C66.6893 175.545 70.898 174.005 75.0386 173.888C74.9119 172.377 74.6489 170.885 74.6879 169.365C76.159 168.282 78.1172 168.107 79.8319 167.551C79.8319 166.82 79.8416 165.368 79.8416 164.636C81.1471 164.256 82.4526 163.876 83.7581 163.506C83.7776 162.316 83.7873 161.127 83.8068 159.938C86.8367 158.251 89.9349 156.155 93.5688 157.247C93.5298 155.755 93.5006 154.264 93.4714 152.772C92.2536 153.455 91.2598 155.093 89.818 155.073C87.9182 153.581 85.9112 152.236 83.9919 150.764C82.8618 148.561 86.1158 148.142 87.5967 147.927C88.3274 146.572 89.0288 145.198 89.7303 143.823C87.4603 141.493 85.2682 139.036 82.4039 137.408C81.7414 139.758 79.5688 140.333 77.445 140.674C76.9481 142.819 74.5807 142.975 73.0316 144.028C71.5021 145.529 70.4012 147.401 68.8813 148.902C66.8939 149.38 64.8382 149.126 62.8215 149.136C62.3831 147.878 62.2759 146.426 61.3212 145.422C58.2425 141.864 55.7485 137.808 52.2119 134.659C51.6956 136.219 51.189 137.789 50.6726 139.358ZM159.935 135.654C157.908 137.847 158.434 141.444 157.723 144.232C153.495 145.1 149.578 147.216 145.223 147.459C145.214 148.541 145.214 149.633 145.204 150.715C144.464 151.447 143.752 152.197 143.07 152.977C143.791 155.141 146.188 155.57 148.068 156.194C148.526 157.656 148.955 159.119 149.374 160.601C150.017 161.283 150.66 161.965 151.313 162.648C155.58 162.755 159.623 164.159 163.452 165.943C163.793 163.35 163.88 160.659 164.903 158.222C166.793 156.106 169.843 156.048 172.454 155.95C176.097 155.98 179.527 154.664 182.995 153.757C184.174 151.135 185.08 148.385 185.246 145.5C177.325 141.23 169.648 133.948 159.935 135.654ZM174.441 156.838C171.538 156.935 168.605 157.101 165.897 158.251C165.312 160.562 164.28 162.969 165.049 165.368C166.394 168.867 163.929 172.075 162.604 175.165C159.068 175.955 156.213 178.509 152.579 179.035C148.487 179.805 144.493 181.316 141.443 184.261C140.839 188.511 139.651 194.389 134.741 195.442C132.802 196.3 132.909 198.893 132.256 200.629C130.99 201.272 129.733 201.915 128.466 202.569C128.885 203.592 129.314 204.626 129.743 205.659C132.5 206.146 136.368 206.156 136.796 209.744C138.959 208.954 141.249 208.067 143.596 208.359C145.925 208.934 148.244 210.982 150.709 209.714C153.865 208.33 157.294 207.833 160.548 206.77C162.575 209.519 164.143 212.658 163.793 216.187C165.868 218.079 168.167 219.716 170.252 221.617C172.512 223.85 173.262 227.554 170.885 229.992C171.109 230.732 171.548 232.214 171.762 232.945C171.285 233.413 170.33 234.33 169.852 234.788C170.437 239.467 172.766 243.815 172.493 248.621C172.269 253.525 176.692 257.415 181.008 258.857C180.686 253.262 184.271 248.495 184.271 242.948C181.875 241.982 179.264 240.939 178.923 237.995C184.057 238.834 187.613 234.846 191.744 232.663C192.426 234.349 193.098 236.036 193.8 237.712C198.476 239.35 203.084 237.878 207.605 236.562C205.305 230.489 209.027 224.513 208.511 218.371C208.52 216.07 207.809 213.75 208.218 211.459C210.878 209.851 213.548 208.203 216.363 206.868C220.708 205.678 225.102 208.983 229.379 207.141C236.608 204.557 243.915 202.188 251.105 199.517C255.674 197.85 256.687 192.479 257.321 188.228C258.938 186.22 261.315 185.206 263.809 184.767C265.222 182.545 266.936 180.244 266.927 177.485C267.122 171.539 267.063 165.563 266.284 159.655C263.945 159.431 261.588 159.314 259.259 159.538C250.832 160.376 242.356 159.411 233.929 160.123C225.463 160.718 216.957 161.127 208.472 160.776C204.331 160.181 200.59 158.037 196.469 157.335C193.985 157.13 191.52 157.89 189.035 157.676C186.931 157.14 185.099 155.892 183.063 155.171C180.102 155.063 177.403 156.789 174.441 156.838ZM350.595 166.43C348.364 166.138 346.143 165.709 343.902 165.582C345.178 169.842 343.97 174.268 343.016 178.46C344.526 180.634 346.844 182.262 348.267 184.426C347.234 191.358 338.329 191.865 335.787 197.811C333.858 201.74 332.377 205.893 331.471 210.192C332.484 212.19 333.731 214.13 334.189 216.353C334.16 218.81 333.361 221.227 331.987 223.255C329.425 227.125 327.252 231.23 325.284 235.431C333.361 238.892 341.291 242.684 349.329 246.223C356.752 249.021 359.217 257.259 364.03 262.845C370.139 262.094 375.887 259.238 381.995 258.272C384.294 258.37 386.272 259.793 388.24 260.856C391.367 262.552 392.498 266.208 395.021 268.528C396.395 269.396 398.178 268.967 399.727 269.249C398.587 264.716 398.119 260.037 398.509 255.377C398.557 250.376 402.25 246.116 401.334 241.008C398.986 240.598 395.908 241.485 394.183 239.467C393.092 235.441 393.764 231.181 393.511 227.057C393.141 223.967 395.06 220.994 394.144 217.952C392.293 211.089 390.14 204.314 388.25 197.47C386.564 192.596 391.631 189.106 394.436 185.879C394.544 185.138 394.768 183.666 394.875 182.925C392.858 182.701 390.851 182.467 388.844 182.272C387.899 181.004 386.331 179.835 386.555 178.06C386.886 174.785 387.022 171.48 386.74 168.195C380.924 167.932 375.059 168.585 369.281 167.873C366.105 167.922 365.93 163.35 363.338 162.843C359.217 164.461 354.823 165.124 350.595 166.43ZM76.12 169.745C76.0128 171.782 75.8862 173.82 75.779 175.857C77.4547 174.98 79.2961 174.132 80.3288 172.455C80.1437 171.168 79.9098 169.901 79.6273 168.643C78.4582 169.004 77.2891 169.374 76.12 169.745ZM147.269 240.735C144.951 243.425 141.775 245.112 139.232 247.559C140.245 250.425 141.034 253.466 140.381 256.508C141.512 256.206 142.642 255.913 143.782 255.621C145.974 257.882 148.458 259.822 151.205 261.363C150.894 262.962 150.553 264.551 150.143 266.13C150.747 268.723 151.303 271.326 151.683 273.968C157.119 277.234 163.754 275.177 168.605 271.804C168.313 268.392 167.738 265.028 167.271 261.646C171.353 261.607 174.159 265.925 178.231 265.038C180.832 264.434 179.059 261.324 179.147 259.54C175.162 257.327 171.752 253.895 171.129 249.187C168.596 250.473 165.819 251.097 162.994 250.551C160.334 247.89 157.45 245.472 154.576 243.055C152.043 242.606 149.627 241.739 147.269 240.735Z" fill="black"/>
<path opacity="0.51" d="M3.7136 19.877C4.22996 20.4619 4.72682 21.0565 5.21395 21.6707C4.16176 24.4783 5.22369 27.1202 7.63983 28.7092C7.25987 30.6687 6.30511 32.8524 7.65931 34.6657C7.80545 36.9956 7.81519 39.3255 7.81519 41.6555C8.94532 42.1624 11.0789 41.48 11.5076 42.9423C12.5013 44.2584 10.6113 45.2137 10.1826 46.3056C9.79292 50.1563 6.74352 52.9152 5.94463 56.6294C9.29605 57.2533 11.9655 59.5053 14.6057 61.4843C14.4693 62.1082 14.1965 63.356 14.0504 63.9799C14.4206 65.9492 14.6544 67.9379 14.7908 69.9364C16.3301 71.3402 17.9961 72.6465 19.3795 74.2258C19.2821 76.3802 18.8339 78.5054 18.5709 80.6502C19.5451 81.1278 20.5194 81.5958 21.4936 82.0637C21.3378 84.4034 22.2925 87.3182 20.0518 88.995C20.1784 87.055 20.3245 85.1248 20.4512 83.1945C19.5062 82.4342 18.5222 81.7323 17.7233 80.8159C17.2459 78.7687 18.0156 76.7312 18.5319 74.7717C17.0121 73.3776 15.4143 72.0811 13.7581 70.8625C13.7873 67.6942 12.3747 64.5161 13.5925 61.4258C12.5111 61.2503 11.4297 61.0748 10.3482 60.8994C9.76369 60.0122 9.18888 59.1153 8.60433 58.2282C7.37678 58.1112 6.14923 58.0137 4.92167 57.9065C4.34687 53.3149 8.69202 50.3123 9.13043 45.9254C9.76369 44.9993 10.397 44.0829 11.0302 43.1665C9.62729 43.0885 8.22438 43.0105 6.82146 42.9228C7.47421 38.3117 5.41854 33.8175 6.30511 29.2552C3.47978 26.9447 3.1388 23.25 3.7136 19.877Z" fill="black"/>
<path opacity="0.51" d="M78.0085 22.7719C79.7622 22.1285 81.4281 20.3737 83.3961 20.7442C83.2207 25.9695 85.7246 31.0875 84.0683 36.2446C82.1686 34.6263 84.1463 32.2379 83.4935 30.2491C82.9187 27.4513 82.3537 24.6436 82.4511 21.7678C80.5318 22.8499 78.3398 23.542 76.6933 25.0336C74.6181 27.6462 74.5012 31.7602 71.1693 33.3297C68.1491 33.047 65.1777 33.3687 62.2744 34.2461C59.4198 34.0901 60.8033 30.1614 60.209 28.5236C61.6509 29.7422 61.7873 31.5652 61.495 33.32C64.6126 32.3158 67.8471 32.0624 71.0913 31.9649C74.1602 29.5765 74.1018 24.3804 78.0085 22.7719Z" fill="black"/>
<path opacity="0.51" d="M290.047 45.8272C292.921 45.837 295.795 45.7492 298.64 45.3105C301.524 46.6754 304.67 47.309 307.72 48.1669C303.706 49.2978 300.111 46.0904 296.107 46.8118C294.09 46.7241 291.469 47.7867 290.047 45.8272Z" fill="black"/>
<path opacity="0.51" d="M25.7695 45.8965C27.0361 47.0273 28.5559 48.1094 29.0333 49.8447C29.6373 55.7426 28.9456 62.2158 32.1509 67.48C33.0569 69.5175 31.995 72.0034 33.2031 73.9726C36.7006 77.5309 41.4549 79.7439 46.4528 80.0656C48.6741 82.1908 50.8175 84.5402 53.672 85.827C56.1369 84.004 58.1536 81.3719 61.5342 81.1184C59.0012 83.1364 55.9225 84.4915 54.4124 87.5623C51.9671 86.2852 49.6386 84.7644 47.7194 82.766C45.4591 80.0656 41.4939 80.8065 38.6296 79.1882C36.3791 77.9599 34.1578 76.595 32.3555 74.7623C30.9818 72.6176 32.1021 69.8295 30.9915 67.6068C26.9094 60.9777 30.2316 52.3696 25.7695 45.8965Z" fill="black"/>
<path opacity="0.51" d="M288.085 51.6592C287.579 50.7136 287.939 46.9408 289.508 48.3934C289.732 49.4462 289.537 51.8054 288.085 51.6592Z" fill="black"/>
<path opacity="0.51" d="M328.158 82.2383C329.756 82.7842 331.373 83.3594 332.981 83.9345C333.283 84.3927 333.887 85.2994 334.189 85.7576C333.731 87.4246 333.536 89.1501 333.497 90.8756C331.695 89.5985 332.201 87.7463 332.786 86.0598C331.149 84.8997 329.464 83.7786 328.158 82.2383Z" fill="black"/>
<path opacity="0.51" d="M19.0781 88.7793C21.3286 89.2277 23.4915 90.0759 25.2646 91.5577C25.4205 93.1857 25.6251 94.8137 25.8589 96.432C24.8359 96.51 23.8227 96.5977 22.7998 96.6952C23.4817 95.3012 25.06 93.6634 24.0273 92.0159C22.3906 90.9143 20.6174 90.0174 19.0781 88.7793Z" fill="black"/>
<path opacity="0.51" d="M24.3574 98.9876C24.4354 98.6074 24.5815 97.8372 24.6594 97.457C25.8967 98.3637 26.793 99.7285 27.8063 100.869C26.9489 102.419 24.4743 100.333 24.3574 98.9876Z" fill="black"/>
<path opacity="0.51" d="M415.645 258.778C417.243 257.442 416.298 254.801 417.759 253.562C418.207 254.986 417.983 256.477 417.905 257.949C412.274 264.218 407.189 270.964 401.616 277.291C400.018 279.036 398.645 280.976 397.505 283.042C397.047 282.575 396.608 282.097 396.189 281.619C403.185 274.473 409.118 266.353 415.645 258.778Z" fill="black"/>
<path opacity="0.51" d="M147.502 299.518C148.866 298.534 150.006 301.01 148.992 301.936C147.648 302.862 146.498 300.425 147.502 299.518Z" fill="black"/>
<path opacity="0.51" d="M284.346 361.266C284.414 360.71 284.55 359.589 284.619 359.033C286.294 359.56 287.941 360.301 289.344 361.392C287.717 362.455 286.051 363.459 284.346 364.405C285.242 362.952 286.392 361.714 287.59 360.534C286.781 360.71 285.154 361.08 284.346 361.266Z" fill="black"/>
<path opacity="0.51" d="M289.771 362.768C291.729 361.881 291.914 365.088 290.17 365.361C288.339 365.975 288.222 363.129 289.771 362.768Z" fill="black"/>
<path opacity="0.51" d="M213.859 363.566C216.363 364.034 219.383 363.888 221.244 365.926C218.429 366.783 215.272 366.501 213.859 363.566Z" fill="black"/>
<path opacity="0.51" d="M282.825 366.462C282.533 365.116 283.069 364.59 284.433 364.863C284.715 366.208 284.18 366.735 282.825 366.462Z" fill="black"/>
<path opacity="0.51" d="M272.783 369.338C275.141 366.735 279.496 366.95 282.798 367.067C282.107 367.535 280.714 368.47 280.022 368.948C279.632 370.108 278.814 370.771 277.577 370.947C277.664 370.303 277.849 369.016 277.937 368.383C276.261 368.89 274.537 369.299 272.783 369.338Z" fill="black"/>
<path opacity="0.51" d="M225.461 368.881C225.705 369.115 225.705 369.115 225.461 368.881V368.881Z" fill="black"/>
<path opacity="0.51" d="M231.969 372.525C232.719 371.151 234.385 371.492 235.681 371.219C236.022 372.252 236.372 373.285 236.713 374.329C235.077 374.202 232.329 374.748 231.969 372.525ZM234.054 372.72C234.551 373.198 234.551 373.198 234.054 372.72V372.72Z" fill="black"/>
<path opacity="0.51" d="M245.765 378.406C246.574 377.05 248.941 378.357 247.918 379.712C247.11 381.077 244.733 379.761 245.765 378.406Z" fill="black"/>
<path opacity="0.51" d="M246.546 388.135C248.124 387.619 248.66 388.155 248.163 389.754C246.575 390.27 246.039 389.734 246.546 388.135Z" fill="black"/>
<path opacity="0.51" d="M258.224 389.08C259.803 388.573 260.329 389.119 259.803 390.717C258.215 391.215 257.688 390.669 258.224 389.08Z" fill="black"/>
</g>
<defs>
<clipPath id="clip0_3017_93082">
<rect width="454" height="411.394" fill="white"/>
</clipPath>
</defs>
</svg>
