<?xml version="1.0" encoding="UTF-8" ?>
<!DOCTYPE svg PUBLIC "-//W3C//DTD SVG 1.1//EN" "http://www.w3.org/Graphics/SVG/1.1/DTD/svg11.dtd">
<svg width="1449pt" height="750pt" viewBox="0 0 1449 750" version="1.1" xmlns="http://www.w3.org/2000/svg">
<g id="#b9bbc2ff">
<path fill="#b9bbc2" opacity="1.00" d=" M 352.39 18.30 C 357.57 9.10 367.39 2.63 378.01 2.07 C 390.34 1.09 402.59 8.22 408.19 19.18 C 412.10 16.05 417.00 13.96 422.09 14.37 C 431.44 14.63 439.60 22.80 440.18 32.07 C 440.32 35.38 440.36 38.69 440.13 41.99 C 439.44 48.65 432.68 54.08 426.01 53.02 C 422.72 52.33 421.32 47.88 423.47 45.35 C 425.15 42.86 429.89 44.30 430.50 40.89 C 430.66 36.24 431.53 30.71 427.94 27.04 C 424.28 22.76 416.95 23.14 413.63 27.63 C 411.59 29.94 411.85 33.17 410.96 35.94 C 409.47 39.20 404.32 39.32 402.59 36.21 C 401.68 34.26 401.96 31.99 401.56 29.91 C 400.14 20.00 390.97 11.96 380.97 11.73 C 372.88 11.27 364.89 15.87 360.99 22.92 C 358.76 26.55 358.40 30.83 357.99 34.96 C 357.23 39.58 349.52 39.60 348.86 34.92 C 348.50 30.62 347.27 25.99 343.47 23.46 C 337.81 18.94 328.71 21.04 325.29 27.33 C 320.94 34.20 326.49 43.58 320.89 49.91 C 317.41 53.96 311.67 53.23 306.91 53.04 C 303.27 52.81 301.55 47.79 304.00 45.20 C 306.51 42.47 310.60 43.81 313.87 43.47 C 314.07 37.69 313.17 31.68 315.21 26.13 C 318.19 17.52 326.86 11.29 336.00 11.35 C 342.18 11.17 348.02 14.07 352.39 18.30 Z" />
<path fill="#b9bbc2" opacity="1.00" d=" M 1062.81 19.18 C 1067.53 10.14 1076.64 3.48 1086.83 2.28 C 1099.44 0.39 1112.48 7.22 1118.61 18.30 C 1122.76 14.31 1128.18 11.45 1134.05 11.36 C 1142.98 10.93 1151.76 16.52 1155.23 24.75 C 1157.95 30.61 1156.93 37.22 1157.13 43.47 C 1160.40 43.81 1164.53 42.46 1167.03 45.24 C 1169.44 47.84 1167.69 52.82 1164.07 53.04 C 1159.33 53.22 1153.61 53.96 1150.14 49.94 C 1144.63 43.80 1149.79 34.76 1146.05 27.92 C 1143.25 22.26 1135.90 19.32 1130.08 21.99 C 1125.28 23.90 1122.46 28.88 1122.31 33.91 C 1122.44 37.43 1118.12 39.69 1115.21 37.87 C 1112.91 36.81 1112.78 34.08 1112.66 31.90 C 1112.24 23.65 1106.48 16.11 1098.82 13.19 C 1092.45 10.67 1084.89 11.41 1079.17 15.17 C 1073.45 18.80 1069.55 25.20 1069.20 31.99 C 1068.96 33.85 1069.10 36.12 1067.41 37.37 C 1065.06 39.50 1060.62 38.47 1059.84 35.31 C 1059.21 32.47 1059.13 29.26 1056.92 27.10 C 1053.43 23.05 1046.53 22.97 1043.05 27.05 C 1039.47 30.71 1040.33 36.20 1040.49 40.83 C 1040.89 43.74 1044.54 43.24 1046.55 44.42 C 1049.82 46.52 1048.83 52.26 1044.98 53.02 C 1039.49 53.88 1033.90 50.37 1031.76 45.35 C 1030.22 41.77 1030.84 37.78 1030.74 34.00 C 1030.46 25.13 1037.05 16.63 1045.73 14.78 C 1051.75 13.34 1058.11 15.29 1062.81 19.18 Z" />
<path fill="#b9bbc2" opacity="1.00" d=" M 262.29 44.17 C 265.21 42.26 269.51 44.51 269.64 48.00 C 270.03 51.70 265.57 54.58 262.39 52.59 C 259.18 50.98 259.10 45.86 262.29 44.17 Z" />
<path fill="#b9bbc2" opacity="1.00" d=" M 281.30 44.21 C 284.64 42.88 288.45 43.59 291.97 43.60 C 296.54 43.80 297.67 50.75 293.63 52.63 C 290.17 53.58 286.45 53.09 282.90 53.02 C 278.66 52.58 277.61 46.18 281.30 44.21 Z" />
<path fill="#b9bbc2" opacity="1.00" d=" M 405.26 44.09 C 408.61 42.49 414.09 43.58 414.40 47.98 C 414.78 53.08 408.19 54.50 404.69 52.25 C 401.88 50.34 402.17 45.57 405.26 44.09 Z" />
<path fill="#b9bbc2" opacity="1.00" d=" M 1059.19 44.06 C 1062.52 42.50 1068.00 43.59 1068.28 47.97 C 1068.72 53.23 1061.52 54.69 1058.18 51.92 C 1055.72 49.83 1056.28 45.46 1059.19 44.06 Z" />
<path fill="#b9bbc2" opacity="1.00" d=" M 1177.22 44.16 C 1180.60 42.92 1184.41 43.56 1187.97 43.61 C 1192.72 44.03 1193.37 51.43 1188.92 52.87 C 1185.33 53.32 1181.66 53.28 1178.08 52.90 C 1174.24 51.89 1173.71 45.95 1177.22 44.16 Z" />
<path fill="#b9bbc2" opacity="1.00" d=" M 1203.42 44.37 C 1206.28 42.14 1211.00 44.36 1211.07 48.00 C 1211.45 51.19 1208.04 54.02 1204.97 53.04 C 1201.11 52.24 1200.06 46.47 1203.42 44.37 Z" />
<path fill="#b9bbc2" opacity="1.00" d=" M 670.39 61.18 C 682.77 56.44 697.24 57.63 708.66 64.37 C 717.83 69.63 724.85 78.30 728.39 88.24 C 732.63 85.38 737.88 83.83 742.98 84.91 C 751.43 86.37 758.18 94.36 758.11 102.95 C 757.95 109.16 759.12 115.96 755.69 121.54 C 751.83 128.58 743.19 132.08 735.44 130.49 C 731.42 129.18 731.38 122.78 735.41 121.47 C 738.87 120.81 743.01 121.64 745.69 118.75 C 749.60 115.26 748.29 109.60 748.52 104.98 C 748.75 101.67 747.73 98.08 744.92 96.08 C 741.49 93.25 736.00 93.78 733.14 97.16 C 730.84 99.36 731.20 102.74 730.26 105.52 C 728.54 109.15 722.41 108.62 721.49 104.66 C 721.00 101.04 721.08 97.34 720.05 93.81 C 716.15 78.09 700.27 66.53 684.09 67.80 C 668.91 68.47 655.14 80.18 651.98 95.04 C 651.17 98.24 651.33 101.57 650.82 104.81 C 649.70 108.85 643.33 109.04 641.88 105.14 C 641.19 101.93 641.46 98.55 640.39 95.41 C 637.45 85.19 627.65 77.47 617.01 77.03 C 606.16 76.31 595.44 83.32 591.61 93.47 C 589.99 97.07 590.12 101.07 589.53 104.89 C 588.34 108.77 582.23 109.04 580.69 105.28 C 579.89 102.37 580.15 99.15 578.57 96.48 C 575.65 90.57 568.36 87.21 562.00 89.11 C 555.56 90.84 551.11 97.34 551.28 103.93 C 551.23 113.03 546.23 121.84 538.51 126.62 C 532.25 130.80 524.46 131.24 517.19 130.60 C 513.87 129.89 512.57 125.27 514.86 122.82 C 516.87 120.43 520.29 121.30 523.02 121.13 C 530.07 121.58 537.02 117.34 539.96 110.95 C 542.37 106.31 541.06 100.84 542.79 96.01 C 545.67 86.48 554.86 79.08 564.93 78.98 C 572.10 78.58 579.07 81.88 583.87 87.10 C 588.84 77.49 598.16 70.15 608.87 68.20 C 622.87 65.27 638.11 71.88 645.64 84.02 C 650.61 73.63 659.54 65.18 670.39 61.18 Z" />
<path fill="#b9bbc2" opacity="1.00" d=" M 825.00 84.34 C 831.17 74.87 841.64 68.19 853.05 67.62 C 867.02 66.47 880.86 74.66 887.13 87.10 C 892.80 80.79 901.74 77.61 910.10 79.43 C 921.00 81.52 929.33 91.97 929.34 103.01 C 929.12 110.59 934.23 117.92 941.46 120.24 C 945.45 121.72 949.76 120.72 953.87 121.37 C 957.73 122.27 958.49 128.09 955.10 130.07 C 952.27 131.38 948.96 130.57 945.95 130.74 C 932.30 130.61 920.11 118.61 919.79 104.95 C 920.12 98.39 916.32 91.60 909.95 89.41 C 902.18 86.37 892.68 91.82 891.21 99.97 C 890.59 102.31 891.16 105.33 888.97 106.97 C 886.39 109.23 881.63 107.58 881.32 104.09 C 880.95 100.75 880.91 97.31 879.65 94.14 C 876.56 85.36 868.41 78.59 859.18 77.30 C 849.67 75.73 839.57 80.16 834.16 88.09 C 830.81 92.64 829.57 98.31 829.38 103.87 C 829.39 106.33 826.91 107.39 825.10 108.38 C 824.88 100.37 825.05 92.35 825.00 84.34 Z" />
<path fill="#b9bbc2" opacity="1.00" d=" M 463.48 121.61 C 466.10 120.81 468.99 120.96 471.66 121.44 C 475.81 122.70 475.80 129.34 471.63 130.56 C 468.97 131.05 466.09 131.19 463.49 130.39 C 459.82 128.95 459.82 123.06 463.48 121.61 Z" />
<path fill="#b9bbc2" opacity="1.00" d=" M 484.39 121.45 C 490.27 120.75 496.26 121.24 502.19 121.17 C 505.91 120.84 508.53 125.43 506.50 128.52 C 504.78 131.52 500.91 130.79 498.02 130.89 C 493.48 130.69 488.88 131.27 484.39 130.55 C 480.21 129.35 480.20 122.65 484.39 121.45 Z" />
<path fill="#b9bbc2" opacity="1.00" d=" M 709.41 121.60 C 712.84 120.66 716.48 121.30 720.00 121.11 C 722.67 121.22 726.13 120.53 727.91 123.12 C 730.35 126.06 727.84 131.06 724.02 130.82 C 719.39 130.86 714.74 131.12 710.14 130.64 C 705.93 129.71 705.44 123.23 709.41 121.60 Z" />
<path fill="#b9bbc2" opacity="1.00" d=" M 966.40 121.70 C 972.76 120.53 979.46 121.23 985.95 121.29 C 990.71 121.88 991.09 129.50 986.43 130.60 C 980.31 131.15 974.10 130.88 967.97 130.75 C 963.43 130.48 962.30 123.53 966.40 121.70 Z" />
<path fill="#b9bbc2" opacity="1.00" d=" M 999.35 121.43 C 1002.37 121.05 1006.00 120.43 1008.65 122.33 C 1011.80 124.80 1010.10 130.60 1006.03 130.78 C 1003.22 130.83 999.75 131.57 997.54 129.38 C 995.10 127.07 996.12 122.45 999.35 121.43 Z" />
<path fill="#b9bbc2" opacity="1.00" d=" M 304.32 154.17 C 315.58 149.36 329.21 150.76 339.26 157.75 C 345.37 161.83 349.98 167.90 352.74 174.68 C 355.65 173.30 358.78 172.05 362.09 172.38 C 370.08 172.65 377.09 179.88 376.99 187.90 C 376.88 192.52 377.65 197.40 375.77 201.77 C 373.10 208.26 365.86 212.14 358.95 211.23 C 355.20 211.22 353.07 206.23 355.51 203.43 C 356.95 201.34 359.69 201.80 361.87 201.49 C 364.72 201.39 367.24 198.87 367.31 196.01 C 367.45 193.03 367.51 190.02 367.23 187.04 C 366.63 182.70 360.79 180.38 357.47 183.38 C 354.87 185.21 355.69 188.83 354.17 191.26 C 352.10 194.07 347.07 193.42 345.93 190.07 C 345.26 186.37 345.43 182.49 343.97 178.95 C 339.85 166.90 326.46 158.99 313.91 161.43 C 301.25 163.38 291.28 175.26 291.37 188.06 C 291.77 191.97 286.78 194.54 283.74 192.13 C 281.63 190.79 281.90 188.06 281.62 185.91 C 281.00 177.46 274.11 170.09 265.83 168.58 C 258.76 167.12 251.08 170.01 246.66 175.70 C 243.56 179.40 242.45 184.23 242.23 188.94 C 242.08 193.42 235.30 194.48 233.37 190.64 C 232.44 187.40 232.67 183.56 230.01 181.05 C 226.56 176.96 219.88 176.28 215.77 179.76 C 212.89 181.95 211.51 185.58 211.54 189.14 C 211.39 197.38 206.35 205.26 198.94 208.87 C 194.07 211.41 188.37 211.61 183.03 211.07 C 179.57 210.24 178.41 205.39 180.97 203.00 C 182.83 201.07 185.72 201.80 188.10 201.60 C 193.18 201.87 198.19 198.92 200.46 194.39 C 202.24 191.20 201.67 187.40 202.41 183.94 C 204.21 174.93 212.74 167.69 222.02 167.85 C 227.41 167.67 232.51 170.10 236.48 173.62 C 241.61 164.65 251.55 158.61 261.95 158.73 C 271.34 158.56 280.44 163.36 285.96 170.89 C 290.03 163.50 296.47 157.37 304.32 154.17 Z" />
<path fill="#b9bbc2" opacity="1.00" d=" M 1141.87 152.89 C 1158.20 147.61 1177.21 155.70 1185.04 170.89 C 1190.56 163.36 1199.67 158.55 1209.07 158.73 C 1219.46 158.61 1229.39 164.66 1234.52 173.62 C 1238.48 170.10 1243.58 167.68 1248.97 167.85 C 1257.50 167.71 1265.45 173.80 1268.03 181.85 C 1269.54 185.89 1268.44 190.54 1270.55 194.40 C 1272.83 198.95 1277.86 201.89 1282.95 201.60 C 1285.29 201.79 1288.13 201.08 1289.99 202.96 C 1292.60 205.35 1291.42 210.28 1287.94 211.08 C 1282.58 211.60 1276.90 211.40 1272.05 208.86 C 1264.62 205.24 1259.58 197.34 1259.46 189.08 C 1259.62 184.30 1256.65 179.48 1252.01 178.02 C 1246.27 175.91 1239.33 180.14 1238.52 186.17 C 1238.01 188.04 1238.34 190.40 1236.71 191.76 C 1234.41 194.06 1229.85 193.11 1228.93 189.91 C 1228.39 186.61 1228.46 183.14 1226.96 180.06 C 1223.85 172.71 1215.94 167.73 1207.96 168.25 C 1199.94 168.52 1192.52 174.27 1190.16 181.92 C 1189.27 184.48 1189.41 187.23 1188.89 189.87 C 1188.02 193.05 1183.51 194.06 1181.19 191.86 C 1179.40 190.49 1179.71 188.04 1179.46 186.08 C 1178.92 176.88 1173.15 168.28 1164.98 164.10 C 1158.21 160.51 1149.90 160.04 1142.77 162.86 C 1133.87 166.22 1127.04 174.62 1125.77 184.07 C 1125.45 186.07 1125.53 188.14 1125.05 190.11 C 1124.02 192.93 1120.16 193.93 1117.80 192.17 C 1115.00 190.26 1116.45 186.08 1114.07 183.86 C 1111.72 181.30 1107.34 181.48 1105.16 184.15 C 1103.17 186.27 1103.68 189.36 1103.58 192.01 C 1103.60 194.84 1103.25 198.33 1105.85 200.22 C 1108.55 202.74 1113.15 200.34 1115.49 203.43 C 1117.40 205.73 1116.53 209.58 1113.80 210.81 C 1104.87 213.45 1094.60 206.48 1094.08 197.10 C 1093.97 190.61 1092.95 183.08 1097.80 177.90 C 1102.66 171.90 1111.74 170.78 1118.26 174.68 C 1122.31 164.33 1131.18 156.03 1141.87 152.89 Z" />
<path fill="#b9bbc2" opacity="1.00" d=" M 139.36 202.33 C 142.23 200.33 146.61 202.54 146.74 206.02 C 147.22 209.49 143.26 212.41 140.08 210.93 C 136.50 209.67 136.07 204.16 139.36 202.33 Z" />
<path fill="#b9bbc2" opacity="1.00" d=" M 156.22 202.12 C 158.38 201.27 160.79 201.72 163.06 201.59 C 165.63 201.72 168.91 201.04 170.68 203.45 C 172.83 206.01 171.35 210.65 167.93 211.11 C 164.33 211.36 160.69 211.40 157.10 211.08 C 152.92 210.24 152.34 203.77 156.22 202.12 Z" />
<path fill="#b9bbc2" opacity="1.00" d=" M 328.20 202.15 C 332.63 201.11 337.38 201.64 341.92 201.80 C 346.46 202.81 346.43 210.12 341.88 211.09 C 337.61 211.36 333.28 211.42 329.01 211.04 C 325.02 210.04 324.55 203.91 328.20 202.15 Z" />
<path fill="#b9bbc2" opacity="1.00" d=" M 1128.21 202.12 C 1132.65 201.14 1137.39 201.62 1141.92 201.82 C 1146.36 202.85 1146.37 210.06 1141.91 211.06 C 1137.65 211.40 1133.33 211.38 1129.07 211.08 C 1124.98 210.14 1124.43 203.86 1128.21 202.12 Z" />
<path fill="#b9bbc2" opacity="1.00" d=" M 1301.41 202.43 C 1305.00 200.86 1309.18 201.82 1313.02 201.68 C 1317.77 201.65 1319.06 209.03 1314.74 210.78 C 1310.95 211.70 1306.91 211.23 1303.05 211.11 C 1299.01 210.55 1297.97 204.48 1301.41 202.43 Z" />
<path fill="#b9bbc2" opacity="1.00" d=" M 1326.41 202.38 C 1329.60 200.03 1334.57 203.11 1333.87 207.02 C 1333.66 210.48 1329.21 212.51 1326.42 210.50 C 1323.54 208.77 1323.54 204.11 1326.41 202.38 Z" />
<path fill="#b9bbc2" opacity="1.00" d=" M 759.79 208.66 C 770.13 204.87 782.05 205.86 791.66 211.21 C 802.97 217.29 810.88 229.20 812.03 242.00 C 812.82 248.54 811.51 255.40 807.90 260.96 C 803.03 268.65 794.15 273.66 785.03 273.66 C 783.37 273.60 781.53 273.87 780.11 272.84 C 777.62 271.27 777.30 267.40 779.42 265.40 C 781.15 263.56 783.90 264.20 786.16 263.88 C 794.53 263.46 801.76 256.20 802.48 247.90 C 803.70 234.44 794.35 221.12 781.44 217.34 C 769.34 213.36 755.18 218.73 748.40 229.43 C 744.85 234.53 743.67 240.77 743.39 246.87 C 742.72 251.21 735.90 251.78 734.37 247.71 C 733.69 243.44 733.49 238.86 730.79 235.24 C 726.64 228.85 718.35 225.34 710.90 227.29 C 702.53 229.23 696.31 237.45 696.39 246.00 C 696.41 253.90 692.94 261.71 686.94 266.87 C 680.87 272.30 672.39 274.48 664.40 273.48 C 661.09 272.76 659.73 268.28 661.92 265.76 C 663.60 263.55 666.61 264.13 669.03 263.96 C 676.44 264.06 683.45 258.86 685.77 251.86 C 686.90 248.71 686.60 245.31 687.03 242.05 C 688.34 231.66 695.76 222.27 705.65 218.76 C 717.00 214.45 730.54 218.71 737.83 228.31 C 742.36 219.32 750.26 212.02 759.79 208.66 Z" />
<path fill="#b9bbc2" opacity="1.00" d=" M 37.74 219.52 C 38.53 219.66 40.09 219.94 40.88 220.09 C 41.49 223.57 41.53 227.29 40.87 230.78 C 40.10 230.94 38.54 231.26 37.77 231.42 C 37.37 227.46 37.38 223.47 37.74 219.52 Z" />
<path fill="#b9bbc2" opacity="1.00" d=" M 1430.14 220.08 C 1430.92 219.94 1432.48 219.66 1433.26 219.52 C 1433.61 223.48 1433.62 227.46 1433.23 231.42 C 1432.46 231.26 1430.93 230.95 1430.16 230.79 C 1429.43 227.32 1429.50 223.56 1430.14 220.08 Z" />
<path fill="#b9bbc2" opacity="1.00" d=" M 26.09 225.13 C 26.57 225.00 27.52 224.75 28.00 224.63 C 30.51 226.59 32.78 228.89 34.81 231.34 C 35.65 232.95 33.91 234.65 32.30 233.88 C 30.39 232.43 28.80 230.61 27.16 228.88 C 26.20 227.91 24.79 226.49 26.09 225.13 Z" />
<path fill="#b9bbc2" opacity="1.00" d=" M 49.55 225.43 C 50.72 223.47 53.75 224.68 53.14 226.94 C 51.14 229.39 48.86 231.65 46.43 233.67 C 44.88 234.37 43.06 232.62 44.08 231.11 C 45.66 229.00 47.65 227.24 49.55 225.43 Z" />
<path fill="#b9bbc2" opacity="1.00" d=" M 1418.23 224.93 C 1418.69 224.79 1419.62 224.50 1420.08 224.35 C 1422.58 226.34 1424.93 228.60 1426.93 231.11 C 1427.96 232.56 1425.97 234.57 1424.52 233.60 C 1422.07 231.63 1419.85 229.36 1417.86 226.94 C 1417.95 226.44 1418.13 225.43 1418.23 224.93 Z" />
<path fill="#b9bbc2" opacity="1.00" d=" M 1442.36 225.10 C 1443.50 223.67 1446.02 225.33 1445.37 227.04 C 1443.38 229.50 1441.20 231.85 1438.75 233.85 C 1437.13 234.68 1435.26 232.97 1436.19 231.34 C 1438.02 229.06 1440.15 227.02 1442.36 225.10 Z" />
<path fill="#b9bbc2" opacity="1.00" d=" M 47.40 236.49 C 50.74 236.07 54.19 236.05 57.52 236.52 C 58.47 237.52 58.53 238.59 57.73 239.74 C 54.22 240.41 50.53 240.34 47.02 239.74 C 46.20 238.51 46.33 237.43 47.40 236.49 Z" />
<path fill="#b9bbc2" opacity="1.00" d=" M 1413.49 236.52 C 1416.81 236.04 1420.25 236.08 1423.59 236.49 C 1424.67 237.43 1424.79 238.53 1423.94 239.76 C 1420.67 240.35 1417.29 240.29 1414.02 239.92 C 1412.40 239.73 1412.31 237.38 1413.49 236.52 Z" />
<path fill="#b9bbc2" opacity="1.00" d=" M 21.18 237.24 C 24.14 235.96 27.73 236.77 30.93 236.73 C 33.03 236.18 33.12 240.79 30.95 240.27 C 28.31 240.48 25.64 240.44 22.99 240.35 C 21.27 240.80 19.90 238.46 21.18 237.24 Z" />
<path fill="#b9bbc2" opacity="1.00" d=" M 1438.41 236.80 C 1441.93 236.60 1445.46 236.61 1449.00 236.62 L 1449.00 240.38 C 1445.66 240.35 1442.30 240.58 1439.01 240.10 C 1438.86 239.28 1438.56 237.63 1438.41 236.80 Z" />
<path fill="#b9bbc2" opacity="1.00" d=" M 25.76 250.00 C 28.19 247.14 30.67 243.95 34.23 242.47 C 34.35 243.38 34.57 245.21 34.68 246.12 C 32.49 248.23 30.54 250.62 28.05 252.39 C 26.55 252.30 25.79 251.50 25.76 250.00 Z" />
<path fill="#b9bbc2" opacity="1.00" d=" M 44.41 243.30 C 44.82 243.08 45.63 242.63 46.03 242.41 C 48.86 244.51 51.41 247.07 53.54 249.88 C 53.45 251.46 52.60 252.19 51.00 252.07 C 48.40 249.94 45.99 247.53 43.91 244.90 C 44.03 244.50 44.29 243.70 44.41 243.30 Z" />
<path fill="#b9bbc2" opacity="1.00" d=" M 1423.49 243.52 C 1424.64 241.52 1427.22 242.99 1427.05 244.98 C 1424.95 247.58 1422.56 249.96 1419.99 252.07 C 1418.36 252.19 1417.52 251.44 1417.47 249.84 C 1419.17 247.48 1421.35 245.49 1423.49 243.52 Z" />
<path fill="#b9bbc2" opacity="1.00" d=" M 1436.77 242.46 C 1440.33 243.97 1442.82 247.15 1445.26 250.02 C 1445.18 251.52 1444.42 252.31 1442.98 252.38 C 1440.45 250.64 1438.50 248.22 1436.31 246.10 C 1436.43 245.19 1436.66 243.37 1436.77 242.46 Z" />
<path fill="#b9bbc2" opacity="1.00" d=" M 38.10 245.85 C 39.44 244.99 40.54 245.18 41.41 246.40 C 41.80 249.46 41.75 252.60 41.47 255.68 C 41.22 257.44 38.44 257.76 37.89 255.96 C 37.65 252.60 37.49 249.17 38.10 245.85 Z" />
<path fill="#b9bbc2" opacity="1.00" d=" M 1429.59 246.43 C 1430.43 245.17 1431.54 244.98 1432.92 245.85 C 1433.47 249.17 1433.37 252.59 1433.09 255.93 C 1432.66 257.74 1429.52 257.44 1429.51 255.59 C 1429.25 252.55 1429.19 249.46 1429.59 246.43 Z" />
<path fill="#b9bbc2" opacity="1.00" d=" M 607.34 264.44 C 610.81 262.57 615.30 266.24 614.10 270.02 C 613.41 273.61 608.28 274.92 605.90 272.20 C 603.62 269.97 604.41 265.71 607.34 264.44 Z" />
<path fill="#b9bbc2" opacity="1.00" d=" M 626.27 264.40 C 631.75 263.47 637.41 264.26 642.96 263.98 C 645.73 264.16 649.27 263.26 651.28 265.76 C 653.79 268.52 651.68 273.66 647.88 273.58 C 642.24 273.73 636.61 273.55 630.97 273.65 C 628.89 273.55 626.37 274.00 624.81 272.26 C 622.48 270.04 623.23 265.60 626.27 264.40 Z" />
<path fill="#b9bbc2" opacity="1.00" d=" M 759.13 264.14 C 762.58 263.94 766.12 263.71 769.55 264.31 C 773.61 265.56 773.62 272.03 769.61 273.35 C 765.95 273.85 762.15 273.79 758.49 273.39 C 753.96 272.15 754.42 264.69 759.13 264.14 Z" />
<path fill="#b9bbc2" opacity="1.00" d=" M 314.44 271.46 C 320.07 268.47 327.52 273.62 326.62 279.95 C 326.38 286.11 318.63 289.90 313.58 286.45 C 307.93 283.29 308.45 273.94 314.44 271.46 M 316.38 273.55 C 312.39 274.66 310.78 280.25 313.82 283.17 C 316.64 286.61 322.74 285.06 323.77 280.79 C 325.24 276.55 320.57 272.04 316.38 273.55 Z" />
<path fill="#b9bbc2" opacity="1.00" d=" M 1149.36 271.39 C 1155.00 268.53 1162.32 273.72 1161.38 280.01 C 1161.13 286.36 1152.89 290.03 1147.92 286.17 C 1142.61 282.72 1143.47 273.72 1149.36 271.39 M 1151.44 273.48 C 1147.21 274.39 1145.46 280.27 1148.66 283.25 C 1151.50 286.57 1157.42 285.04 1158.53 280.88 C 1159.99 276.75 1155.61 272.19 1151.44 273.48 Z" />
<path fill="#b9bbc2" opacity="1.00" d=" M 206.53 274.56 C 208.67 273.38 211.23 275.70 210.58 278.01 C 207.84 281.45 204.51 284.38 201.41 287.48 C 199.98 289.61 196.26 288.42 196.35 285.87 C 196.19 284.12 197.88 283.09 198.87 281.91 C 201.45 279.49 203.72 276.73 206.53 274.56 Z" />
<path fill="#b9bbc2" opacity="1.00" d=" M 1262.49 274.38 C 1264.50 273.70 1265.79 275.77 1267.12 276.90 C 1269.51 279.46 1272.26 281.72 1274.42 284.50 C 1275.48 286.68 1273.30 289.16 1270.99 288.56 C 1267.53 285.86 1264.63 282.50 1261.53 279.42 C 1259.60 278.15 1260.21 274.84 1262.49 274.38 Z" />
<path fill="#b9bbc2" opacity="1.00" d=" M 177.31 275.15 C 178.51 274.13 180.42 273.94 181.43 275.32 C 184.39 278.12 187.31 280.99 190.07 283.99 C 191.86 286.02 189.54 289.35 186.97 288.51 C 184.00 286.36 181.68 283.46 179.00 280.97 C 177.39 279.53 175.30 277.22 177.31 275.15 Z" />
<path fill="#b9bbc2" opacity="1.00" d=" M 1289.54 275.34 C 1291.50 272.51 1296.19 276.09 1293.99 278.75 C 1291.10 282.01 1287.97 285.08 1284.75 288.01 C 1282.60 289.88 1279.26 286.99 1280.55 284.51 C 1283.29 281.23 1286.48 278.33 1289.54 275.34 Z" />
<path fill="#b9bbc2" opacity="1.00" d=" M 186.52 294.52 C 188.22 293.29 190.90 294.88 190.77 296.97 C 190.87 298.51 189.42 299.49 188.54 300.55 C 185.96 302.99 183.65 305.73 180.88 307.95 C 178.60 309.73 175.22 306.50 176.88 304.16 C 179.87 300.76 183.11 297.51 186.52 294.52 Z" />
<path fill="#b9bbc2" opacity="1.00" d=" M 197.40 294.57 C 198.74 293.56 200.57 294.15 201.55 295.38 C 204.53 298.42 207.77 301.25 210.47 304.55 C 211.79 307.01 208.31 310.00 206.23 308.02 C 203.02 305.11 199.99 301.98 196.99 298.85 C 195.75 297.73 196.00 295.45 197.40 294.57 Z" />
<path fill="#b9bbc2" opacity="1.00" d=" M 1270.52 294.49 C 1272.85 292.77 1276.12 296.11 1274.35 298.41 C 1271.33 301.77 1268.08 304.96 1264.76 308.02 C 1263.19 309.59 1260.16 307.98 1260.30 305.82 C 1260.13 304.31 1261.55 303.37 1262.42 302.36 C 1265.15 299.76 1267.63 296.90 1270.52 294.49 Z" />
<path fill="#b9bbc2" opacity="1.00" d=" M 1281.48 294.62 C 1282.78 293.59 1284.56 294.21 1285.55 295.39 C 1288.42 298.27 1291.46 301.01 1294.10 304.12 C 1295.81 306.46 1292.40 309.75 1290.12 307.95 C 1286.88 305.19 1283.94 302.06 1281.02 298.97 C 1279.76 297.79 1280.00 295.50 1281.48 294.62 Z" />
<path fill="#b9bbc2" opacity="1.00" d=" M 403.13 304.95 C 403.49 303.10 406.86 303.11 406.97 305.07 C 407.36 309.36 407.02 313.69 407.12 318.00 C 411.41 318.09 415.71 317.78 419.99 318.15 C 421.83 318.54 421.86 321.81 419.93 321.95 C 415.67 322.38 411.39 322.01 407.12 322.12 C 407.03 326.42 407.34 330.74 406.98 335.03 C 407.02 337.04 403.28 337.10 403.11 335.08 C 402.82 330.77 403.08 326.44 403.00 322.12 C 398.67 322.05 394.32 322.30 390.00 322.01 C 389.54 321.50 388.63 320.49 388.18 319.99 C 388.65 319.53 389.59 318.62 390.06 318.17 C 394.36 317.76 398.69 318.10 403.00 318.00 C 403.08 313.65 402.80 309.29 403.13 304.95 Z" />
<path fill="#b9bbc2" opacity="1.00" d=" M 1064.03 305.02 C 1064.22 303.10 1067.52 303.13 1067.87 304.97 C 1068.19 309.30 1067.91 313.66 1068.00 318.00 C 1072.31 318.09 1076.65 317.78 1080.97 318.15 C 1082.71 318.75 1082.76 321.47 1080.95 321.98 C 1076.64 322.34 1072.31 322.03 1068.00 322.12 C 1067.92 326.43 1068.17 330.75 1067.89 335.06 C 1067.71 337.12 1063.97 337.06 1064.01 334.99 C 1063.67 330.71 1063.96 326.41 1063.88 322.12 C 1059.60 322.01 1055.30 322.37 1051.05 321.95 C 1049.09 321.75 1049.16 318.44 1051.06 318.15 C 1055.32 317.78 1059.60 318.09 1063.88 318.00 C 1063.97 313.67 1063.65 309.33 1064.03 305.02 Z" />
<path fill="#b9bbc2" opacity="1.00" d=" M 69.23 361.89 C 70.28 354.03 80.00 349.32 86.95 353.02 C 94.07 356.14 96.32 366.28 91.30 372.18 C 86.84 378.16 76.86 378.52 72.13 372.72 C 70.95 371.27 72.69 370.19 73.65 369.37 C 76.30 371.43 79.40 373.85 83.01 372.95 C 87.92 372.18 91.44 366.69 89.86 361.92 C 88.55 356.86 82.17 353.99 77.55 356.58 C 74.87 357.74 73.76 360.57 72.48 362.97 C 71.82 364.65 69.04 363.40 69.23 361.89 Z" />
<path fill="#b9bbc2" opacity="1.00" d=" M 1385.30 352.49 C 1392.22 349.64 1401.80 355.02 1401.60 362.74 C 1399.01 365.68 1397.68 361.27 1396.60 359.40 C 1393.15 353.66 1383.58 354.86 1381.42 361.11 C 1378.47 367.43 1385.32 374.99 1391.89 372.76 C 1394.38 372.37 1396.14 368.69 1398.74 370.24 C 1400.27 372.39 1397.61 374.14 1396.03 375.13 C 1389.97 378.97 1381.05 376.32 1378.17 369.72 C 1374.93 363.32 1378.44 354.69 1385.30 352.49 Z" />
<path fill="#b9bbc2" opacity="1.00" d=" M 184.33 397.45 C 190.27 394.72 197.51 400.61 195.96 406.98 C 195.10 412.90 187.40 415.96 182.65 412.39 C 177.16 408.93 178.18 399.58 184.33 397.45 M 184.43 400.40 C 180.76 402.51 180.83 408.35 184.53 410.40 C 188.32 413.00 193.93 409.48 193.45 404.98 C 193.31 400.73 187.95 397.88 184.43 400.40 Z" />
<path fill="#b9bbc2" opacity="1.00" d=" M 1281.24 397.10 C 1285.93 395.74 1291.22 399.10 1291.88 403.96 C 1292.94 409.15 1288.23 414.42 1282.95 413.88 C 1278.43 413.78 1274.63 409.57 1274.88 405.08 C 1274.96 401.40 1277.64 397.97 1281.24 397.10 M 1280.38 400.35 C 1276.58 402.44 1276.68 408.49 1280.54 410.47 C 1284.33 412.95 1289.81 409.40 1289.33 404.97 C 1289.16 400.77 1283.90 397.92 1280.38 400.35 Z" />
<path fill="#b9bbc2" opacity="1.00" d=" M 39.32 499.10 C 39.42 497.34 40.34 496.47 42.08 496.48 C 45.76 499.39 48.78 503.04 52.19 506.25 C 55.28 503.26 58.16 500.05 61.37 497.18 C 62.82 495.24 66.16 497.83 64.68 499.62 C 61.84 503.12 58.34 506.03 55.25 509.31 C 58.29 512.44 61.52 515.39 64.45 518.62 C 65.96 520.16 64.08 522.74 62.09 522.04 C 58.55 519.08 55.53 515.55 52.19 512.37 C 48.94 515.46 46.00 518.89 42.58 521.79 C 41.47 522.81 39.09 521.49 39.52 520.01 C 39.35 518.50 40.98 517.71 41.75 516.65 C 44.20 514.20 46.68 511.78 49.13 509.33 C 45.91 505.87 42.17 502.87 39.32 499.10 Z" />
<path fill="#b9bbc2" opacity="1.00" d=" M 1405.89 498.96 C 1405.96 497.38 1407.27 496.16 1408.91 496.61 C 1412.47 499.54 1415.47 503.08 1418.81 506.25 C 1422.20 503.04 1425.23 499.41 1428.89 496.49 C 1430.64 496.46 1431.57 497.34 1431.67 499.12 C 1428.80 502.87 1425.09 505.88 1421.87 509.31 C 1425.01 512.61 1428.49 515.58 1431.41 519.09 C 1432.26 520.88 1430.05 523.02 1428.40 521.78 C 1424.99 518.87 1422.05 515.46 1418.81 512.37 C 1415.68 515.40 1412.74 518.63 1409.53 521.56 C 1408.39 522.87 1405.72 521.69 1406.07 519.94 C 1405.92 518.64 1407.32 517.94 1408.00 517.03 C 1410.58 514.46 1413.18 511.90 1415.75 509.31 C 1412.53 505.81 1408.66 502.85 1405.89 498.96 Z" />
<path fill="#b9bbc2" opacity="1.00" d=" M 131.42 734.63 C 238.61 734.32 345.82 734.59 453.02 734.50 C 741.67 734.49 1030.33 734.51 1318.98 734.49 C 1322.28 734.68 1326.18 733.72 1328.93 736.12 C 1331.94 738.55 1332.06 743.61 1329.15 746.18 C 1327.57 747.80 1325.21 748.05 1323.08 748.01 C 926.35 747.97 529.62 748.03 132.90 747.99 C 129.47 748.21 126.10 745.48 125.87 742.01 C 125.35 738.58 127.99 735.07 131.42 734.63 Z" />
<path fill="#b9bbc2" opacity="1.00" d=" M 55.40 735.43 C 57.07 734.40 59.10 734.51 60.97 734.48 C 71.31 734.53 81.64 734.47 91.98 734.50 C 95.30 734.22 98.67 736.60 99.19 739.95 C 100.06 743.72 97.07 747.78 93.19 747.93 C 82.47 748.12 71.75 747.92 61.03 748.02 C 58.58 748.07 55.77 747.96 54.03 745.97 C 51.00 743.05 51.72 737.46 55.40 735.43 Z" />
<path fill="#b9bbc2" opacity="1.00" d=" M 1349.24 735.15 C 1351.03 734.31 1353.08 734.54 1355.02 734.48 C 1361.02 734.55 1367.03 734.42 1373.04 734.53 C 1376.55 734.38 1379.78 737.46 1379.78 740.98 C 1380.07 744.64 1376.82 748.09 1373.14 747.96 C 1365.72 747.96 1358.29 748.18 1350.90 747.85 C 1344.65 747.13 1343.42 737.48 1349.24 735.15 Z" />
<path fill="#b9bbc2" opacity="1.00" d=" M 1399.26 735.04 C 1402.04 734.10 1405.06 734.61 1407.96 734.47 C 1411.36 734.51 1415.63 733.92 1417.88 737.14 C 1420.91 740.81 1418.60 747.22 1413.80 747.84 C 1409.23 748.09 1404.60 748.23 1400.07 747.73 C 1394.12 746.39 1393.54 737.15 1399.26 735.04 Z" />
</g>
<g id="#188aecff">
<path fill="#188aec" opacity="1.00" d=" M 505.41 422.60 C 510.09 422.41 514.76 422.60 519.44 422.62 C 523.60 443.91 520.57 465.71 521.36 487.23 C 534.90 487.76 548.46 487.38 562.02 487.49 C 572.69 487.20 583.36 486.40 594.04 487.06 C 619.01 488.21 644.00 487.36 668.98 487.49 C 682.64 487.57 696.32 487.18 709.96 488.21 C 715.65 488.74 721.28 487.39 726.98 487.50 C 734.95 487.72 742.95 487.99 750.92 487.30 C 757.27 486.72 763.67 486.66 770.04 487.15 C 784.10 487.77 798.18 487.36 812.25 487.52 C 812.18 492.54 812.56 497.59 811.74 502.57 C 788.18 502.40 764.62 502.75 741.07 502.22 C 727.42 500.90 713.70 501.64 700.03 501.85 C 661.03 502.37 621.98 502.87 582.96 502.30 C 562.43 502.46 541.88 501.98 521.35 502.56 C 521.83 551.52 521.00 600.49 521.51 649.46 C 534.35 649.47 547.18 649.43 560.01 649.47 C 571.99 650.11 583.97 648.65 595.95 649.64 C 640.96 649.41 685.97 649.36 730.98 649.66 C 746.65 649.98 762.31 648.78 777.98 649.62 C 790.72 649.31 803.48 649.44 816.23 649.68 C 816.53 584.79 816.90 519.90 816.23 455.01 C 816.53 446.50 815.28 437.79 817.67 429.48 C 821.07 428.24 824.51 427.15 827.93 425.95 C 830.45 425.04 832.96 424.09 835.49 423.16 C 835.62 425.75 835.64 428.36 836.16 430.91 C 836.78 449.77 836.28 468.65 836.47 487.51 C 882.34 487.47 928.21 487.51 974.08 487.50 C 987.03 487.37 999.99 488.11 1012.95 487.51 C 1051.07 487.51 1089.19 487.43 1127.31 487.55 C 1126.58 492.45 1126.90 497.41 1126.81 502.35 C 1067.55 502.64 1008.28 502.49 949.02 502.52 C 911.49 502.57 873.98 502.54 836.46 502.28 C 836.44 551.27 836.46 600.27 836.45 649.27 C 852.93 651.02 869.88 646.91 886.03 651.68 C 884.51 656.75 879.80 659.65 877.07 663.96 C 870.79 672.89 869.55 684.07 868.65 694.65 C 863.99 695.69 859.19 695.26 854.47 695.32 C 854.39 689.98 854.41 684.63 854.45 679.29 C 710.77 679.19 567.09 679.24 423.41 679.27 C 423.45 684.62 423.46 689.97 423.41 695.32 C 418.74 695.33 414.07 695.31 409.39 695.35 C 408.88 688.52 408.28 681.60 405.85 675.14 C 402.39 665.12 395.88 656.38 387.83 649.56 C 404.20 649.22 420.58 649.73 436.95 649.31 C 442.95 648.19 448.98 649.52 454.99 648.73 C 458.66 649.22 462.33 649.88 466.06 649.68 C 477.87 649.31 489.70 649.50 501.52 649.46 C 501.63 593.31 501.16 537.17 501.34 481.02 C 501.77 463.34 501.30 445.64 501.58 427.96 C 501.45 425.45 503.88 424.15 505.41 422.60 M 507.46 441.52 C 507.49 442.47 507.56 444.39 507.60 445.35 C 508.96 446.62 510.45 447.75 512.02 448.77 C 513.14 447.54 515.39 446.87 515.45 444.98 C 516.01 442.74 514.17 441.12 513.12 439.41 C 510.95 439.31 508.78 439.59 507.46 441.52 M 822.46 442.15 C 821.48 445.79 825.88 447.23 828.28 448.74 C 829.07 446.88 830.35 445.10 830.35 443.02 C 829.94 441.67 829.02 440.58 828.31 439.41 C 826.09 439.40 822.94 439.35 822.46 442.15 Z" />
<path fill="#188aec" opacity="1.00" d=" M 187.91 448.60 C 192.76 448.10 197.68 448.12 202.52 448.73 C 205.84 449.35 206.13 453.25 206.35 455.97 C 206.45 466.48 206.33 476.99 206.40 487.50 C 220.27 487.46 234.14 487.55 248.02 487.46 C 258.67 486.98 269.36 486.41 280.02 487.23 C 298.00 487.35 315.99 487.62 333.98 487.49 C 353.96 488.13 373.95 487.36 393.94 487.49 C 409.98 487.60 426.01 487.19 442.05 487.22 C 450.69 486.30 459.35 487.40 468.00 487.48 C 477.77 487.53 487.53 487.46 497.30 487.51 C 497.34 492.53 497.40 497.57 496.81 502.57 C 400.00 502.34 303.19 502.82 206.39 502.29 C 206.37 551.41 206.40 600.52 206.37 649.63 C 210.69 649.39 215.01 649.44 219.33 649.47 C 212.06 655.66 206.02 663.30 202.23 672.10 C 201.84 673.10 201.46 674.11 201.08 675.13 C 198.40 681.56 198.16 688.52 197.69 695.38 C 196.22 695.33 194.76 695.30 193.30 695.26 L 192.30 694.61 C 189.46 692.43 185.71 693.03 182.37 692.94 C 182.36 688.40 182.34 683.87 182.41 679.35 C 180.00 678.67 177.46 678.39 175.03 679.12 C 170.48 679.05 165.73 679.87 161.32 678.72 C 159.81 675.15 160.98 670.85 160.62 667.01 C 160.21 661.11 161.42 655.31 161.36 649.44 C 165.06 649.45 168.75 649.42 172.45 649.57 C 172.56 646.56 172.64 643.55 172.76 640.55 C 177.36 640.41 181.96 640.46 186.56 640.49 C 186.37 623.17 186.41 605.86 186.42 588.55 C 188.17 588.48 189.97 588.49 191.66 587.95 C 194.81 586.54 195.04 581.60 192.15 579.80 C 190.39 578.89 188.33 579.06 186.42 578.95 C 186.40 539.62 186.42 500.28 186.41 460.95 C 186.32 456.77 187.31 452.70 187.91 448.60 M 195.16 465.15 C 193.86 466.82 192.52 468.46 191.19 470.11 C 193.25 471.57 195.39 472.97 197.83 473.72 C 198.63 472.76 199.44 471.81 200.26 470.87 C 200.33 470.04 200.45 468.36 200.51 467.53 C 198.90 466.36 197.18 465.32 195.16 465.15 Z" />
<path fill="#188aec" opacity="1.00" d=" M 1136.73 474.77 C 1141.33 473.45 1146.35 474.38 1150.33 476.99 C 1152.02 482.84 1151.16 489.02 1151.38 495.03 C 1151.62 546.81 1151.06 598.59 1151.60 650.37 C 1153.57 649.69 1155.61 649.35 1157.69 649.13 C 1157.70 652.92 1157.68 656.70 1157.69 660.50 C 1162.28 660.52 1166.86 660.52 1171.46 660.50 C 1171.45 648.68 1171.95 636.86 1171.57 625.04 C 1171.19 614.90 1171.67 604.76 1171.64 594.62 C 1168.64 594.59 1165.64 594.47 1162.66 594.35 C 1162.69 572.33 1162.71 550.31 1162.65 528.29 C 1165.61 527.73 1168.63 527.51 1171.65 527.31 C 1171.59 519.62 1171.36 511.92 1171.43 504.22 C 1176.24 504.18 1181.06 504.19 1185.89 504.21 C 1185.67 508.03 1185.61 511.85 1185.65 515.67 C 1212.10 515.70 1238.55 515.68 1265.01 515.69 C 1272.32 515.87 1279.70 515.64 1286.92 517.07 C 1294.31 518.51 1301.68 520.12 1308.96 522.09 C 1314.93 523.49 1320.89 524.95 1326.86 526.37 C 1329.55 526.88 1331.25 529.24 1332.55 531.47 C 1343.68 551.38 1354.93 571.23 1366.10 591.12 C 1366.56 593.72 1366.63 596.37 1367.13 598.98 C 1367.71 613.68 1367.25 628.38 1367.17 643.08 C 1366.79 645.00 1366.73 646.96 1367.07 648.90 C 1367.18 650.37 1367.32 651.87 1367.46 653.36 C 1369.61 653.26 1371.77 653.15 1373.93 652.87 C 1374.73 652.83 1376.33 652.76 1377.13 652.72 C 1377.69 652.93 1378.81 653.34 1379.38 653.55 C 1379.53 661.78 1379.54 670.02 1379.36 678.25 C 1375.29 678.28 1371.23 678.28 1367.18 678.23 C 1367.27 681.89 1367.42 685.56 1367.41 689.23 C 1349.03 689.52 1330.65 689.00 1312.28 689.53 C 1312.32 692.59 1312.33 695.64 1312.43 698.71 C 1308.59 699.83 1304.54 699.20 1300.62 699.34 C 1301.32 689.11 1300.42 678.48 1295.79 669.19 C 1292.16 661.98 1286.96 655.47 1280.43 650.70 C 1265.09 639.44 1243.11 638.03 1226.61 647.63 C 1215.24 654.17 1206.58 665.29 1203.29 678.02 C 1201.12 684.97 1201.14 692.29 1201.29 699.49 C 1197.66 699.32 1194.04 699.33 1190.43 699.33 C 1190.28 695.70 1190.08 692.07 1189.60 688.48 C 1158.64 688.48 1127.69 688.50 1096.74 688.47 C 1096.70 690.75 1096.69 693.05 1096.66 695.35 C 1091.89 695.32 1087.13 695.31 1082.38 695.35 C 1082.56 689.17 1081.70 683.00 1079.97 677.08 C 1076.50 667.14 1070.73 657.86 1062.68 651.00 C 1062.56 650.65 1062.30 649.96 1062.18 649.61 C 1085.32 649.62 1108.46 649.85 1131.60 649.43 C 1131.62 592.91 1130.98 536.37 1131.68 479.85 C 1132.06 477.23 1134.38 475.55 1136.73 474.77 M 1136.32 496.79 C 1138.22 498.13 1140.12 499.47 1142.05 500.79 C 1143.21 498.85 1145.60 497.27 1145.49 494.81 C 1144.54 493.42 1143.25 492.33 1142.04 491.21 C 1139.55 492.41 1137.68 494.42 1136.32 496.79 M 1262.63 547.55 C 1262.51 564.26 1262.39 580.96 1262.63 597.67 C 1291.27 597.85 1319.92 597.73 1348.56 597.73 C 1339.08 581.34 1329.45 565.03 1318.97 549.25 C 1317.95 547.53 1315.72 547.74 1314.04 547.62 C 1296.90 547.39 1279.77 547.75 1262.63 547.55 M 1262.67 615.48 C 1262.65 616.48 1262.61 618.50 1262.60 619.50 C 1263.18 619.66 1264.34 619.98 1264.92 620.14 C 1267.61 619.83 1270.34 619.71 1273.07 619.89 C 1278.54 620.43 1284.04 619.32 1289.51 620.25 C 1289.64 618.70 1289.77 617.15 1289.89 615.60 C 1280.82 615.26 1271.74 615.47 1262.67 615.48 Z" />
<path fill="#188aec" opacity="1.00" d=" M 275.00 648.59 C 277.93 649.18 280.90 649.53 283.90 649.52 C 299.51 649.35 315.12 649.56 330.74 649.40 C 316.45 659.91 308.27 677.70 308.75 695.35 C 305.26 695.31 301.77 695.31 298.28 695.38 C 297.62 689.62 297.77 683.73 295.91 678.17 C 292.77 666.16 284.78 655.99 275.00 648.59 Z" />
<path fill="#188aec" opacity="1.00" d=" M 233.08 652.10 C 243.02 648.14 254.40 648.27 264.17 652.67 C 274.48 657.53 283.15 666.11 287.13 676.90 C 287.47 677.92 287.81 678.95 288.17 679.99 C 288.48 681.95 288.79 683.92 289.22 685.87 C 289.83 690.98 289.15 696.08 288.26 701.12 C 284.69 713.64 275.31 724.29 263.24 729.22 C 253.77 733.19 242.76 732.92 233.19 729.44 C 220.27 724.44 210.11 712.63 207.43 699.00 C 205.65 690.92 206.87 682.41 209.77 674.75 C 214.03 664.43 222.83 656.32 233.08 652.10 M 231.50 674.43 C 226.91 679.00 224.66 685.64 225.14 692.06 C 224.89 700.62 230.97 708.09 238.34 711.76 C 243.86 714.58 250.46 714.15 256.24 712.39 C 260.79 710.23 265.24 707.33 267.79 702.86 C 270.89 697.30 272.60 690.42 270.30 684.26 C 267.64 675.97 260.23 670.15 252.13 667.65 C 244.59 666.39 236.92 669.20 231.50 674.43 Z" />
<path fill="#188aec" opacity="1.00" d=" M 344.06 652.02 C 354.29 647.94 366.00 648.46 375.94 653.14 C 385.19 657.63 393.20 665.16 397.20 674.74 C 398.87 678.60 399.33 682.79 400.16 686.87 C 400.65 695.88 398.83 705.22 393.81 712.83 C 386.55 724.14 373.62 732.15 360.00 732.02 C 348.12 732.70 336.38 727.22 328.40 718.56 C 322.59 712.75 319.54 704.87 317.77 696.99 C 317.44 692.97 317.45 688.94 317.71 684.92 C 319.84 674.70 324.79 664.68 333.23 658.25 C 336.50 655.63 340.23 653.68 344.06 652.02 M 350.93 668.88 C 343.90 671.62 338.20 677.66 336.65 685.14 C 334.16 693.60 337.43 703.24 344.36 708.66 C 349.58 713.67 357.20 714.51 364.05 713.33 C 372.87 710.78 380.92 703.58 381.81 694.03 C 384.89 678.71 368.77 664.95 354.04 667.70 C 353.00 668.10 351.97 668.49 350.93 668.88 Z" />
<path fill="#188aec" opacity="1.00" d=" M 904.81 651.66 C 914.65 648.24 925.67 648.46 935.23 652.69 C 943.63 656.81 951.01 663.21 955.50 671.48 C 960.94 681.61 961.63 694.01 957.85 704.81 C 952.80 718.76 939.75 729.41 925.13 731.74 C 918.41 732.36 911.44 732.23 905.06 729.85 C 891.23 724.97 880.65 712.23 878.06 697.85 C 876.90 691.87 877.43 685.72 878.77 679.82 C 882.46 666.98 892.32 656.37 904.81 651.66 M 910.81 668.77 C 899.82 673.01 893.23 686.10 896.69 697.40 C 898.69 704.84 904.89 710.69 912.16 713.00 L 912.79 713.39 C 917.86 714.03 923.09 713.92 927.91 712.03 C 934.50 708.89 940.17 703.20 941.55 695.83 C 944.69 684.61 936.63 673.03 926.41 668.85 C 921.47 666.65 915.86 667.34 910.81 668.77 Z" />
<path fill="#188aec" opacity="1.00" d=" M 947.80 649.52 C 966.45 649.27 985.11 649.72 1003.76 649.28 C 990.09 660.31 981.32 677.56 982.33 695.30 C 978.51 695.29 974.69 695.44 970.88 695.26 C 969.01 695.63 968.66 693.35 968.80 692.05 C 968.97 675.55 960.01 660.11 947.80 649.52 Z" />
<path fill="#188aec" opacity="1.00" d=" M 1236.07 652.05 C 1245.62 648.43 1256.37 648.31 1265.90 652.09 C 1273.37 655.35 1280.35 660.21 1285.05 666.96 C 1291.12 675.29 1293.34 686.00 1292.29 696.15 C 1290.06 713.08 1276.43 727.70 1259.78 731.36 C 1249.37 733.19 1238.09 731.84 1229.19 725.81 C 1215.84 717.61 1208.13 701.57 1209.77 686.02 C 1211.81 671.05 1222.07 657.74 1236.07 652.05 M 1234.46 674.45 C 1225.35 683.84 1226.17 701.31 1237.00 709.09 C 1243.12 714.19 1251.82 715.06 1259.19 712.40 C 1265.06 709.59 1270.47 705.08 1272.85 698.86 C 1276.11 691.07 1274.20 681.61 1268.44 675.49 C 1262.82 669.65 1254.31 666.07 1246.20 667.91 C 1241.85 669.11 1237.70 671.28 1234.46 674.45 Z" />
<path fill="#188aec" opacity="1.00" d=" M 1017.10 652.07 C 1024.38 649.38 1032.27 648.49 1039.93 649.89 C 1053.12 652.93 1065.03 662.02 1070.49 674.53 C 1073.43 681.12 1073.95 688.49 1073.43 695.60 C 1071.23 716.02 1051.71 733.49 1030.96 732.02 C 1014.75 732.08 999.94 720.85 993.73 706.19 C 992.43 702.53 991.48 698.77 990.90 694.94 C 990.71 692.59 990.68 690.23 990.71 687.89 C 991.36 684.25 991.90 680.59 993.09 677.08 C 997.27 665.93 1006.12 656.69 1017.10 652.07 M 1027.08 667.92 C 1021.34 669.71 1015.75 673.10 1012.72 678.46 C 1008.23 685.87 1007.92 695.91 1012.77 703.23 C 1016.73 708.87 1022.88 713.59 1030.03 713.72 C 1037.39 714.34 1044.88 711.25 1049.78 705.75 C 1053.71 701.53 1055.48 695.65 1055.63 689.98 C 1055.12 676.25 1040.56 664.74 1027.08 667.92 Z" />
<path fill="#188aec" opacity="1.00" d=" M 910.77 686.56 C 912.70 683.28 916.57 681.89 920.17 681.41 C 923.97 683.17 927.67 686.51 927.52 691.05 C 928.34 698.06 918.21 702.55 913.40 697.58 C 910.33 694.90 909.41 690.34 910.77 686.56 Z" />
<path fill="#188aec" opacity="1.00" d=" M 1024.41 686.41 C 1026.48 683.17 1030.33 681.20 1034.19 681.52 C 1037.66 683.44 1041.14 686.62 1040.85 690.97 C 1041.70 697.23 1033.62 701.93 1028.39 698.77 C 1026.06 697.64 1024.99 695.16 1023.60 693.15 C 1023.68 690.91 1022.98 688.35 1024.41 686.41 Z" />
<path fill="#188aec" opacity="1.00" d=" M 1249.77 681.63 C 1250.59 681.61 1251.42 681.60 1252.26 681.60 C 1256.23 683.02 1259.96 686.37 1259.83 690.91 C 1260.47 696.03 1255.17 700.43 1250.27 699.63 C 1245.43 698.83 1241.57 693.89 1242.45 688.96 C 1242.82 685.07 1246.60 683.06 1249.77 681.63 Z" />
<path fill="#188aec" opacity="1.00" d=" M 245.90 681.66 C 246.77 681.63 248.52 681.59 249.39 681.57 C 253.28 683.08 256.63 686.57 256.61 690.95 C 257.41 697.13 249.41 702.01 244.17 698.78 C 240.40 696.53 238.36 691.72 239.67 687.48 C 240.73 684.66 243.50 683.17 245.90 681.66 Z" />
<path fill="#188aec" opacity="1.00" d=" M 354.75 682.48 C 357.92 682.39 361.64 681.43 364.25 683.80 C 367.67 686.21 368.61 691.05 366.93 694.77 C 365.21 697.88 361.62 699.81 358.08 699.56 C 354.79 699.51 352.10 696.93 350.68 694.17 C 349.07 689.80 351.08 685.08 354.75 682.48 Z" />
</g>
<g id="#a0a1a6ff">
<path fill="#a0a1a6" opacity="1.00" d=" M 101.14 579.26 C 108.40 578.63 115.73 579.20 123.01 578.98 C 125.48 579.12 128.62 578.41 130.37 580.66 C 132.89 583.38 130.83 588.61 126.97 588.44 C 118.66 588.52 110.32 588.61 102.01 588.39 C 97.23 588.13 96.62 580.48 101.14 579.26 Z" />
<path fill="#a0a1a6" opacity="1.00" d=" M 137.18 583.96 C 136.92 581.35 139.26 578.86 141.89 579.04 C 156.73 578.91 171.58 579.09 186.42 578.95 C 188.33 579.06 190.39 578.89 192.15 579.80 C 195.04 581.60 194.81 586.54 191.66 587.95 C 189.97 588.49 188.17 588.48 186.42 588.55 C 171.61 588.41 156.79 588.59 141.98 588.46 C 139.49 588.64 137.14 586.45 137.18 583.96 Z" />
<path fill="#a0a1a6" opacity="1.00" d=" M 16.29 636.42 C 19.42 635.66 22.75 635.90 25.94 636.19 C 30.33 637.13 30.40 644.16 26.06 645.27 C 23.03 645.65 19.92 645.65 16.89 645.27 C 12.91 644.18 12.53 638.05 16.29 636.42 Z" />
<path fill="#a0a1a6" opacity="1.00" d=" M 37.34 636.34 C 45.85 635.57 54.49 636.17 63.06 636.03 C 67.12 635.51 69.55 640.94 66.90 643.83 C 65.25 645.91 62.38 645.41 60.05 645.51 C 52.67 645.33 45.27 645.77 37.91 645.30 C 33.76 644.32 33.40 637.87 37.34 636.34 Z" />
<path fill="#a0a1a6" opacity="1.00" d=" M 76.34 636.43 C 77.82 635.85 79.45 636.03 81.00 635.98 C 96.07 636.07 111.13 635.91 126.19 636.05 C 129.97 635.84 132.12 640.90 129.73 643.66 C 128.23 645.83 125.36 645.45 123.07 645.51 C 108.05 645.40 93.03 645.61 78.01 645.41 C 73.31 645.41 72.11 638.19 76.34 636.43 Z" />
<path fill="#a0a1a6" opacity="1.00" d=" M 79.12 693.26 C 82.33 692.80 85.64 692.79 88.85 693.27 C 92.70 694.60 92.76 700.67 88.96 702.12 C 85.74 702.73 82.36 702.68 79.13 702.18 C 75.18 700.84 75.18 694.58 79.12 693.26 Z" />
<path fill="#a0a1a6" opacity="1.00" d=" M 100.22 693.22 C 108.82 692.74 117.48 693.05 126.09 693.06 C 130.07 692.90 131.94 698.50 129.14 701.08 C 127.58 702.80 125.09 702.41 123.01 702.51 C 115.68 702.37 108.35 702.67 101.03 702.37 C 96.23 702.09 95.62 694.36 100.22 693.22 Z" />
<path fill="#a0a1a6" opacity="1.00" d=" M 136.20 698.01 C 135.89 695.38 138.24 692.81 140.90 693.03 C 154.72 692.90 168.55 693.11 182.37 692.94 C 185.71 693.03 189.46 692.43 192.30 694.61 C 194.72 697.77 192.14 703.05 187.99 702.46 C 172.31 702.48 156.63 702.53 140.95 702.44 C 138.51 702.58 136.21 700.45 136.20 698.01 Z" />
</g>
</svg>
