<svg xmlns="http://www.w3.org/2000/svg" width="106" height="28" fill="none" xmlns:v="https://vecta.io/nano"><path d="M12.787.057c3.496-.326 7.098.757 9.85 2.934 1.912 1.501 3.428 3.501 4.34 5.754a14 14 0 0 1 .63 8.544c-.606 2.516-1.932 4.854-3.783 6.665-1.855 1.842-4.241 3.143-6.795 3.704-1.405.297-2.856.432-4.287.274-2.304-.205-4.554-.994-6.477-2.28a14.05 14.05 0 0 1-4.846-5.525C-.097 17.055-.416 13.419.547 10.13a14.03 14.03 0 0 1 4.986-7.268A13.94 13.94 0 0 1 12.787.057zm.002 1.054c-3.341.297-6.523 1.977-8.676 4.542-1.608 1.894-2.655 4.26-2.959 6.726-.296 2.322.055 4.724 1.011 6.861a13.05 13.05 0 0 0 4.736 5.573 12.9 12.9 0 0 0 11.652 1.299c2.313-.866 4.359-2.418 5.834-4.398 1.801-2.394 2.719-5.433 2.546-8.423a12.9 12.9 0 0 0-1.891-6.051 13.07 13.07 0 0 0-5.689-5.029 12.92 12.92 0 0 0-6.564-1.102zm-.501 11.485l-.011-3.745 6.922 2.616-.001 3.716-.273-.078-6.637-2.51zm-3.479 3.609l6.912 2.609v3.506c.027.127-.125.215-.228.144l-6.687-2.532.004-3.728z" fill="#188aec"/><path d="M13.541 5.507c.403-.099.847-.083 1.223.106a1.71 1.71 0 0 1 .973 1.454 1.74 1.74 0 0 1-.613 1.415c-.448.371-1.086.5-1.639.311a1.72 1.72 0 0 1-1.181-1.65c-.006-.739.529-1.435 1.237-1.636zm-1.269 7.7l3.472 1.314.009 3.71-3.465-1.283-.017-3.741z" fill="#dea412"/><path d="M51.776 5.164a5.7 5.7 0 0 1 3.587.292l-.457 1.651c-.66-.313-1.397-.471-2.127-.419-.347.031-.725.144-.94.438-.226.306-.16.775.138 1.011.387.318.874.476 1.331.662.696.261 1.403.595 1.889 1.177.58.69.662 1.701.349 2.526-.267.706-.88 1.235-1.573 1.504-.867.34-1.825.381-2.742.269-.593-.08-1.186-.22-1.723-.49l.418-1.692c.726.356 1.53.573 2.342.562.382-.011.794-.081 1.088-.345a.88.88 0 0 0-.015-1.279c-.433-.381-1.003-.537-1.529-.745-.671-.267-1.335-.642-1.765-1.239-.559-.766-.539-1.865-.041-2.657.392-.629 1.063-1.039 1.769-1.228zm30.209.158c.911-.326 1.901-.382 2.856-.266.451.059.906.152 1.321.346l-.42 1.627c-.719-.292-1.516-.403-2.285-.293-.67.097-1.32.426-1.732.971-.478.619-.623 1.431-.586 2.197.031.708.262 1.436.77 1.949.485.501 1.184.743 1.871.78.665.034 1.337-.066 1.966-.285l.309 1.597c-.645.283-1.359.354-2.056.386-1.195.043-2.456-.193-3.421-.937-.864-.652-1.388-1.681-1.537-2.741-.17-1.213.004-2.513.67-3.56.523-.832 1.351-1.449 2.274-1.772zm10.996-.271c1.249-.176 2.614.098 3.57.958 1.031.912 1.48 2.332 1.447 3.679-.01 1.286-.418 2.632-1.379 3.529-.987.938-2.434 1.252-3.757 1.075-1.001-.127-1.957-.635-2.582-1.433-.804-1.007-1.084-2.348-.982-3.612.084-1.123.517-2.245 1.326-3.045.63-.632 1.477-1.029 2.357-1.151zm.287 1.612c-.708.118-1.255.687-1.514 1.332-.358.878-.394 1.873-.192 2.793.136.575.412 1.143.885 1.516a1.97 1.97 0 0 0 2.256.097c.483-.323.786-.854.948-1.4a4.9 4.9 0 0 0 .114-2.187c-.12-.659-.397-1.323-.923-1.76-.43-.363-1.026-.496-1.574-.392zM40.472 5.151l2.691.001 2.805 9.04c-.735-.002-1.47.001-2.205-.002l-.701-2.315-2.588.001-.646 2.315h-2.124l2.767-9.041zm.871 3.149l-.572 2.048 1.998-.001-1.03-3.692-.396 1.645zm18.436-3.149h5.589l-.001 1.673-3.535.001-.001 1.873 3.332-.001.002 1.667c-1.112.001-2.223-.002-3.335.001v2.145l3.724.002v1.674h-5.775V5.151zm9.257-.006h6.96l.001 1.72-2.474.002-.001 7.32c-.684-.001-1.367-.002-2.05 0l-.002-7.321c-.812-.001-1.623.002-2.434-.001v-1.72z" fill="#188aec"/><path d="M37 17.817h1.493l1.042 2.496 1.025-2.495h1.468l-1.884 3.329-.017 2.416h-1.301v-2.236c.013-.149-.089-.269-.15-.395L37 17.817zm14.763 0l1.721.006 1.782 5.741h-1.405l-.446-1.473c-.55-.001-1.099.001-1.648-.001l-.413 1.474c-.451.001-.903-.001-1.354.001l1.763-5.747zm.191 3.293h1.272l-.657-2.328-.614 2.327zm12.639-3.214a12.12 12.12 0 0 1 2.188-.107c.71.033 1.45.192 2.014.651.525.407.824 1.053.887 1.706.089.86-.076 1.796-.654 2.468-.459.546-1.161.813-1.847.931-.855.14-1.729.097-2.588.004v-5.654zm1.31.929v3.771c.607.056 1.282.024 1.776-.376.484-.384.648-1.034.643-1.627.008-.534-.16-1.113-.6-1.45-.511-.397-1.206-.415-1.819-.319zM80.3 17.822l1.72-.005 1.79 5.746h-1.408l-.443-1.471c-.551-.002-1.101-.002-1.652 0l-.41 1.472h-1.356l1.759-5.741zm.81.95l-.613 2.339 1.272.001-.659-2.34zm12.043-.956h1.291l.004 2.565 1.724-2.565h1.604l-1.908 2.446 2.011 3.3c-.512-.001-1.024.007-1.535-.004l-1.397-2.466c-.18.189-.334.399-.502.598v1.873c-.432-.002-.863.005-1.294-.004l.003-5.743z" fill="#dea412"/></svg>