<svg xmlns="http://www.w3.org/2000/svg" width="1920" height="1200" viewBox="0 0 1440 900" xmlns:v="https://vecta.io/nano"><path fill="#0697f7" d="M769.84 187.77c8.1-2.64 17.03-1.5 24.69 1.97 6.72 3.44 12.05 9.28 15.38 16.01 5-4.13 11.6-7.12 18.18-5.5 8.94 1.34 16.38 9.56 16.49 18.65.12 5.47.85 11.55-2.31 16.38-1.65 2.61-4.57 3.88-7.19 5.25a147.96 147.96 0 0 1-5.96-.01l-2.62-2.47 1.27-4.3c2.47-1.75 6.41-1.81 7.82-4.79.3-3.94.49-7.98-.17-11.89-1.53-4.11-5.11-7.62-9.44-8.62-4.13-.6-8.05 1.99-10.71 4.93-2.64 2.73-1.19 7.22-3.73 9.99-1.68 1.77-4.05.79-6.01.24-.66-2.18-1.31-4.38-1.62-6.65-.53-6.49-3.87-12.92-9.33-16.61-2.61-1.95-5.63-3.21-8.51-4.67-4.39-.39-8.81-.43-13.18.03-6.6 2.3-12.96 6.64-15.86 13.21-2 4.15-2.56 8.8-2.6 13.36-2.08 1.16-4.95 3.46-7.15 1.34-2.38-3.51-1.67-8.27-4.16-11.77-1.71-2.96-4.83-4.56-7.72-6.12-3.16-1.93-7.59-2.28-10.36.55-4.76 2.92-8.92 7.95-8.75 13.8-.39 5.57 1.38 11.93-2.32 16.73-3.48 4.51-9.81 4.11-14.89 3.74-2.87-.15-4.39-3.63-3.52-6.16 2.02-3.91 7.23-1.7 10.74-2.16l1.28-2.11c2.77-5.22 1.14-11.47 1.32-17.13 2.96-12.76 18.88-19.99 30.67-14.77 3.72 1.41 6.88 3.92 9.66 6.72 4.3-8.07 11.65-14.79 20.61-17.17z"/><path fill="#469bdd" opacity=".94" d="M725.04 206.28c2.77-2.83 7.2-2.48 10.36-.55-3.46.11-6.9.46-10.36.55z"/><path fill="#348bc1" opacity=".93" d="M707.58 230.12c-.13-5.7-1.01-11.74 1.32-17.13-.18 5.66 1.45 11.91-1.32 17.13z"/><path fill="#1093ed" d="M649.54 233.46c1.85-2.4 5-.84 7.17.2.05 2.32-.19 4.68-1.54 6.65l-4.44.21c-2.52-1.35-3.57-5.08-1.19-7.06z"/><path fill="#0797ec" d="M670.72 232.49c4.76-1.22 9.67-.11 14.51-.24.39 2.39.53 4.82.52 7.24-4.77 1.99-10.1.84-15.11.92-1.32-2.28-2.16-6.05.08-7.92z"/><path fill="#0d94ed" d="M807.32 232.39c2.37-.5 4.82-.18 7.23-.17.91 2.25 2.23 5.27.04 7.22-2.84 2.39-10.03 1.32-9.07-3.44.21-1.32.72-2.76 1.8-3.61z"/><path fill="#0596f6" d="M424.84 241.81c5.87-1.86 12.11-1.19 18.16-1 9.6 2.34 18.85 7.5 24.53 15.78 2.01 2.92 3.65 6.08 5.1 9.32 1.94-.18 3.7-.93 5.12-2.27 4.3-.2 9.03-.88 12.83 1.66 4.48 2.67 8.26 7.76 7.98 13.13-.55 5.15-.08 10.34-.49 15.49-2.03 5.08-6.7 9.41-12.32 9.79-3.13.42-7.31 1.56-9.3-1.72-.06-1.88-.67-5.92 2.39-5.38 2.17.27 4.47.41 6.31-1.03 2.2-1.64 4.71-3.59 5.01-6.53.4-3.63.47-7.35-.15-10.95-.47-2.77-2.99-4.45-5.19-5.84-1.49-.65-3.01-1.56-4.68-1.45-2.96 1.9-5.26 4.62-7.27 7.47l2.71.95c-.57 2.5-2.26 4.31-4.66 5.17-3.57-.65-4.9-4.2-4.88-7.44-.53-10.38-7.49-19.65-16.45-24.5-6.22-3.53-13.77-4-20.66-2.56-12.9 2.73-23.35 14.65-24.02 27.87.07 2.9-.93 5.85-4.05 6.56-1.37-.66-3.33-.66-3.81-2.38-1.33-3.4-1.18-7.19-2.64-10.55-2.49-6.68-8.47-11.52-15.12-13.71-5.55-.84-11.49-.68-16.44 2.24-7.88 4.26-12.78 13.31-12.02 22.25-1.61.79-3.24 1.55-4.9 2.24-2.72-1.07-3.59-3.74-4.04-6.39-.59-2.92-1.74-5.81-3.83-7.97-2.88-3.56-8.08-4.48-12.15-2.55-1.46.71-2.89 1.49-4.42 2.05-1.99.37-3.38 2-3.45 4.02-.43 2.13-.65 4.3-.93 6.47-.75 3.81-.37 7.96-2.55 11.38-3.82 6.08-9.81 11.29-17.15 12.25-4.19 1.24-8.67 1.24-12.74-.44-1.42-2.36-1.34-5.95 1.38-7.32 5.03-.79 10.64.41 15.06-2.77 5.37-3.25 7.18-9.76 7.56-15.64 1.08-4.77 2.01-11.01 7.01-13.24 2.23-.7 4.21-1.93 5.8-3.65 2.56-2.34 6.32-2.3 9.58-2.25 5.38.04 9.85 3.45 14.05 6.41l.73-.14c2.68-3.21 4.78-6.97 8.14-9.59 8.71-6.65 20.86-8.11 31.1-4.43 6.31 2.03 11.24 6.86 14.86 12.28 4.76-10.16 14.12-18.02 24.9-21.09z"/><path d="M315.68 264.27c1.31-2.02 3.35-3.43 5.8-3.65-1.59 1.72-3.57 2.95-5.8 3.65zm269.5 249.89c1.28-4.6 2.13-9.32 3.53-13.88-.03 2.47.12 4.94.11 7.43-.23 2.65-.79 5.26-1.67 7.78-1.52 3.21-1.4 6.76-1.65 10.21-.95 1.9-2.83 3.1-4.33 4.54.23-5.58 2.43-10.8 4.01-16.08z" fill="#51b6ee"/><path d="M325.91 267.51c4.07-1.93 9.27-1.01 12.15 2.55-3.95-1.28-7.98-2.37-12.15-2.55zm-7.87 6.07c.07-2.02 1.46-3.65 3.45-4.02.23 1.64-1.77 4.08-3.45 4.02zm496.79 273.16l35.25-.11c3.35-.14 6.65.73 9.7 2.1l-3.32.06c6.22 9.96 14.12 18.73 20.58 28.54-4.24-2.36-8.67.33-13.08.03l-35.88-.04c-4-.06-8.04.49-12-.2-1.98-.93-1.25-3.44-1.51-5.17.29-8.4.12-16.81.26-25.21zm248.95 159.14c1.41-1.98 3.11-4.22 5.93-3.32l-1.25 1.19-4.68 2.13z" fill="#74cafe"/><path d="M472.87 278.28c2.01-2.85 4.31-5.57 7.27-7.47 1.67-.11 3.19.8 4.68 1.45-3.13.41-6.22 1.13-9.05 2.56l-.19 4.41-2.71-.95zm326.36 263.11l5.29-.86-.07 42.44c-1.81-.48-5.3.77-5.7-1.83-1.03-13.23-.1-26.52.48-39.75z" fill="#6dcaf9"/><path opacity=".97" d="M498.56 278.43l.81.06c.5 5.18.34 10.44-1.3 15.43.41-5.15-.06-10.34.49-15.49zm-244.04 22.95c.33-1.66 1.05-3.2 2-4.59l.56 6.03c7.21 1.14 14.51.54 21.64-.84l-3.54 2.49c-6.45-.43-13.29 1.16-19.45-1.13l-1.21-1.96zm283.5 117.94l2.61-.21 2.31 3.36.85 1.3c-3.02.31-5.4-1.39-5.77-4.45zm41.17 119.71c-1.44-2.17-.08-4.28 1.51-5.83 0 2.04-.42 4.08-1.51 5.83zm-2.07 6.84l.16.99c.34 2.16.49 4.35.42 6.56-.26 3.14-.58 6.32-.16 9.47-1.58-5.48-2.92-11.59-.42-17.02zm-107.29 48.2c3.7-.75 7.77-.89 11.27.73 3.57 2.4 2.54 9.45-1.99 10.09-3.02.59-6.16.52-9.2.1-1.77-.02-2.56-1.74-3.15-3.1 3.83 1.49 8.05 3.58 12.2 1.92 3.25-.96 3.97-6.17.97-7.85-4.38-2.65-9.56-.57-13.79 1.31.89-1.4 1.88-2.99 3.69-3.2zm292.06 15.06l1 .03c5.34.28 10.72.34 16.05-.28-2.18 2.57-6 1.37-8.93 1.74-2.67-.31-6.12.75-8.12-1.49zm141.37 49.16c2.24-4.14 5.94-7.43 10.14-9.5-2.58 3.93-6.18 7.03-10.14 9.5z" fill="#6ba8d3"/><path d="M453.64 296.53c5.59-1.68 11.75-2.11 17.42-.61 3.62 1.92 2.95 7.27-.86 8.52-5.5-.15-11.2.76-16.48-1.18-.36-2.24-.62-4.5-.08-6.73m.22 2.52c-.01 3.06 3.59 4.29 6.15 4.24 3.26-.01 6.66.42 9.83-.49 3.1-.79 2.19-5.88-.77-6.18-4.96-.9-11.39-1.33-15.21 2.43zm53.46 68.56c4.82-.59 9.74-.46 14.58-.02 4.15 1.26 5.15 8.34.84 10.1-4.08 1.35-8.52.43-12.74.69-2.78.28-6.08-1.4-6.36-4.4-.54-2.64 1.28-5.37 3.68-6.37m6.97.83c-2.57.09-5.24.15-7.63 1.19-1.85 1.64-1.66 5.06.01 6.78 4.62 1.42 9.63 1.21 14.36.46 3.31-.25 3.35-4.83 2.04-6.96-2.6-1.63-5.84-1.37-8.78-1.47zm285.96 32.39l3-1.98c.57 1.35 1.06 2.79 1.99 3.97 1.98 1.35 4.55 1.15 6.84 1.52-2.28.22-5.21.3-4.91 3.33-3.8-.33-6.14-3.35-6.92-6.84z" fill="#5ba8d4"/><path fill="#4996d2" opacity=".93" d="M478.84 296.61c1.51-1.99 4.18-2.03 6.31-1.03-1.84 1.44-4.14 1.3-6.31 1.03z"/><path fill="#0597f5" d="M1113.28 298.23c13.32-5.52 29.3-1.98 39.98 7.43 3.92 3.66 6.58 8.38 9.09 13.06 1.74-.41 2.65-2.28 4.14-3.19 5.59-3.78 12.87-4.81 19.37-3.1 9.91 2.38 16.95 12.55 16.53 22.6-.21 4.63.74 9.57-1.41 13.88-2.6 5.53-8.77 9.85-15.04 8.53-2.42-.86-2.41-3.51-2.68-5.63 2.18-3.83 8.16-2.39 9.92-6.65.88-4.27.81-8.76.23-13.06-1.05-6.08-6.07-10.91-12.01-12.21-8.34-.63-16 6.84-16.01 15.12 0 4.13-5.18 3.96-7.81 2.49-.91-4.18-.72-8.58-2.28-12.6-1.47-3.94-3.34-7.81-6.15-10.98-3.35-3.59-7.71-6.05-12.24-7.82-8.5-2.87-18.22-1.89-25.73 3.08-7.35 4.49-12.58 12.31-13.84 20.83l-1.17 7.1-2.16 1.53c-1.66-.2-4.01-.03-4.74-1.89-1.5-4.43-1.4-9.59-4.59-13.31-4.54-6-13.07-8.96-20.18-6.11-4.68 1.6-8.23 5.46-10.23 9.88-3.68 7.07-.4 15.3-2.27 22.74-1.54 4.12-5.3 7.79-9.92 7.72-3.86-.01-8.93 1.35-11.67-2.18-1.45-1.76-.09-3.88.36-5.72 2.49-1.8 5.44.1 8.21-.62 1.6-.42 4.14-.04 4.58-2.18.61-6.35-.41-12.85 1.17-19.12 1.57-7.85 7.32-14.39 14.53-17.67 10.89-5.78 25.15-1.53 32.61 7.88 2.63-3.65 3.85-9.07 8.32-10.89l.48-2.56 2.38-.41c2.6-3.14 6.61-4.42 10.23-5.97z"/><path fill="#1094f0" d="M237.38 296.33c3.51-.59 7.09-1.09 10.66-.54.87 2.02 1.42 4.14 1.48 6.36-3.49 3.1-7.98 1.91-12.05 1.08-.08-2.3-.1-4.6-.09-6.9z"/><path fill="#0899f5" d="M256.44 295.84c6.22-.2 12.48-.66 18.69-.02 2.87.45 2.75 4.03 3.59 6.16-7.13 1.38-14.43 1.98-21.64.84l-.56-6.03-.08-.95z"/><path fill="#039afc" d="M453.86 299.05c3.82-3.76 10.25-3.33 15.21-2.43 2.96.3 3.87 5.39.77 6.18-3.17.91-6.57.48-9.83.49-2.56.05-6.16-1.18-6.15-4.24z"/><path fill="#0b92ee" d="M1172.81 349.69c3.39-2.67 8.83 1.43 6.94 5.31-1.11 3.32-6.87 3.39-7.78-.09-.66-1.79.1-3.6.84-5.22z"/><path fill="#1192f3" d="M1002.79 349.78l3.25-1.14 3.1 1.2c1.08 2.09 1.16 4.32.3 6.51-1.37.69-2.73 1.69-4.34 1.31-2.4-.1-3.01-2.83-3.69-4.63l1.38-3.25z"/><path fill="#0995e8" d="M1013.36 356.45c.23-2.67-.22-7.52 3.68-7.42 2.67-.57 5.47-.19 7.96.96 1.25 1.96.41 4.46.57 6.65-3.95 1.36-8.34 1.44-12.21-.19z"/><path fill="#1693e0" d="M707.09 354.84l4.22-.16.03 6.73c3.1.11 6.31.57 8.72 2.74-2.49 1.65-5.59 1.31-8.42 1.56l-.38 3.34-3.2.32-.54 3.97-.39-7.65c-2.83-.19-7.66.94-8.09-3.1l8.21-1.21-.16-6.54z"/><path d="M436.12 368.34c2.51-1.93 5.72-.55 8.36.31 1.36 3.04 2.01 7.5-1.21 9.62-3.29 2.43-8.02.48-9.75-2.94-.08-2.54.27-5.49 2.6-6.99m2.45 1.27c-2.57 1.46-2.09 4.63-2.29 7.12l5.39-.04c1.06-2.29 2.04-4.63 2.98-6.97-1.8-1.46-4.37-2.08-6.08-.11zm102.06 49.5l3.55-2.2.28 4.24.56-4.39.72 5.21c1.28-1.76 3.14-2.72 5.3-2.82-.58 1.86-1.69 3.45-2.82 5.01a19.32 19.32 0 0 0-1.08 2.13l.62-2.42c-1.43-.98-3.03-1.94-4.82-1.4l-2.31-3.36z" fill="#76a4be"/><path fill="#0398f4" d="M514.29 368.44c2.94.1 6.18-.16 8.78 1.47 1.31 2.13 1.27 6.71-2.04 6.96-4.73.75-9.74.96-14.36-.46-1.67-1.72-1.86-5.14-.01-6.78 2.39-1.04 5.06-1.1 7.63-1.19z"/><path fill="#0196fc" d="M535.66 368.68c1.96-1 4.2-1.21 6.38-1.18l50.99.05c2.42.78 5.35 2.48 4.94 5.48.28 3.7-3.81 5.61-6.98 5.31-16.33-.03-32.66.05-48.99-.04-2.66-.46-6.35.12-7.66-2.85-1.38-2.19-.74-5.25 1.32-6.77z"/><path fill="#dbfcff" d="M438.57 369.61c1.71-1.97 4.28-1.35 6.08.11l-2.98 6.97-5.39.04c.2-2.49-.28-5.66 2.29-7.12z"/><path fill="#5285c1" opacity=".95" d="M708.06 369.37l3.2-.32c.17 2.46-.57 5.29-3.74 4.29l.54-3.97z"/><g fill="#0397fa"><path d="M620.08 391.16c7.33-9.45 20.93-12.96 32.15-9.26 2.74 1.3 6.42-.4 8.4 2.48 13.9 2.86 27.57 6.84 41.28 10.53l70.96 18.59c7.64 2.34 16.1 2.96 22.76 7.78 3.5 2.68 7.17 5.73 8.69 10.02.42 4.96 1.53 9.82 1.87 14.8 0 1.52.67 2.89 1.4 4.21l-.36 3.99c-3.39 8.67-5.08 17.84-7.36 26.82-2.42 7.86-4.35 15.86-6.36 23.83-1.26 5.21-3.34 10.21-3.99 15.56 4.28-2.9 9.13-5.23 14.43-5.05l41.03-.02c6.61.05 13.37.67 19.52 3.29 2.76 1.29 6.07 1.33 8.53 3.26 3.05 2.75 7.04 4.12 9.98 7.04 3.98 2.68 7 6.43 9.92 10.2.6.88 1.39 1.79 1.42 2.94.07 3.34-.52 7.04 1.52 9.96 2.85 4.38 6.98 7.68 10.53 11.46 6.15 6.15 11.29 13.72 19.29 17.67 3.93 2.07 8.75 2.35 12.78.36 5.91 1.78 11.91 3.29 18.01 4.26 5.95 1.25 11.69 3.33 17.64 4.6 5.56 1.25 11.39 2.6 15.85 6.39 8.88 6.95 13.3 17.76 16.61 28.19 2.6 1.24 5.42 1.82 8.25 2.3 1.63.59.88 3.22.94 4.61-1.24 3.45-5.47 3.5-8.52 3.37-1.78 10.51 1.53 21.25-.61 31.76-1.26 7.54-7.59 14.87-15.47 15.36-5.88-1.13-11.97-1.1-17.84.07l-1.13.21c-2.35-6.1-1.58-12.92-4.18-18.94-2.92-7.11-8.4-12.79-14.24-17.6-16.81-12.51-43.43-7.51-54.57 10.22-1.99 2.82-3.28 6.05-5.08 8.98-4.18 3.46-2.22 9.15-3.96 13.62-1.82 3.11-6.11 2.5-9.17 2.82-32.01.01-64.03.13-96.03-.09-5.66.59-11.33.48-16.99.11-10.66.17-21.33.12-31.99-.38-7.97.36-16 .81-23.93-.3-1.48-.2-3.26-.85-3.68-2.43-.81-3.15-1.08-6.5-2.98-9.25-3.23-8.81-7.8-17.69-15.79-23.08-9.04-6.76-20.95-8.34-31.85-6.42-12.67 3.01-23.08 12.79-28.02 24.66l-.62 3.44c-2.02 4.97-.1 11.66-4.7 15.35l-32.4.04c-13.85.66-26.6-10.81-28.23-24.45-.76-7.89.09-15.83-.25-23.73l-.21-1.39c-2.91-.91-5.81-2.09-7.41-4.85l7.74-2.48.1-1.56c.03-2.75-.21-5.49-.32-8.22a41.76 41.76 0 0 1 .18-3.18c.77-1.19 1.58-2.35 2.43-3.48l33.94-.03 92.3.08c3.41-.06 6.81-.54 10.11-1.43-2.91-1.04-5.84-2.08-8.89-2.58-13.39-2.52-26.32-6.97-39.59-9.99-13.91-3.98-28-7.3-41.91-11.25-9.84-2.49-20.89-3.98-28.29-11.65-2.76-3-4.72-6.64-6.18-10.41-.42-3.15-.1-6.33.16-9.47 4.3-2.59 7.35-6.64 10.46-10.48l-3.08-3.01c-2.28 2.64-4.73 5.2-7.8 6.93.03-2.72.42-5.5 1.91-7.83 1.09-1.75 1.51-3.79 1.51-5.83l-.06-2.51.53-.45c1.5-1.44 3.38-2.64 4.33-4.54.25-3.45.13-7 1.65-10.21l2.17 5.27 6.89 1.16c-1.78 6.17-3.11 12.46-4.77 18.65-1.64 5.3-3.76 10.82-2.6 16.45 1.16 3.97 3.6 7.74 7.17 9.95 4.69 2.72 10.15 3.46 15.31 4.89l92.23 24.3c11.21 2.56 22.11 6.31 33.36 8.68 5.95 1.5 13.02.05 17.02-4.83 3.22-4.71 4.1-10.48 5.57-15.87l7.69-29.2 25.06-95.37c1.72-6.06 4.28-12.34 2.83-18.74-1.81-6.29-7.62-10.92-13.92-12.23-19.47-4.64-38.7-10.23-58.11-15.14l-72.63-19.15c-5.88-1.36-13.06-2.23-17.93 2.14-5.27 4.35-6.12 11.55-7.92 17.72l-19.44 74.82c-6.53 1.52-9.49 8.52-15.93 10.2l.34-2.85c-5.82-.25-11.72.46-17.48-.52-4.14-2.12-3.14-9.31 1.56-10.08 6.38-.81 12.86.13 19.28-.24l16.79-64.46c3.29-10 4.07-21.12 10.39-29.88m173.74 143.78l.06 62.03c-.15 3.31.26 6.78-1 9.94-1.55 4.08-4.72 7.32-8.1 9.97-3.88 3.06-9.04 3.59-13.82 3.58-65.53-.06-131.07.04-196.61-.05l.44 4.95c2.03.11 4.17-.14 6.15.5 1.46 1.76 2.25 4.4 1.35 6.6-1.68 2.92-5.41 2.78-8.31 2.92l.05 21.59c.29 7.44 6.12 14.48 13.57 15.58 5.78.46 11.58.04 17.37.21 2.34.05 4.71.83 7.02.08 1.8-.08 3.61-.07 5.43-.05.22-1.47.23-3.11 1.73-3.87-.62-7.01 3.27-13.23 6.96-18.85 8.34-12.11 22.26-19.98 36.83-21.46 14.05-1.07 28.15 4.49 38.43 13.96 7.56 7.66 12.39 17.83 14.17 28.4.11 1.7 2.18 1.63 3.45 1.64l162.55.03c2.34-3.9 2.37-8.65 4.27-12.74 7.01-18.58 26.34-31.67 46.2-31.18 12.46-.13 24.5 5.26 33.57 13.64 8.62 7.64 13.5 18.88 15.01 30.15 3.66.73 7.76 1.1 11.15-.8 3.54-1.71 5.05-5.9 4.96-9.62l.02-26.78c-2.72-.06-5.89.08-7.83-2.16-1.62-1.42-1.96-4.1-.52-5.75 1.46-2.24 4.36-2.32 6.71-2.89-1.85-9.13-7.9-18.03-16.53-21.88l-54.42-14.6c-2.89-.93-5.66-2.23-8.18-3.9-6.08-3.97-9.54-10.57-14.13-15.98-6.69-8.04-12.42-16.82-19.06-24.89-8.14-10.27-20.89-16.21-33.78-17.44l-47.15-.03c-3.92 1.35-8.03 4.62-8.01 9.15m-10.86 12.02c-1.37 2.88-2.21 5.96-2.99 9.04l-11.41 42.93c-1.09 3.81-3.79 6.82-5.67 10.23l-1-.03c2 2.24 5.45 1.18 8.12 1.49 2.93-.37 6.75.83 8.93-1.74 1.67-1.7 3-3.68 4.37-5.61.5-14.09.13-28.2.25-42.3-.1-4.67.26-9.4-.6-14.01z"/><path d="M632.57 679.05c-2-18.56 15.08-35.92 33.43-35.57 11.23-.26 22.66 5.07 28.94 14.53 5.96 7.52 7.85 17.68 6.06 27.01-1.42 6.42-4.97 12.04-8.59 17.44 21.85.65 43.71-.36 65.56.34 1.95.64 4.04.68 6 .01l142.2-.26c-2.47-3.24-4.52-6.77-6.36-10.39-2.16-5.41-3.94-11.28-3.03-17.15 1.17-5.73 2.94-11.43 6.04-16.43l.44-.29c3.96-2.47 7.56-5.57 10.14-9.5 13.17-9.19 32.7-6.32 43.48 5.37 7.73 7.58 10.97 19.17 9.01 29.72-1.01 6.07-3.45 12.16-7.89 16.55-.74.96-1.4 1.97-2.06 2.99 23.67.85 47.36-.12 71.04.36 3.68.05 7.36-.06 11.04-.23l.33-.01c1.35 2.89 1.43 6.05.48 9.09-6.16 1.56-12.55 1.04-18.83 1.12-90.9.01-181.8-.02-272.7.01l-.72-2.5c-37.2-.05-74.42 0-111.62-.08-15.67.65-31.34-.4-47.01.06-36.31.16-72.63-.25-108.93.05-4.23.24-8.4-.62-12.61-.71l-.46-.02c-1.1-3.29.05-7.36 3.91-7.88l165.13.07c2.17 0 4.39.13 6.53-.41-5.56-6.37-9.82-14.6-8.95-23.29m30.91-25.3c-8.23 1.34-15.58 7.01-19.15 14.51-3.41 7.68-2.6 17.13 2.4 23.95 6 8.97 18.22 12.66 28.29 9 9.52-3.37 16.34-13.15 16.21-23.24.3-14.21-13.78-26.33-27.75-24.22m262.64.53c-7.13 2.06-14.01 6.75-16.95 13.79-3.26 7.86-2.26 17.3 2.47 24.37 3.27 4.69 8.44 7.73 13.82 9.42 9.44 2.3 20.5-1.23 25.98-9.49 2.43-4.06 4.72-8.5 4.69-13.35.4-9.82-5.73-19.49-14.71-23.42-4.82-1.93-10.24-2.69-15.3-1.32z"/></g><path fill="#318bc7" d="M806.03 391.27c5.67-2.36 12.78 3.76 10.87 9.75-.67 4.62-5.49 7.19-9.82 7.04l.09-.39c-.3-3.03 2.63-3.11 4.91-3.33 1.07-2.37 2.54-5.12 1.34-7.72-2.25-4.17-9.97-2.69-10.17 2.23l-3 1.98-.36.23c.44-3.87 1.82-8.74 6.14-9.79z"/><path fill="#fcfefd" d="M632.49 396.45c4.87-4.37 12.05-3.5 17.93-2.14l72.63 19.15 58.11 15.14c6.3 1.31 12.11 5.94 13.92 12.23 1.45 6.4-1.11 12.68-2.83 18.74l-25.06 95.37-7.69 29.2c-1.47 5.39-2.35 11.16-5.57 15.87-4 4.88-11.07 6.33-17.02 4.83-11.25-2.37-22.15-6.12-33.36-8.68l-92.23-24.3c-5.16-1.43-10.62-2.17-15.31-4.89-3.57-2.21-6.01-5.98-7.17-9.95-1.16-5.63.96-11.15 2.6-16.45 1.66-6.19 2.99-12.48 4.77-18.65l1.78-5.56 1.45-5.01c.87-3.02 1.54-6.09 2.24-9.16.5-2.05 1.13-4.07 1.73-6.09.69-2.34 1.24-4.72 1.72-7.11l19.44-74.82c1.8-6.17 2.65-13.37 7.92-17.72m49.26 36.28c-1.96 1.65-5.24 3.76-4.44 6.65 2.78 1.25 5.83 1.78 8.79 2.5l.92 5.2c3.31-.19 5.67-2.82 8.73-3.81l-2.11-6.28c.82-3.87 1.55-7.76 1.84-11.7-5.74-.36-9.39 4.57-13.73 7.44m21.6-2.31c-4.7 4.55-5.26 11.64-4.81 17.82 3.37 4.71 12.23 6.59 15.45.75 2.2-4.31 3.61-9.29 3.22-14.15-1.8-5.24-9.35-7.43-13.86-4.42m20.37 11.37c-2.78 2.36-7.06 4.42-6.55 8.72 3.18.62 6.35 1.3 9.52 2.02l-.35 5.2 4.47-.01.79-3.12 4.03-1.01-.01-2.96-2.51-1.31c.86-4.6 2.48-9.08 2.63-13.8-4.89-.08-8.54 3.34-12.02 6.27M639 452.95l13.46 3.83c4.07 1.06 8.24 2.6 12.5 1.68l.59-3.92c-4.07-2.2-8.68-3.04-13.12-4.16-3.83-.85-7.56-2.24-11.5-2.51-2.13.72-1.43 3.36-1.93 5.08m35.48 5.43c-.33 1.34-.62 3.32.92 4.05 4.08 2.08 8.75 2.48 13.12 3.74l30.57 8.14c.86-1.03 2.82-1.66 2.45-3.32.3-1.88-2.06-2.61-3.36-3.34-6.2-2.13-12.72-3.06-19.02-4.81-6.77-1.51-13.23-4.18-20.08-5.36-1.5-.18-3.62-.52-4.6.9m-49.99 3.11c-1.86 4.17-4.68 7.78-7.36 11.45 2.94-.75 6.02-1.16 8.92.03 2.99-1.89 6.2-3.88 7.99-7.03.31-2.71-1.93-4.64-3.79-6.19-1.86-1.73-4.97-.49-5.76 1.74m11.24.96l-.25 3.85c2.71 2.06 6.17 2.51 9.4 3.24 5.5 1.15 10.8 3.53 16.54 3.25l.04-5.04c-6.86-2.27-13.95-3.75-20.92-5.65-1.61-.64-3.25-.11-4.81.35m45.57 14.63c.99.89 1.88 2 3.2 2.46 6.64 2.66 13.76 3.74 20.58 5.82 3.75 1.02 7.74 2.68 11.61 1.22-.42-1.59-.02-3.81-1.84-4.6-5.35-2.51-11.26-3.35-16.9-4.94-4.34-.96-8.58-2.5-13-2.96-2.07-.52-2.67 1.76-3.65 3m64.28-1.53c-.79 1.73-.99 3.61-.92 5.5 7.65 1.55 15.06 5.2 23.03 4.49.08-1.88.1-4.34-1.99-5.16-6.52-2.27-13.27-3.93-20.12-4.83m-113.88.07l-.08 3.58 1.41 1.93c4.71 1.79 9.66 2.94 14.75 2.54-.38-1.88.51-4.76-1.75-5.63-4.62-1.46-9.44-2.69-14.33-2.42m38.73 9.77c-1.29 1.91-1.43 5.23 1.31 5.9 8.92 2.05 17.57 5.42 26.76 6.21l.21-5.16c-6.81-3.03-14.38-3.42-21.34-5.98-2.2-.9-4.6-.97-6.94-.97m-38.98 10.01l45.58 11.77c3.34.82 4.21-3.47 2.29-5.54l-27.09-6.97c-7.03-1.86-13.93-4.36-21.15-5.42-4.21-.05-2.98 5.65.37 6.16m110.17-1c3.53 1.73 7.5 2.24 11.24 3.37 3.52.88 7.04 2.49 10.75 1.82l-.07-4.97c-6.4-2.15-12.95-3.99-19.58-5.24-3.06-1.37-4.68 3.47-2.34 5.02m-10.13 13.03c9.59 1.29 18.55 5.47 28.21 6.42l-.04-5.22c-6.96-2.8-14.29-4.51-21.56-6.3-2.42-.7-4.93-.81-7.42-.78-.47 2.04-.36 4.09.81 5.88m-106.76-3.92l.6 4.87c8.93 2.3 17.69 5.74 26.94 6.46.91-1.4 1.34-3.01 1.59-4.64-2.9-1.2-5.84-2.32-8.93-2.86-6.7-1.41-13.19-4.7-20.2-3.83m70.8 4.21l.23 4.44c6.8 1.9 13.52 4.84 20.77 4.12l-.26-4.42c-6.57-2.49-13.62-5.07-20.74-4.14m-23.07 11.79c1.18 1.27 2.83 1.96 4.49 2.39 5.4 1.44 10.7 3.24 16.13 4.58 6.42 1.48 12.72 3.86 19.4 3.88-.25-1.8.78-4.49-1.26-5.48-5.58-2.23-11.6-3.08-17.37-4.65-6.68-1.46-13.05-4.35-19.96-4.57-.45 1.26-1.77 2.42-1.43 3.85m-49.59 2.8c9.59 3.16 19.54 5.06 29.2 7.98 2.41.79 4.97.51 7.46.3-.06-1.72-.42-3.36-1.13-4.91-7.71-2.4-15.55-4.33-23.39-6.2-4.01-.79-7.9-2.92-12.07-2.38-2.66.23-2.65 4.78-.07 5.21m117.9 1.87c5.32 1.43 11.08 4.37 16.59 2.32l-1.02-4c-4.42-2.53-9.58-2.95-14.44-4.12-3.4-.69-4.69 5.12-1.13 5.8m-70.72 10.38c6.16 2.1 12.36 4.64 19 4.46l.26-4.98c-5.46-1.58-10.82-3.58-16.46-4.42-2.13.76-2.67 2.93-2.8 4.94m-51.65 1.01c6.08 3.09 13.04 3.65 19.51 5.63 13.12 3.1 25.99 7.28 39.14 10.21 3.49 1.09 3.93-2.18 3.48-4.71-7.25-2.95-14.95-4.41-22.46-6.49l-34.56-9.06c-1.52-.37-3.09-.48-4.63-.61-.95 1.39-2.48 3.79-.48 5.03m113.24-4.11c.26 1.61-.29 3.61 1.01 4.91 3.81 1.99 8.14 2.61 12.27 3.66 2.64.77 5.45 1.06 8.11.14l-.12-4.08c-6.96-2.03-13.87-5.04-21.27-4.63m-8.1 12.84c.36 1.96.04 4.85 2.16 5.9 7.71.74 14.84 4.34 22.64 4.67.55-1.28 1.71-2.62 1.01-4.08-1.1-2.35-4.09-2.45-6.27-3.16-6.5-1.21-12.79-4.13-19.54-3.33m-110.46 3.15c1.7 3.62 6.22 3.81 9.64 4.51 5.34 1.28 10.58 3.42 16.2 2.88-.24-1.69-.49-3.36-.79-5.02-6.98-2.23-14.07-4.14-21.29-5.43-1.43.78-2.55 2-3.76 3.06m95.37 7.01c-.01 1.83-.99 4.92 1.61 5.4 9.16 3.23 18.74 4.98 28.08 7.61 2.54.8 5.2.96 7.86.78-.39-1.79.17-4.49-2.13-5.12-6.35-2.47-13.12-3.55-19.64-5.44-5.21-1.33-10.32-3.41-15.78-3.23m-45.66 7.77c7.67 3.02 15.96 4.03 23.82 6.48 6.6 1.61 13.11 4.43 20.04 4.02-.17-1.59.41-3.44-.52-4.83-4.98-2.27-10.47-3.04-15.73-4.42-8.53-1.97-16.79-5.17-25.49-6.29-2.89-.89-4.66 3.63-2.12 5.04m58.74 15.2c4.46 2.45 9.64 2.97 14.44 4.49 2.1.82 4.32.25 6.47-.02l.13-4.02c-6.05-2.28-12.22-4.43-18.61-5.46-2.65-.8-4.8 3.44-2.43 5.01z"/><path fill="#eef9fa" d="M803.25 398.85c.2-4.92 7.92-6.4 10.17-2.23 1.2 2.6-.27 5.35-1.34 7.72-2.29-.37-4.86-.17-6.84-1.52-.93-1.18-1.42-2.62-1.99-3.97z"/><path d="M536.2 424.5l5.08-.48.63 2.18-.29 4.6-3.47.84 1.76-4.82c-1.91.27-3.15-.51-3.71-2.32zm10.94 1.79a19.32 19.32 0 0 1 1.08-2.13l4.11.1-.08 2.33-3.51.27 2.07 4.08a38.74 38.74 0 0 1-4.68.53l-2.76 2.45.02-.6.24-5.51 3.79 3.22-.27-3.86-.01-.88z" fill="#6391ac"/><path d="M541.91 426.2l.77 1.19 4.47-.22.27 3.86-3.79-3.22-.24 5.51c-.94-.7-1.53-1.54-1.77-2.52l.29-4.6zm395.22 154.73l3.75-2.35c5.06 2.76 11.68 2.59 15.6 7.3-6.1-.97-12.1-2.48-18.01-4.26l-1.34-.69z" fill="#cef7fd"/><path fill="#0c94ea" d="M681.75 432.73c4.34-2.87 7.99-7.8 13.73-7.44-.29 3.94-1.02 7.83-1.84 11.7l2.11 6.28c-3.06.99-5.42 3.62-8.73 3.81l-.92-5.2c-2.96-.72-6.01-1.25-8.79-2.5-.8-2.89 2.48-5 4.44-6.65m2.05 4.37c1.69.6 3.44 1 5.19 1.43l.58-6.59c-2.19 1.39-4.47 2.83-5.77 5.16z"/><path fill="#54acce" d="M446.7 427.38c1.66-2.04 4.33.72 4.87 2.54l-3.54.44-1.25 6.09a156.11 156.11 0 0 0-7.8.15l1 2.66 7.42.38.91 7.83 3.17.8c-1.38 1.17-3.03 1.91-4.8 1.16l-.34-8.73c-2.85.04-5.69-.02-8.53-.12l.09-3.9c2.85-.6 5.78-.42 8.68-.38-.14-2.97-.28-5.96.12-8.92z"/><path fill="#1093e6" d="M703.35 430.42c4.51-3.01 12.06-.82 13.86 4.42.39 4.86-1.02 9.84-3.22 14.15-3.22 5.84-12.08 3.96-15.45-.75-.45-6.18.11-13.27 4.81-17.82m3.38 3.19c-3.21 3.09-4.74 7.94-3.83 12.33 1.23 3.26 6.7 3.12 7.87-.11 1.81-3.49 1.79-7.51 1.88-11.34-1.92-.51-3.92-1.51-5.92-.88z"/><path fill="#1097e5" d="M448.03 430.36l3.54-.44c-.18 2.12-.22 4.24-.21 6.37 3.03-.07 6.06.02 9.08.33l-.14 3.68-9.01.33.19 7.64-3.17-.8-.91-7.83-7.42-.38-1-2.66 7.8-.15 1.25-6.09z"/><path d="M683.8 437.1c1.3-2.33 3.58-3.77 5.77-5.16l-.58 6.59-5.19-1.43zM562.48 623.63c.09-2.31.02-4.67.96-6.82l.32 8.22-7.79.73-.92.9c1.2-2.85 4.94-2.37 7.43-3.03zm532.36 78.72c6.89-.19 13.79.18 20.68-.03-6.85 2-13.76-.16-20.68.03z" fill="#b5f3fe"/><path fill="#2295dc" d="M804.32 431.3c1.29 1.69 2.15 3.65 3 5.6.48 4.45.67 8.94.27 13.41-.73-1.32-1.4-2.69-1.4-4.21-.34-4.98-1.45-9.84-1.87-14.8z"/><path fill="#f1fefe" d="M706.73 433.61c2-.63 4 .37 5.92.88-.09 3.83-.07 7.85-1.88 11.34-1.17 3.23-6.64 3.37-7.87.11-.91-4.39.62-9.24 3.83-12.33z"/><path fill="#0f93e9" d="M723.72 441.79c3.48-2.93 7.13-6.35 12.02-6.27-.15 4.72-1.77 9.2-2.63 13.8l2.51 1.31.01 2.96-4.03 1.01-.79 3.12c-1.5-.01-2.99 0-4.47.01l.35-5.2-9.52-2.02c-.51-4.3 3.77-6.36 6.55-8.72m-.28 5.8c1.7.52 3.43 1.01 5.17 1.46l1.55-6.73c-2.43 1.51-4.81 3.13-6.72 5.27z"/><path fill="#c6ffff" d="M723.44 447.59c1.91-2.14 4.29-3.76 6.72-5.27l-1.55 6.73-5.17-1.46z"/><path fill="#0c97ef" d="M639 452.95c.5-1.72-.2-4.36 1.93-5.08 3.94.27 7.67 1.66 11.5 2.51 4.44 1.12 9.05 1.96 13.12 4.16l-.59 3.92c-4.26.92-8.43-.62-12.5-1.68-4.51-1.19-8.97-2.56-13.46-3.83z"/><path fill="#0d98e6" d="M859.76 456.37c3.29.87 5.91 3.06 8.21 5.49 1.97-.96 3.18-2.76 4.53-4.38 1.63-.32 3.3-.08 4.97-.04-.87 3.07-3.19 5.22-5.18 7.55l.06 2.06c-.85.93-1.79 1.77-2.84 2.45-3.04.7-5.09 3.06-7.53 4.77-1.8.6-2.93-1.35-2.63-2.87 1.44-1.88 3.41-3.33 4.61-5.39.29-2.16-2.14-3.25-3.22-4.78-1.48-1.2-.77-3.26-.98-4.86z"/><path fill="#0994f1" d="M674.48 458.38c.98-1.42 3.1-1.08 4.6-.9 6.85 1.18 13.31 3.85 20.08 5.36 6.3 1.75 12.82 2.68 19.02 4.81 1.3.73 3.66 1.46 3.36 3.34.37 1.66-1.59 2.29-2.45 3.32l-30.57-8.14c-4.37-1.26-9.04-1.66-13.12-3.74-1.54-.73-1.25-2.71-.92-4.05z"/><path fill="#edefef" d="M624.49 461.49c.79-2.23 3.9-3.47 5.76-1.74 1.86 1.55 4.1 3.48 3.79 6.19-1.79 3.15-5 5.14-7.99 7.03-2.9-1.19-5.98-.78-8.92-.03 2.68-3.67 5.5-7.28 7.36-11.45z"/><path fill="#0e94f1" d="M635.73 462.45c1.56-.46 3.2-.99 4.81-.35 6.97 1.9 14.06 3.38 20.92 5.65l-.04 5.04c-5.74.28-11.04-2.1-16.54-3.25-3.23-.73-6.69-1.18-9.4-3.24l.25-3.85z"/><path fill="#3592e4" d="M872.35 467.05c1.51 1 2.9 2.18 4.28 3.36-.07 1.43.74 3.77-1.52 3.79-2.7-.22-4.1-2.83-5.6-4.7 1.05-.68 1.99-1.52 2.84-2.45z"/><path fill="#0995f0" d="M681.3 477.08c.98-1.24 1.58-3.52 3.65-3 4.42.46 8.66 2 13 2.96 5.64 1.59 11.55 2.43 16.9 4.94 1.82.79 1.42 3.01 1.84 4.6-3.87 1.46-7.86-.2-11.61-1.22-6.82-2.08-13.94-3.16-20.58-5.82-1.32-.46-2.21-1.57-3.2-2.46z"/><path fill="#0996ed" d="M745.58 475.55c6.85.9 13.6 2.56 20.12 4.83 2.09.82 2.07 3.28 1.99 5.16-7.97.71-15.38-2.94-23.03-4.49-.07-1.89.13-3.77.92-5.5z"/><path fill="#0c95ee" d="M631.7 475.62c4.89-.27 9.71.96 14.33 2.42 2.26.87 1.37 3.75 1.75 5.63-5.09.4-10.04-.75-14.75-2.54l-1.41-1.93.08-3.58z"/><path fill="#0b93f3" d="M670.43 485.39c2.34 0 4.74.07 6.94.97 6.96 2.56 14.53 2.95 21.34 5.98l-.21 5.16c-9.19-.79-17.84-4.16-26.76-6.21-2.74-.67-2.6-3.99-1.31-5.9z"/><path fill="#0898ee" d="M553.71 491c-.44-4.9 7.06-7.32 9.54-3.08 2.49 2.53.07 5.78-1.2 8.23-3.57.9-8.24-1.02-8.34-5.15z"/><path fill="#4aaefd" d="M589.2 499.19c6.44-1.68 9.4-8.68 15.93-10.2-.48 2.39-1.03 4.77-1.72 7.11l-6.31 1.98-.37 7.12 4.95-3.01c-.7 3.07-1.37 6.14-2.24 9.16-3.25-4.21-8.04-7.18-10.24-12.16z"/><path fill="#0797f0" d="M631.45 495.4c-3.35-.51-4.58-6.21-.37-6.16 7.22 1.06 14.12 3.56 21.15 5.42l27.09 6.97c1.92 2.07 1.05 6.36-2.29 5.54l-45.58-11.77z"/><path fill="#0a97f1" d="M741.62 494.4c-2.34-1.55-.72-6.39 2.34-5.02 6.63 1.25 13.18 3.09 19.58 5.24l.07 4.97c-3.71.67-7.23-.94-10.75-1.82-3.74-1.13-7.71-1.64-11.24-3.37z"/><path fill="#059fed" d="M597.1 498.08l6.31-1.98-1.73 6.09-4.95 3.01.37-7.12z"/><path fill="#0891ed" d="M588.71 500.28l.49-1.09c2.2 4.98 6.99 7.95 10.24 12.16l-1.45 5.01-3.63-.52c-1.14-3.15-2.87-6.06-5.54-8.13.01-2.49-.14-4.96-.11-7.43z"/><path fill="#0993ed" d="M731.49 507.43c-1.17-1.79-1.28-3.84-.81-5.88 2.49-.03 5 .08 7.42.78 7.27 1.79 14.6 3.5 21.56 6.3l.04 5.22c-9.66-.95-18.62-5.13-28.21-6.42z"/><path fill="#0b91f2" d="M624.73 503.51c7.01-.87 13.5 2.42 20.2 3.83 3.09.54 6.03 1.66 8.93 2.86-.25 1.63-.68 3.24-1.59 4.64-9.25-.72-18.01-4.16-26.94-6.46l-.6-4.87z"/><path fill="#0695ef" d="M695.53 507.72c7.12-.93 14.17 1.65 20.74 4.14l.26 4.42c-7.25.72-13.97-2.22-20.77-4.12l-.23-4.44z"/><path fill="#38b4fe" d="M588.82 507.71c2.67 2.07 4.4 4.98 5.54 8.13l3.63.52-1.78 5.56-6.89-1.16-2.17-5.27c.88-2.52 1.44-5.13 1.67-7.78z"/><path fill="#0897ef" d="M672.46 519.51c-.34-1.43.98-2.59 1.43-3.85 6.91.22 13.28 3.11 19.96 4.57 5.77 1.57 11.79 2.42 17.37 4.65 2.04.99 1.01 3.68 1.26 5.48-6.68-.02-12.98-2.4-19.4-3.88-5.43-1.34-10.73-3.14-16.13-4.58-1.66-.43-3.31-1.12-4.49-2.39z"/><path fill="#0894f2" d="M622.87 522.31c-2.58-.43-2.59-4.98.07-5.21 4.17-.54 8.06 1.59 12.07 2.38 7.84 1.87 15.68 3.8 23.39 6.2.71 1.55 1.07 3.19 1.13 4.91-2.49.21-5.05.49-7.46-.3-9.66-2.92-19.61-4.82-29.2-7.98z"/><path fill="#0d94ee" d="M740.77 524.18c-3.56-.68-2.27-6.49 1.13-5.8 4.86 1.17 10.02 1.59 14.44 4.12l1.02 4c-5.51 2.05-11.27-.89-16.59-2.32z"/><path fill="#2d86e8" d="M491.53 526.71c2.02-1.07 4.26.01 6.14.89l.61 1.2c-.7 2.05-1.63 4.9-4.32 4.79-3.6.5-5.18-4.9-2.43-6.88z"/><path fill="#fefffe" d="M793.82 534.94c-.02-4.53 4.09-7.8 8.01-9.15l47.15.03c12.89 1.23 25.64 7.17 33.78 17.44 6.64 8.07 12.37 16.85 19.06 24.89 4.59 5.41 8.05 12.01 14.13 15.98 2.52 1.67 5.29 2.97 8.18 3.9l54.42 14.6c8.63 3.85 14.68 12.75 16.53 21.88-2.35.57-5.25.65-6.71 2.89-1.44 1.65-1.1 4.33.52 5.75 1.94 2.24 5.11 2.1 7.83 2.16l-.02 26.78c.09 3.72-1.42 7.91-4.96 9.62-3.39 1.9-7.49 1.53-11.15.8-1.51-11.27-6.39-22.51-15.01-30.15-9.07-8.38-21.11-13.77-33.57-13.64-19.86-.49-39.19 12.6-46.2 31.18-1.9 4.09-1.93 8.84-4.27 12.74l-162.55-.03c-1.27-.01-3.34.06-3.45-1.64-1.78-10.57-6.61-20.74-14.17-28.4-10.28-9.47-24.38-15.03-38.43-13.96-14.57 1.48-28.49 9.35-36.83 21.46-3.69 5.62-7.58 11.84-6.96 18.85-1.5.76-1.51 2.4-1.73 3.87-1.82-.02-3.63-.03-5.43.05-2.31.75-4.68-.03-7.02-.08-5.79-.17-11.59.25-17.37-.21-7.45-1.1-13.28-8.14-13.57-15.58-.23-7.19-.07-14.39-.05-21.59 2.9-.14 6.63 0 8.31-2.92.9-2.2.11-4.84-1.35-6.6-1.98-.64-4.12-.39-6.15-.5l-.44-4.95 196.61.05c4.78.01 9.94-.52 13.82-3.58 3.38-2.65 6.55-5.89 8.1-9.97 1.26-3.16.85-6.63 1-9.94l-.06-62.03m10.7 5.59a84.46 84.46 0 0 0-5.29.86c-.58 13.23-1.51 26.52-.48 39.75.4 2.6 3.89 1.35 5.7 1.83v2.19l3.56 2.71 85.97-.05c2.57-.03 3.34-3.05 4.62-4.76-2.89-7.92-9.25-13.75-13.98-20.54-5.76-6.93-10.29-15.06-17.55-20.58-3.01-2.85-7.26-3.53-10.99-4.96-5.93-1.34-12.08-.71-18.11-.84l-25.96-.06c-2.86.12-7.51.67-7.49 4.45m7.33 71.39c-1.08 2.27-.08 4.83 1.18 6.82 5.37-.27 10.99 1.56 16.16-.57 2.77-2.32.43-7.37-3.07-6.93-4.75.02-9.64-.53-14.27.68z"/><path fill="#0b92ed" d="M670.05 534.56c.13-2.01.67-4.18 2.8-4.94 5.64.84 11 2.84 16.46 4.42l-.26 4.98c-6.64.18-12.84-2.36-19-4.46z"/><path fill="#0995f2" d="M618.4 535.57c-2-1.24-.47-3.64.48-5.03 1.54.13 3.11.24 4.63.61l34.56 9.06c7.51 2.08 15.21 3.54 22.46 6.49.45 2.53.01 5.8-3.48 4.71-13.15-2.93-26.02-7.11-39.14-10.21-6.47-1.98-13.43-2.54-19.51-5.63z"/><path fill="#0796ea" d="M731.64 531.46c7.4-.41 14.31 2.6 21.27 4.63l.12 4.08c-2.66.92-5.47.63-8.11-.14-4.13-1.05-8.46-1.67-12.27-3.66-1.3-1.3-.75-3.3-1.01-4.91z"/><path fill="#0298fb" d="M804.52 540.53c-.02-3.78 4.63-4.33 7.49-4.45l25.96.06c6.03.13 12.18-.5 18.11.84 3.73 1.43 7.98 2.11 10.99 4.96 7.26 5.52 11.79 13.65 17.55 20.58 4.73 6.79 11.09 12.62 13.98 20.54-1.28 1.71-2.05 4.73-4.62 4.76l-85.97.05-3.56-2.71v-2.19l.07-42.44m10.31 6.21l-.26 25.21c.26 1.73-.47 4.24 1.51 5.17 3.96.69 8 .14 12 .2l35.88.04c4.41.3 8.84-2.39 13.08-.03l4.97.32c-1.41-4.39-4.62-7.78-7.43-11.31-4.93-5.88-8.63-12.85-14.8-17.61-3.05-1.37-6.35-2.24-9.7-2.1-11.76.19-23.51-.01-35.25.11z"/><path fill="#3cb0fd" d="M577.28 546.86c3.07-1.73 5.52-4.29 7.8-6.93l3.08 3.01c-3.11 3.84-6.16 7.89-10.46 10.48.07-2.21-.08-4.4-.42-6.56z"/><path fill="#53b1f1" d="M894.35 542.17c5.35 4.94 9.47 10.99 13.8 16.8 4.02 5.26 7.32 11.15 12.32 15.58 4.51 4.41 11.61 2.85 16.66 6.38l1.34.69c-4.03 1.99-8.85 1.71-12.78-.36-8-3.95-13.14-11.52-19.29-17.67-3.55-3.78-7.68-7.08-10.53-11.46-2.04-2.92-1.45-6.62-1.52-9.96z"/><path fill="#0a94ed" d="M723.54 544.3c6.75-.8 13.04 2.12 19.54 3.33 2.18.71 5.17.81 6.27 3.16.7 1.46-.46 2.8-1.01 4.08-7.8-.33-14.93-3.93-22.64-4.67-2.12-1.05-1.8-3.94-2.16-5.9z"/><path fill="#0595ec" d="M613.08 547.45c1.21-1.06 2.33-2.28 3.76-3.06 7.22 1.29 14.31 3.2 21.29 5.43.3 1.66.55 3.33.79 5.02-5.62.54-10.86-1.6-16.2-2.88-3.42-.7-7.94-.89-9.64-4.51z"/><path fill="#d9feff" d="M856.46 548.79l3.32-.06c6.17 4.76 9.87 11.73 14.8 17.61 2.81 3.53 6.02 6.92 7.43 11.31l-4.97-.32c-6.46-9.81-14.36-18.58-20.58-28.54z"/><path fill="#0997f2" d="M708.45 554.46c5.46-.18 10.57 1.9 15.78 3.23 6.52 1.89 13.29 2.97 19.64 5.44 2.3.63 1.74 3.33 2.13 5.12-2.66.18-5.32.02-7.86-.78-9.34-2.63-18.92-4.38-28.08-7.61-2.6-.48-1.62-3.57-1.61-5.4z"/><path fill="#0995f1" d="M662.79 562.23c-2.54-1.41-.77-5.93 2.12-5.04 8.7 1.12 16.96 4.32 25.49 6.29 5.26 1.38 10.75 2.15 15.73 4.42.93 1.39.35 3.24.52 4.83-6.93.41-13.44-2.41-20.04-4.02-7.86-2.45-16.15-3.46-23.82-6.48z"/><path fill="#7da1b7" opacity=".98" d="M412.59 567.02c.48-2.77 3.81-3.02 6.05-3.23-1.48 2.05-4.22 3.68-3.88 6.57l4.39.24.71-5.02c3.81 1.15 2.53 6.88-.89 7.65-3.68 1.65-7.6-2.61-6.38-6.21z"/><path fill="#0798ee" d="M721.53 577.43c-2.37-1.57-.22-5.81 2.43-5.01 6.39 1.03 12.56 3.18 18.61 5.46l-.13 4.02c-2.15.27-4.37.84-6.47.02-4.8-1.52-9.98-2.04-14.44-4.49z"/><path opacity=".93" d="M491.79 594.69c1.71-.45 3.5-.38 5.27-.41l37.96.03c6.23-1.14 6.28 11.03-.05 10.24 1.12-2.03 2.46-4 2.95-6.3-2.46-2.14-5.85-2.59-8.97-2.77-10.31-.51-20.63.07-30.95-.1-1.77.2-4.03-.32-5.31 1.24-1.2 2.17-.83 4.77-1.01 7.17l-2.07-1.69c.1-2.52-.62-6.06 2.18-7.41zm464.15 108.73l2.06-2.99c2.33 1.78 5.29 1.85 8.11 1.98 16.29.32 32.59-.24 48.88-.15 7.51.4 15.04.19 22.56.06l.47 1.23c-3.68.17-7.36.28-11.04.23-23.68-.48-47.37.49-71.04-.36zm113.77-.86c8.36-.33 16.75.11 25.13-.21 6.92-.19 13.83 1.97 20.68-.03l-.03 1.01c-15.67.41-31.36.14-47.03.42l1.25-1.19z" fill="#3c8dc3"/><path fill="#0394fa" d="M466.14 597.27c4.23-1.88 9.41-3.96 13.79-1.31 3 1.68 2.28 6.89-.97 7.85-4.15 1.66-8.37-.43-12.2-1.92l-.33-.13-1.12-4.04.83-.45z"/><path fill="#0497fb" d="M492.69 596.62c1.28-1.56 3.54-1.04 5.31-1.24 10.32.17 20.64-.41 30.95.1 3.12.18 6.51.63 8.97 2.77-.49 2.3-1.83 4.27-2.95 6.3-10.97.25-21.96.11-32.94.15-3.47-.02-7.03.32-10.35-.91.18-2.4-.19-5 1.01-7.17z"/><path fill="#d1ffff" d="M693.51 606.19c3.05.5 5.98 1.54 8.89 2.58-3.3.89-6.7 1.37-10.11 1.43.43-1.31-.07-3.13 1.22-4.01z"/><path fill="#0599e9" d="M811.85 611.92c4.63-1.21 9.52-.66 14.27-.68 3.5-.44 5.84 4.61 3.07 6.93-5.17 2.13-10.79.3-16.16.57-1.26-1.99-2.26-4.55-1.18-6.82z"/><path d="M555.97 625.76l7.79-.73-.1 1.56-7.74 2.48c1.6 2.76 4.5 3.94 7.41 4.85l.21 1.39c-2.69 0-5.9.49-7.84-1.81-1.9-1.82-1-4.61-.65-6.84l.92-.9zm334.2 53.26c1.74-4.47-.22-10.16 3.96-13.62-.49 4.53-1.54 9-1.5 13.58.19 2.8-3.15 4.43-5.58 4.49l-68.06.01c-12.98-.15-25.95.42-38.92-.11-20 .62-40.02-.27-60.02.27-4.18-.18-8.56.39-12.51-1.24-1.85-4.03-2.42-8.52-2.14-12.9 1.9 2.75 2.17 6.1 2.98 9.25.42 1.58 2.2 2.23 3.68 2.43 7.93 1.11 15.96.66 23.93.3 10.66.5 21.33.55 31.99.38 5.66.37 11.33.48 16.99-.11l96.03.09c3.06-.32 7.35.29 9.17-2.82z" fill="#1793dc"/><path fill="#3d98d7" opacity=".98" d="M1006.58 625.06c2.81-.86 6.85-.84 8.25 2.3-2.83-.48-5.65-1.06-8.25-2.3z"/><path fill="#fafefc" d="M663.48 653.75c13.97-2.11 28.05 10.01 27.75 24.22.13 10.09-6.69 19.87-16.21 23.24-10.07 3.66-22.29-.03-28.29-9-5-6.82-5.81-16.27-2.4-23.95 3.57-7.5 10.92-13.17 19.15-14.51m-4.14 22.5c-1.26 4.55 2.85 9.72 7.61 9.4 3.98.5 6.35-3.51 7.54-6.71-.69-2.54-1-5.56-3.45-7.06-4.09-2.98-10.24-.18-11.7 4.37z"/><path fill="#fbfefc" d="M926.12 654.28c5.06-1.37 10.48-.61 15.3 1.32 8.98 3.93 15.11 13.6 14.71 23.42.03 4.85-2.26 9.29-4.69 13.35-5.48 8.26-16.54 11.79-25.98 9.49-5.38-1.69-10.55-4.73-13.82-9.42-4.73-7.07-5.73-16.51-2.47-24.37 2.94-7.04 9.82-11.73 16.95-13.79m-.08 18.8c-2.67 3.28-1.54 7.88.01 11.4 2.63.84 5.37 1.22 8.14 1.15 3.22-2.11 6.46-6.07 4.42-10.07-1.61-5.1-9.2-6.69-12.57-2.48z"/><path fill="#0595f8" d="M659.34 676.25c1.46-4.55 7.61-7.35 11.7-4.37 2.45 1.5 2.76 4.52 3.45 7.06-1.19 3.2-3.56 7.21-7.54 6.71-4.76.32-8.87-4.85-7.61-9.4z"/><path fill="#0698f6" d="M926.04 673.08c3.37-4.21 10.96-2.62 12.57 2.48 2.04 4-1.2 7.96-4.42 10.07-2.77.07-5.51-.31-8.14-1.15-1.55-3.52-2.68-8.12-.01-11.4z"/><path fill="#2b91d6" opacity=".98" d="M973.33 682.53c5.87-1.17 11.96-1.2 17.84-.07-1.53 1.7-4.11.75-6.08 1.04-3.91-.34-8.14.82-11.76-.97z"/><path fill="#0298fc" d="M344.54 705.73c.99-1.1 1.85-2.53 3.43-2.8 9.03-.74 18.11-.21 27.16-.18l2.23.88c2.56 2.99 2.03 9.12-2.35 9.98-8.93.17-17.89.16-26.82.01-3.19-1.14-3.77-4.94-3.65-7.89z"/><path fill="#0697f6" d="M399.08 704.23c3.47-2.48 7.98-1.24 11.94-1.51 8.08.35 16.33-1.2 24.26.85 1.7 2.28 2.38 5.78.32 8.07-1.78 2.36-4.99 2.13-7.62 2.13-9.01-.18-18.04.32-27.03-.42-3.26-1.61-4.35-6.39-1.87-9.12z"/><path fill="#029bf8" d="M1138.29 705.31c.63-1.42 2.15-1.99 3.44-2.65 8.08-.04 16.17-.29 24.26.12l2.28.94c2.4 2.91 1.77 7.32-1.06 9.71-8.06.53-16.14.24-24.21.33-4.28.7-6.95-5.17-4.71-8.45z"/><path fill="#0399fb" d="M1063.78 705.88l4.68-2.13 47.03-.42 2.52.17c1.28 1.98 1.56 4.28 1.46 6.61-2.75 4.71-8.88 3.36-13.43 3.65-12.34-.07-24.69.09-37.02-.07-3.76-.29-4.84-4.75-5.24-7.81z"/><path fill="#1b8beb" opacity=".97" d="M466.41 710.58c4.21.09 8.38.95 12.61.71l108.93-.05c15.67-.46 31.34.59 47.01-.06l111.62.08.72 2.5-275.27.01c-2.4.3-4.29-1.42-5.62-3.19z"/></svg>