<svg width="28" height="28" viewBox="0 0 28 28" fill="none" xmlns="http://www.w3.org/2000/svg">
<path d="M12.7869 0.0571246C16.2832 -0.269031 19.8844 0.813721 22.637 2.99112C24.5486 4.49172 26.0653 6.49204 26.977 8.74504C28.0742 11.4348 28.2962 14.4682 27.6072 17.2895C27.0008 19.8056 25.6753 22.144 23.8246 23.9547C21.9697 25.7968 19.5833 27.0972 17.0296 27.6592C15.6243 27.956 14.1734 28.0911 12.7428 27.9336C10.4384 27.7285 8.18858 26.9397 6.26576 25.6533C4.1994 24.2836 2.50556 22.3568 1.42021 20.1283C-0.0971774 17.055 -0.41578 13.419 0.547029 10.1301C1.36839 7.25354 3.15046 4.66809 5.53333 2.86164C7.61999 1.26376 10.1674 0.278994 12.7869 0.0571246ZM12.789 1.11118C9.44758 1.40794 6.26646 3.08771 4.11257 5.65356C2.50416 7.5475 1.45802 9.91318 1.15342 12.3796C0.857228 14.7019 1.20874 17.1033 2.16455 19.2408C3.16727 21.5001 4.8345 23.457 6.90086 24.8141C8.66333 25.9781 10.7157 26.6969 12.8192 26.8873C14.7567 27.0671 16.7334 26.8019 18.5533 26.1132C20.8661 25.2467 22.9122 23.695 24.3869 21.7157C26.1878 19.3213 27.1058 16.283 26.9329 13.2923C26.8215 11.1597 26.1598 9.06069 25.0416 7.24164C23.6992 5.05234 21.6917 3.27668 19.353 2.21283C17.3118 1.28056 15.0228 0.89701 12.789 1.11118Z" fill="#188AEC"/>
<path d="M12.2878 12.5961C12.2815 11.3474 12.3033 10.0995 12.2773 8.85156C14.586 9.72014 16.8897 10.602 19.1991 11.4678C19.2145 12.7059 19.2145 13.9448 19.1984 15.1836C19.1059 15.1612 19.0149 15.1353 18.9253 15.1059C16.7126 14.2688 14.5027 13.4261 12.2878 12.5961Z" fill="#188AEC"/>
<path d="M8.80936 16.2051C11.118 17.0611 13.4161 17.9471 15.7213 18.8143C15.7213 19.9832 15.722 21.152 15.7206 22.3208C15.7472 22.4482 15.5959 22.5357 15.4923 22.4643C13.2628 21.6223 11.0333 20.7783 8.80516 19.9328C8.79956 18.6904 8.79256 17.4474 8.80936 16.2051Z" fill="#188AEC"/>
<path d="M13.5408 5.50721C13.9434 5.40783 14.3881 5.42462 14.7634 5.6136C15.3229 5.87116 15.7108 6.45348 15.736 7.068C15.7668 7.59993 15.5329 8.14095 15.1233 8.4825C14.6752 8.85345 14.0372 8.98294 13.4841 8.79326C12.788 8.57489 12.2804 7.87429 12.3035 7.14289C12.2979 6.40379 12.8322 5.70808 13.5408 5.50721Z" fill="#DEA412"/>
<path d="M12.2715 13.207C13.4346 13.6284 14.5844 14.0875 15.7439 14.5208C15.7635 15.7575 15.7516 16.9942 15.753 18.2309C14.5921 17.8222 13.4486 17.361 12.2883 16.948C12.2813 15.7015 12.2708 14.4543 12.2715 13.207Z" fill="#DEA412"/>
</svg>
