<svg width="40" height="40" viewBox="0 0 40 40" fill="none" xmlns="http://www.w3.org/2000/svg">
<path d="M21.2142 0.775989C21.312 0.743544 21.4182 0.741322 21.5182 0.7671C21.9173 0.859544 22.3155 0.9551 22.7146 1.04843C22.9515 1.09421 23.1409 1.31377 23.1489 1.5551C23.1582 1.70577 23.0893 1.84443 23.0475 1.98532C22.54 3.54666 22.0306 5.1071 21.5231 6.66843C21.4609 6.88754 21.2551 7.05999 21.0244 7.06399C20.8422 7.0631 20.668 6.99954 20.4911 6.9631C20.3031 6.91999 20.1493 6.76577 20.096 6.58177C20.052 6.44799 20.0906 6.3071 20.108 6.17243C20.352 4.52799 20.5955 2.8831 20.8378 1.23821C20.8595 1.02799 21.0124 0.8391 21.2142 0.775989Z" fill="#7FB8E9"/>
<path d="M30.3767 6.20286C30.558 6.16775 30.7495 6.23175 30.8767 6.36464C31.1527 6.63886 31.4264 6.91486 31.7024 7.18953C31.958 7.39442 31.9807 7.82153 31.7255 8.03531C30.442 9.12375 29.1544 10.2073 27.87 11.2944C27.7718 11.3775 27.6735 11.4704 27.5455 11.5024C27.3558 11.5598 27.1393 11.4975 27.0033 11.3549C26.9007 11.25 26.7918 11.1513 26.6967 11.0402C26.5313 10.8389 26.5482 10.5215 26.7255 10.3331C27.8331 9.02197 28.9402 7.71042 30.0478 6.39975C30.1309 6.29931 30.2469 6.22553 30.3767 6.20286Z" fill="#7FB8E9"/>
<path d="M11.311 7.71261C11.9057 7.17616 12.7297 6.98016 13.5128 6.97705C14.839 6.97705 16.1243 7.3935 17.3292 7.91616C19.1732 8.73483 20.8661 9.8615 22.4337 11.1251C23.7146 12.1633 24.9119 13.3046 26.0177 14.5277C27.2066 15.8473 28.2932 17.2637 29.2101 18.7859C29.9377 20.0011 30.5692 21.2851 30.9626 22.6495C31.2003 23.489 31.3466 24.3686 31.2595 25.2424C31.2021 25.7713 31.0417 26.2993 30.7315 26.7366C30.5879 26.9437 30.4035 27.1175 30.2208 27.2891C29.6412 27.8299 28.9799 28.2877 28.2546 28.6099C27.5421 28.9286 26.7746 29.1104 26.0008 29.1984C24.8652 29.3277 23.7203 29.2864 22.5799 29.3095C21.5772 29.3286 20.5706 29.4068 19.5928 29.6388C18.975 29.7828 18.3857 30.0273 17.8208 30.3126C18.4008 30.5562 18.9461 30.9362 19.2772 31.4811C19.5932 31.9953 19.6977 32.6428 19.5301 33.2255C19.5008 33.3362 19.4448 33.4375 19.3803 33.5317C20.5266 34.2268 21.6128 35.0153 22.7115 35.781C22.947 35.9295 23.1266 36.1668 23.1879 36.4397C23.275 36.7913 23.1559 37.1806 22.8955 37.4299C22.7732 37.5535 22.6128 37.6259 22.4603 37.7028C21.4563 38.2117 20.455 38.7246 19.4483 39.2282C19.0755 39.4148 18.607 39.3917 18.2559 39.1659C18.0266 39.0259 17.8795 38.7948 17.7026 38.5997C16.703 37.4246 15.5866 36.3317 14.2826 35.497C13.7381 35.1433 13.159 34.8473 12.5643 34.5868C12.0559 35.0997 11.3768 35.4255 10.6683 35.5486C9.64612 35.7299 8.5879 35.5442 7.63145 35.1646C6.25012 34.6104 5.04745 33.6486 4.14745 32.469C3.27412 31.3139 2.66345 29.9099 2.64479 28.4455C2.62701 27.4824 2.9279 26.4837 3.60212 25.7771C4.9159 24.4499 6.23279 23.1059 7.28612 21.5566C7.95234 20.5735 8.49323 19.4833 8.70612 18.3068C9.05012 16.6246 8.92212 14.9006 8.99412 13.1975C9.03545 12.2348 9.1679 11.2646 9.51456 10.3602C9.89501 9.35261 10.5337 8.4535 11.311 7.71261ZM13.4901 9.09616C13.1203 9.18327 12.7826 9.42461 12.6146 9.7695C12.395 10.2108 12.4057 10.7246 12.4808 11.2002C12.5946 11.8873 12.8439 12.5437 13.135 13.1735C13.4835 13.9246 13.9035 14.6402 14.3568 15.3322C15.323 16.7939 16.4448 18.1486 17.6532 19.4157C18.7732 20.5859 19.9706 21.6833 21.2492 22.6784C22.4275 23.5899 23.6732 24.4277 25.0239 25.0637C25.7315 25.3868 26.4715 25.6695 27.2501 25.7539C27.739 25.8006 28.2808 25.7575 28.6746 25.4331C29.0443 25.1353 29.1781 24.6393 29.1741 24.1815C29.1701 23.4317 28.9283 22.7077 28.6461 22.021C28.0848 20.7024 27.3048 19.489 26.4563 18.3384C25.4355 16.965 24.2915 15.6855 23.067 14.4913C21.8439 13.3033 20.5386 12.1962 19.1337 11.2282C18.1879 10.5802 17.1977 9.98727 16.1381 9.54416C15.5786 9.31483 14.9977 9.12283 14.395 9.0535C14.0937 9.02283 13.7852 9.02105 13.4901 9.09616ZM11.0808 13.4175C11.0746 14.1304 11.0568 14.8433 11.055 15.5562C11.0341 16.9931 10.9159 18.4468 10.483 19.8242C10.2043 20.6868 9.79768 21.5051 9.31679 22.2722C9.47456 24.0322 10.4155 25.6495 11.683 26.8499C12.8568 27.9593 14.3732 28.7704 16.0021 28.8899C16.0648 28.9068 16.1181 28.8637 16.1692 28.8362C16.8946 28.3948 17.667 28.0273 18.4768 27.7708C19.3879 27.4877 20.3368 27.345 21.2861 27.2686C22.4875 27.1739 23.6941 27.2126 24.8972 27.1611C23.8817 26.7504 22.9052 26.2459 21.9737 25.6708C20.4852 24.7535 19.0986 23.6775 17.8066 22.5019C16.5359 21.3419 15.3537 20.0833 14.2883 18.7326C13.0692 17.1797 11.9866 15.5046 11.2146 13.6828C11.1648 13.5984 11.1732 13.4699 11.0808 13.4175Z" fill="#7FB8E9"/>
<path d="M36.5571 14.9641C36.8375 14.8832 37.1509 15.073 37.2184 15.3543C37.314 15.7752 37.4113 16.1961 37.5006 16.6183C37.5633 16.9041 37.3518 17.2139 37.0624 17.2565C35.3451 17.4939 33.6269 17.7272 31.9095 17.9636C31.6224 18.0201 31.326 17.8036 31.2802 17.5179C31.2384 17.285 31.1215 17.0312 31.2482 16.8045C31.3331 16.6143 31.5326 16.525 31.7233 16.4783C33.3353 15.9752 34.9451 15.4659 36.5571 14.9641Z" fill="#7FB8E9"/>
<path d="M16.5645 15.7262C17.2969 15.2404 18.1862 15.0009 19.0636 15.0355C20.0036 15.0671 20.9289 15.4262 21.6422 16.04C22.2627 16.568 22.7271 17.2777 22.9565 18.06C23.3116 19.2369 23.1129 20.5569 22.4471 21.588C20.228 19.9186 18.2445 17.9369 16.5645 15.7262Z" fill="#7FB8E9"/>
</svg>
